<svg id="圖層_1" data-name="圖層 1" xmlns="http://www.w3.org/2000/svg" viewBox="0 0 56.69 56.69"><defs><style>.cls-1{fill:#fff;}</style></defs><title>履歷logo</title><path class="cls-1" d="M9.46,13.93,25.92,7.12a5.7,5.7,0,0,1,4.33,0l16.46,6.81a2.84,2.84,0,0,1,0,5.24L30.25,26a5.7,5.7,0,0,1-4.33,0L9.46,19.17A2.83,2.83,0,0,1,9.46,13.93Z"/><path class="cls-1" d="M28.08,50a5,5,0,0,1-1.91-.38L8.66,42.22a2.84,2.84,0,0,1-1.73-2.64L7,27.33a2.83,2.83,0,0,1,3.92-2.59l15,6.23a5.65,5.65,0,0,0,4.35,0l15.5-6.43a2.83,2.83,0,0,1,3.92,2.59l.09,12.42A2.84,2.84,0,0,1,48,42.2L30,49.62A5.06,5.06,0,0,1,28.08,50Z"/></svg>