<svg id="圖層_1" data-name="圖層 1" xmlns="http://www.w3.org/2000/svg" xmlns:xlink="http://www.w3.org/1999/xlink" viewBox="0 0 462 452"><defs><style>.cls-1{fill:url(#未命名漸層_2);}.cls-2{fill:#187bd6;}.cls-3{fill:#3a3a3a;}.cls-4{fill:none;stroke:#246caf;}.cls-5{fill:#288fef;}</style><linearGradient id="未命名漸層_2" x1="243" y1="372" x2="243" y2="218" gradientTransform="matrix(1, 0, 0, -1, 0, 438.58)" gradientUnits="userSpaceOnUse"><stop offset="0" stop-color="#2485e9"/><stop offset="1" stop-color="#0067d1"/></linearGradient></defs><title>履歷作品icon設計</title><path d="M145,355.76v21.68a8.7,8.7,0,0,0,2.44,6.38,9.22,9.22,0,0,0,6.77,2.43,9.12,9.12,0,0,0,6.75-2.43,8.64,8.64,0,0,0,2.47-6.38V355.76h4.21v22a11.87,11.87,0,0,1-3.63,9q-3.61,3.45-9.8,3.44t-9.82-3.44a11.92,11.92,0,0,1-3.61-9v-22Zm33.43,33.82h-4.22V355.76h4.22Zm16.4-33.82h11.37q7.51,0,11.74,4.48t4.22,12.42q0,8-4.22,12.47t-11.74,4.45H194.78Zm4.22,3.8v26.23h6.87q5.74,0,8.83-3.38t3.1-9.7q0-6.36-3.1-9.75t-8.83-3.4Zm37.5,8.76a6.24,6.24,0,0,0-4.71,2,7.7,7.7,0,0,0-2,5H243a7.4,7.4,0,0,0-1.85-5A6,6,0,0,0,236.5,368.32Zm6.4,14.28h4a8.11,8.11,0,0,1-3.38,5.32,11,11,0,0,1-6.77,2.08,10.44,10.44,0,0,1-8.23-3.37q-3-3.37-3-9.14a13.65,13.65,0,0,1,3-9.21,10.11,10.11,0,0,1,8-3.49,9.75,9.75,0,0,1,7.78,3.3c1.91,2.2,2.86,5.16,2.86,8.86v1.55H229.73v.23a8.06,8.06,0,0,0,1.92,5.63,6.7,6.7,0,0,0,5.2,2.11,7.06,7.06,0,0,0,3.92-1.06A5,5,0,0,0,242.9,382.6Zm8-10.67a6.25,6.25,0,0,1,2.54-5.13,10.29,10.29,0,0,1,6.56-2,9.73,9.73,0,0,1,6.28,2,6.72,6.72,0,0,1,2.65,5.11h-3.89a3.83,3.83,0,0,0-1.6-2.79,6.87,6.87,0,0,0-7.17,0,3.08,3.08,0,0,0-1.36,2.6q0,2.49,4.06,3.52l3.77.91a11.4,11.4,0,0,1,5.18,2.44,5.52,5.52,0,0,1,1.52,4.17,6.25,6.25,0,0,1-2.72,5.23,11.43,11.43,0,0,1-7,2,10.63,10.63,0,0,1-6.59-2,7.33,7.33,0,0,1-2.9-5.25h4.08q.67,3.88,5.67,3.89a6.89,6.89,0,0,0,3.89-1,3.05,3.05,0,0,0,1.45-2.65,2.66,2.66,0,0,0-.87-2.09,7,7,0,0,0-2.88-1.31l-4.29-1.1Q250.92,376.92,250.91,371.93Zm23,17.65V365.21H278v24.37Zm2-28.47a2.56,2.56,0,0,1-2.54-2.54,2.39,2.39,0,0,1,.75-1.78,2.52,2.52,0,0,1,3.59,0,2.39,2.39,0,0,1,.75,1.78,2.56,2.56,0,0,1-2.55,2.54Zm17.46,25.07a6.26,6.26,0,0,0,5.13-2.43,11.73,11.73,0,0,0,0-12.92,6.23,6.23,0,0,0-5.13-2.46,6.1,6.1,0,0,0-5.07,2.44,12.2,12.2,0,0,0,0,13A6.14,6.14,0,0,0,293.41,386.18Zm.14,12.59a11.62,11.62,0,0,1-6.89-2,7.6,7.6,0,0,1-3.4-5.13h4.19a5.13,5.13,0,0,0,2.3,2.69,7.53,7.53,0,0,0,4,1,7,7,0,0,0,5-1.66,5.67,5.67,0,0,0,1.82-4.41v-3.84h-.09a8.67,8.67,0,0,1-3.21,3.21,9.81,9.81,0,0,1-12.07-2.23c-1.88-2.26-2.81-5.29-2.81-9.07s.93-6.85,2.81-9.12a9.36,9.36,0,0,1,7.57-3.39,9,9,0,0,1,4.64,1.19,8.81,8.81,0,0,1,3.28,3.33h.07v-4.1h3.89v23.88a8.91,8.91,0,0,1-3,7A11.64,11.64,0,0,1,293.55,398.77Zm16.33-9.19V365.21h3.85v3.89h.09a7.57,7.57,0,0,1,3-3.17,9.28,9.28,0,0,1,4.71-1.14,8,8,0,0,1,6.22,2.41,9.26,9.26,0,0,1,2.22,6.56v15.82h-4.08V374.49a6.48,6.48,0,0,0-1.4-4.52,5.35,5.35,0,0,0-4.2-1.58,6,6,0,0,0-4.61,1.88,7,7,0,0,0-1.74,5v14.34Z"/><path d="M118.64,297.19h6.43V273.86h.19l9.32,23.33h4.54l9.3-23.33h.21v23.33h6.43V262.7h-8.34l-9.8,24.78h-.14L127,262.7h-8.34Zm50.28.52c3.88,0,6.51-1.81,7.82-4.75h.14v4.23h7V271.56h-7v14.73c0,3.34-2,5.64-5.11,5.64s-4.71-1.94-4.71-5.28V271.56h-7V288.1C160.08,294.1,163.28,297.71,168.92,297.71Zm30,0c6.6,0,11.21-3.3,11.21-8.32v0c0-3.78-2.2-5.88-7.55-7l-4.35-.93c-2.58-.55-3.46-1.41-3.46-2.73v0c0-1.65,1.5-2.73,3.92-2.73,2.58,0,4.08,1.39,4.32,3.23l0,.19h6.42v-.24c-.16-4.49-4-8.1-10.77-8.1-6.53,0-10.74,3.15-10.74,8v0c0,3.83,2.51,6.31,7.48,7.36l4.35.91c2.51.55,3.37,1.34,3.37,2.7v0c0,1.65-1.6,2.67-4.23,2.67-2.79,0-4.3-1.17-4.75-3.17l-.05-.22h-6.81l0,.22C187.9,294.44,191.85,297.71,198.94,297.71Zm18.29-29.44a3.64,3.64,0,1,0-3.73-3.64A3.67,3.67,0,0,0,217.23,268.27Zm-3.49,28.92h7V271.56h-7Zm23.37.52c6.84,0,11.26-4.25,11.6-9.85v-.14H242.2l0,.22a4.85,4.85,0,0,1-5,4.3c-3.44,0-5.59-2.85-5.59-7.86v0c0-4.9,2.15-7.84,5.57-7.84a4.87,4.87,0,0,1,5,4.3l0,.22h6.48v-.17C248.42,275.32,244,271,237,271c-7.67,0-12.57,5.09-12.57,13.29v0C224.47,292.62,229.3,297.71,237.11,297.71Zm23.07-.52h7.57l2.61-8.37h12.19l2.6,8.37h7.58l-12-34.49h-8.49Zm16.2-27.8h.15l4.35,14H272Zm19.89,27.8h7.22V286.31h6.64c7.27,0,12.12-4.68,12.12-11.78v0c0-7.1-4.85-11.78-12.12-11.78H296.27Zm12.09-28.78c4.14,0,6.57,2.17,6.57,6.09v.05c0,3.92-2.43,6.12-6.57,6.12h-4.87V268.41Zm18.17,28.78h7.21V286.31h6.65c7.27,0,12.12-4.68,12.12-11.78v0c0-7.1-4.85-11.78-12.12-11.78H326.53Zm12.09-28.78c4.13,0,6.57,2.17,6.57,6.09v.05c0,3.92-2.44,6.12-6.57,6.12h-4.88V268.41Z"/><path class="cls-1" d="M243,66.58a77,77,0,1,0,77,77A77,77,0,0,0,243,66.58ZM224.56,124.7l43.75-12.92a4.49,4.49,0,0,1,2-.14,4.26,4.26,0,0,1,1.87.79,4.31,4.31,0,0,1,1.32,1.55,4.36,4.36,0,0,1,.47,2v48.13c0,4.83-5.88,8.75-13.12,8.75s-13.13-3.92-13.13-8.75,5.88-8.75,13.13-8.75a18.94,18.94,0,0,1,4.37.54V130.63l-35,10.25v32c0,4.83-5.88,8.75-13.13,8.75S204,177.66,204,172.83s5.88-8.75,13.12-8.75a19,19,0,0,1,4.38.54V128.88a4.37,4.37,0,0,1,.85-2.59A4.41,4.41,0,0,1,224.56,124.7Z"/><path class="cls-2" d="M327,73.78A108.91,108.91,0,0,0,157,209.41c6.55,9.25,23.5,24.17,23.5,24.17h15.24a100.5,100.5,0,1,1,125-154.19Z"/><circle class="cls-3" cx="324.2" cy="77.37" r="8.79"/><circle class="cls-4" cx="324.2" cy="77.37" r="8.29"/><circle class="cls-5" cx="324.2" cy="77.37" r="3.77"/></svg>