<svg id="圖層_1" data-name="圖層 1" xmlns="http://www.w3.org/2000/svg" xmlns:xlink="http://www.w3.org/1999/xlink" viewBox="0 0 462 452"><defs><style>.cls-1,.cls-6{fill:none;}.cls-2{clip-path:url(#clip-path);}.cls-3{fill:url(#未命名漸層_2);}.cls-4{fill:#187bd6;}.cls-5{fill:#3a3a3a;}.cls-6{stroke:#246caf;}.cls-7{fill:#288fef;}</style><clipPath id="clip-path"><rect class="cls-1" x="-71" y="-281.42" width="1500" height="1000"/></clipPath><linearGradient id="未命名漸層_2" x1="243" y1="372" x2="243" y2="218" gradientTransform="matrix(1, 0, 0, -1, 0, 438.58)" gradientUnits="userSpaceOnUse"><stop offset="0" stop-color="#2485e9"/><stop offset="1" stop-color="#0067d1"/></linearGradient></defs><title>ft_logo</title><g class="cls-2"><path d="M145,355.76v21.68a8.7,8.7,0,0,0,2.44,6.38,9.22,9.22,0,0,0,6.77,2.43,9.12,9.12,0,0,0,6.75-2.43,8.64,8.64,0,0,0,2.47-6.38V355.76h4.21v22a11.87,11.87,0,0,1-3.63,9q-3.61,3.45-9.8,3.44t-9.82-3.44a11.92,11.92,0,0,1-3.61-9v-22Zm33.43,33.82h-4.22V355.76h4.22Zm16.4-33.82h11.37q7.51,0,11.74,4.48t4.22,12.42q0,8-4.22,12.47t-11.74,4.45H194.78Zm4.22,3.8v26.23h6.87q5.74,0,8.83-3.38t3.1-9.7q0-6.36-3.1-9.75t-8.83-3.4Zm37.5,8.76a6.24,6.24,0,0,0-4.71,2,7.7,7.7,0,0,0-2,5H243a7.4,7.4,0,0,0-1.85-5A6,6,0,0,0,236.5,368.32Zm6.4,14.28h4a8.11,8.11,0,0,1-3.38,5.32,11,11,0,0,1-6.77,2.08,10.44,10.44,0,0,1-8.23-3.37q-3-3.37-3-9.14a13.65,13.65,0,0,1,3-9.21,10.11,10.11,0,0,1,8-3.49,9.75,9.75,0,0,1,7.78,3.3c1.91,2.2,2.86,5.16,2.86,8.86v1.55H229.73v.23a8.06,8.06,0,0,0,1.92,5.63,6.7,6.7,0,0,0,5.2,2.11,7.06,7.06,0,0,0,3.92-1.06A5,5,0,0,0,242.9,382.6Zm8-10.67a6.25,6.25,0,0,1,2.54-5.13,10.29,10.29,0,0,1,6.56-2,9.73,9.73,0,0,1,6.28,2,6.72,6.72,0,0,1,2.65,5.11h-3.89a3.83,3.83,0,0,0-1.6-2.79,6.87,6.87,0,0,0-7.17,0,3.08,3.08,0,0,0-1.36,2.6q0,2.49,4.06,3.52l3.77.91a11.4,11.4,0,0,1,5.18,2.44,5.52,5.52,0,0,1,1.52,4.17,6.25,6.25,0,0,1-2.72,5.23,11.43,11.43,0,0,1-7,2,10.63,10.63,0,0,1-6.59-2,7.33,7.33,0,0,1-2.9-5.25h4.08q.67,3.88,5.67,3.89a6.89,6.89,0,0,0,3.89-1,3.05,3.05,0,0,0,1.45-2.65,2.66,2.66,0,0,0-.87-2.09,7,7,0,0,0-2.88-1.31l-4.29-1.1Q250.92,376.92,250.91,371.93Zm23,17.65V365.21H278v24.37Zm2-28.47a2.56,2.56,0,0,1-2.54-2.54,2.39,2.39,0,0,1,.75-1.78,2.52,2.52,0,0,1,3.59,0,2.39,2.39,0,0,1,.75,1.78,2.56,2.56,0,0,1-2.55,2.54Zm17.46,25.07a6.26,6.26,0,0,0,5.13-2.43,11.73,11.73,0,0,0,0-12.92,6.23,6.23,0,0,0-5.13-2.46,6.1,6.1,0,0,0-5.07,2.44,12.2,12.2,0,0,0,0,13A6.14,6.14,0,0,0,293.41,386.18Zm.14,12.59a11.62,11.62,0,0,1-6.89-2,7.6,7.6,0,0,1-3.4-5.13h4.19a5.13,5.13,0,0,0,2.3,2.69,7.53,7.53,0,0,0,4,1,7,7,0,0,0,5-1.66,5.67,5.67,0,0,0,1.82-4.41v-3.84h-.09a8.67,8.67,0,0,1-3.21,3.21,9.81,9.81,0,0,1-12.07-2.23c-1.88-2.26-2.81-5.29-2.81-9.07s.93-6.85,2.81-9.12a9.36,9.36,0,0,1,7.57-3.39,9,9,0,0,1,4.64,1.19,8.81,8.81,0,0,1,3.28,3.33h.07v-4.1h3.89v23.88a8.91,8.91,0,0,1-3,7A11.64,11.64,0,0,1,293.55,398.77Zm16.33-9.19V365.21h3.85v3.89h.09a7.57,7.57,0,0,1,3-3.17,9.28,9.28,0,0,1,4.71-1.14,8,8,0,0,1,6.22,2.41,9.26,9.26,0,0,1,2.22,6.56v15.82h-4.08V374.49a6.48,6.48,0,0,0-1.4-4.52,5.35,5.35,0,0,0-4.2-1.58,6,6,0,0,0-4.61,1.88,7,7,0,0,0-1.74,5v14.34Z"/><path d="M63.57,314.58H73V280.27h.28L87,314.58H93.7l13.68-34.31h.31v34.31h9.46V263.85H104.88L90.46,300.31h-.21L75.84,263.85H63.57Zm74,.78c5.69,0,9.56-2.68,11.5-7h.21v6.22h10.26V276.89H149.25v21.66c0,4.92-2.92,8.3-7.53,8.3s-6.92-2.85-6.92-7.77V276.89H124.53v24.33C124.53,310.05,129.24,315.36,137.54,315.36Zm44.16,0c9.7,0,16.48-4.86,16.48-12.24v0c0-5.56-3.23-8.65-11.11-10.3l-6.39-1.38c-3.8-.8-5.1-2.07-5.1-4v0c0-2.42,2.21-4,5.76-4,3.8,0,6,2,6.37,4.75l0,.28h9.46V288c-.25-6.61-5.84-11.92-15.86-11.92-9.59,0-15.78,4.64-15.78,11.81v0c0,5.62,3.69,9.28,11,10.83l6.4,1.33c3.69.81,5,2,5,4v0c0,2.43-2.36,3.94-6.22,3.94-4.12,0-6.33-1.72-7-4.68l-.07-.31h-10l0,.31C165.45,310.54,171.25,315.36,181.7,315.36ZM208.59,272a5.34,5.34,0,1,0-5.48-5.34A5.39,5.39,0,0,0,208.59,272Zm-5.13,42.54h10.26V276.89H203.46Zm34.38.78c10,0,16.56-6.26,17-14.49v-.21h-9.56l0,.32c-.7,3.79-3.27,6.33-7.38,6.33-5.06,0-8.23-4.19-8.23-11.57v0c0-7.2,3.17-11.53,8.2-11.53,4.25,0,6.74,2.74,7.38,6.33l.07.32h9.53v-.25c-.39-8.16-6.9-14.45-17.13-14.45-11.28,0-18.49,7.49-18.49,19.55v0C219.24,307.87,226.34,315.36,237.84,315.36Zm33.93-.78h11.14l3.83-12.3h17.93l3.83,12.3h11.15L302,263.85H289.48ZM295.6,273.7h.21l6.4,20.63h-13Zm29.25,40.88h10.62v-16h9.77c10.69,0,17.83-6.89,17.83-17.34v-.07c0-10.44-7.14-17.33-17.83-17.33H324.85Zm17.79-42.33c6.08,0,9.67,3.2,9.67,9v.07c0,5.77-3.59,9-9.67,9h-7.17v-18Zm26.72,42.33H380v-16h9.77c10.69,0,17.82-6.89,17.82-17.34v-.07c0-10.44-7.13-17.33-17.82-17.33H369.36Zm17.79-42.33c6.08,0,9.67,3.2,9.67,9v.07c0,5.77-3.59,9-9.67,9H380v-18Z"/><path class="cls-3" d="M243,66.58a77,77,0,1,0,77,77A77,77,0,0,0,243,66.58ZM224.56,124.7l43.75-12.92a4.49,4.49,0,0,1,2-.14,4.26,4.26,0,0,1,1.87.79,4.31,4.31,0,0,1,1.32,1.55,4.36,4.36,0,0,1,.47,2v48.13c0,4.83-5.88,8.75-13.12,8.75s-13.13-3.92-13.13-8.75,5.88-8.75,13.13-8.75a18.94,18.94,0,0,1,4.37.54V130.63l-35,10.25v32c0,4.83-5.88,8.75-13.13,8.75S204,177.66,204,172.83s5.88-8.75,13.12-8.75a19,19,0,0,1,4.38.54V128.88a4.37,4.37,0,0,1,.85-2.59A4.41,4.41,0,0,1,224.56,124.7Z"/><path class="cls-4" d="M327,73.78A108.91,108.91,0,0,0,157,209.41c6.55,9.25,23.5,24.17,23.5,24.17h15.24a100.5,100.5,0,1,1,125-154.19Z"/><circle class="cls-5" cx="324.2" cy="77.37" r="8.79"/><circle class="cls-6" cx="324.2" cy="77.37" r="8.29"/><circle class="cls-7" cx="324.2" cy="77.37" r="3.77"/></g></svg>