<svg id="圖層_1" data-name="圖層 1" xmlns="http://www.w3.org/2000/svg" viewBox="0 0 462 452"><defs><style>.cls-1{font-size:72px;font-family:SFProDisplay-Bold, SF Pro Display;font-weight:700;}.cls-2{letter-spacing:-0.03em;}.cls-3{font-size:48px;font-family:SFProDisplay-Regular, SF Pro Display;}.cls-4{fill:#608fcb;}.cls-5{fill:#36427d;}</style></defs><title>ft_logo</title><text class="cls-1" transform="translate(177.12 316.36)"><tspan class="cls-2">A</tspan><tspan x="47.39" y="0">tli</tspan></text><text class="cls-3" transform="translate(112.02 388.36)">logo Design</text><g id="圖層_2" data-name="圖層 2"><g id="圖層_1-2" data-name="圖層 1-2"><path class="cls-4" d="M346.8,113.09a8.21,8.21,0,0,1,0-11.49,7.69,7.69,0,0,1,5.73-2.38,7.85,7.85,0,0,1,5.78,2.4,7.76,7.76,0,0,1,2.41,5.74,8.19,8.19,0,0,1-8.21,8.12A7.69,7.69,0,0,1,346.8,113.09Z"/><path class="cls-5" d="M262.31,99.91l-57.9-.06a7.66,7.66,0,0,0-5.72,2.43,8,8,0,0,0-2.35,5.78,8,8,0,0,0,8,8.09h20.82l-.07,59.45a8,8,0,0,0,7.91,8.06h.19a8,8,0,0,0,5.79-2.29,7.7,7.7,0,0,0,2.41-5.73l.07-59.46H262.3a8,8,0,0,0,8.07-8.05,8,8,0,0,0-2.34-5.8A7.72,7.72,0,0,0,262.31,99.91Z"/><path class="cls-5" d="M359.18,134.29a8.1,8.1,0,0,0-6.67-3.42,7.85,7.85,0,0,0-6.59,3.41,8.17,8.17,0,0,0-1.53,4.9l-.07,36.92a8.08,8.08,0,0,0,2.46,5.91,7.94,7.94,0,0,0,5.28,2.3A8.09,8.09,0,0,0,359,181a8,8,0,0,0,1.58-4.94l.07-36.91A7.87,7.87,0,0,0,359.18,134.29Z"/><path class="cls-5" d="M321.29,168h-.68a18,18,0,0,1-17.95-17.95V107.42a7.76,7.76,0,0,0-1.53-4.76,8,8,0,0,0-6.65-3.44,7.82,7.82,0,0,0-6.56,3.41,8.1,8.1,0,0,0-1.48,4.9s-.05,42.77-.05,42.89a34.21,34.21,0,0,0,34.2,33.86,13.28,13.28,0,0,0,1.84-.1A8.13,8.13,0,0,0,321.29,168Z"/><path class="cls-5" d="M185.26,141.44a42,42,0,1,0-16.32,33.46v.56a8,8,0,0,0,2.46,5.91,7.94,7.94,0,0,0,5.28,2.3,8.1,8.1,0,0,0,6.95-3.35,7.94,7.94,0,0,0,1.58-4.93C185.22,168,185.26,141.54,185.26,141.44Zm-41.92,26A25.68,25.68,0,1,1,169,141.76h0A25.67,25.67,0,0,1,143.34,167.43Z"/></g></g></svg>