<svg id="圖層_1" data-name="圖層 1" xmlns="http://www.w3.org/2000/svg" viewBox="0 0 462 452"><defs><style>.cls-1{fill:#608fcb;}.cls-2{fill:#36427d;}</style></defs><title>履歷作品icon設計</title><path d="M108,353.39h4.22v30H128.5v3.79H108Z"/><path d="M130.61,375v0c0-7.76,4.54-12.61,11.27-12.61s11.3,4.83,11.3,12.61v0c0,7.78-4.55,12.65-11.28,12.65S130.61,382.78,130.61,375ZM149,375v0c0-5.72-2.81-9-7.12-9s-7.1,3.3-7.1,9v0c0,5.74,2.83,9,7.15,9S149,380.74,149,375Z"/><path d="M157,389.44l0-.21H161l.09.21c.77,1.76,3.09,2.84,6.42,2.84,4.29,0,6.73-2.37,6.73-6.15V383h-.09a8.58,8.58,0,0,1-7.76,4.43c-6.14,0-10.34-4.95-10.34-12.57v0c0-7.57,4.24-12.49,10.43-12.49a8.61,8.61,0,0,1,7.67,4.59h.09v-4.12h4.08v23.69c0,5.65-4.15,9.35-10.76,9.35C161.57,395.88,157.77,393.05,157,389.44Zm17.3-14.56v0c0-5.37-2.84-8.88-7-8.88-4.34,0-7.06,3.47-7.06,8.88v0c0,5.54,2.72,9,7.06,9C171.46,383.84,174.27,380.3,174.27,374.88Z"/><path d="M182.43,375v0c0-7.76,4.54-12.61,11.27-12.61S205,367.2,205,375v0c0,7.78-4.55,12.65-11.28,12.65S182.43,382.78,182.43,375Zm18.39,0v0c0-5.72-2.81-9-7.12-9s-7.1,3.3-7.1,9v0c0,5.74,2.83,9,7.15,9S200.82,380.74,200.82,375Z"/><path d="M219.57,353.39h11.37c10,0,16,6.24,16,16.85v.05c0,10.67-5.9,16.92-16,16.92H219.57Zm11.09,30c7.66,0,11.93-4.69,11.93-13.08v0c0-8.44-4.27-13.1-11.93-13.1h-6.87v26.23Z"/><path d="M250.32,375.12v0c0-7.55,4.32-12.73,11-12.73S272,367.31,272,374.63v1.5H254.45c.09,5,2.86,7.94,7.19,7.94,3.1,0,5.28-1.54,6-3.63l.07-.21h4l-.05.23c-.79,4-4.78,7.22-10.1,7.22C254.54,387.68,250.32,382.78,250.32,375.12Zm4.2-2.18h13.34c-.4-4.73-3-7-6.59-7S255,368.39,254.52,372.94Z"/><path d="M275.05,380.39l0-.21h4.08l0,.24c.49,2.43,2.3,3.86,5.63,3.86s5.27-1.38,5.27-3.58v0c0-1.75-.91-2.74-3.68-3.42l-3.87-.94c-4.59-1.1-6.82-3.23-6.82-6.75v0c0-4.19,3.68-7.17,9-7.17s8.74,3.12,9,7.19l0,.31h-3.89l0-.16c-.33-2.37-2.13-3.94-5.15-3.94s-4.78,1.43-4.78,3.58v0c0,1.66,1.1,2.81,3.79,3.47l3.87.93c4.92,1.2,6.7,3.14,6.7,6.61v0c0,4.26-4,7.26-9.47,7.26C279,387.68,275.54,384.75,275.05,380.39Z"/><path d="M298.18,356.16a2.56,2.56,0,1,1,2.56,2.55A2.55,2.55,0,0,1,298.18,356.16Zm.52,6.68h4.08v24.37H298.7Z"/><path d="M308,389.44l0-.21h4.1l.1.21c.77,1.76,3.09,2.84,6.42,2.84,4.29,0,6.72-2.37,6.72-6.15V383h-.09a8.57,8.57,0,0,1-7.76,4.43c-6.14,0-10.33-4.95-10.33-12.57v0c0-7.57,4.24-12.49,10.43-12.49a8.6,8.6,0,0,1,7.66,4.59h.09v-4.12h4.08v23.69c0,5.65-4.15,9.35-10.76,9.35C312.62,395.88,308.82,393.05,308,389.44Zm17.29-14.56v0c0-5.37-2.83-8.88-7-8.88-4.33,0-7.05,3.47-7.05,8.88v0c0,5.54,2.72,9,7.05,9C322.51,383.84,325.32,380.3,325.32,374.88Z"/><path d="M334.68,362.84h4.07v3.47h.1c1.31-2.28,3.79-3.94,7.5-3.94,5.34,0,8.44,3.47,8.44,9v15.82h-4.08V372.12c0-4-1.85-6.14-5.6-6.14s-6.36,2.74-6.36,6.89v14.34h-4.07Z"/><g id="圖層_2" data-name="圖層 2"><g id="圖層_1-2" data-name="圖層 1-2"><path class="cls-1" d="M346.8,139.36a8.21,8.21,0,0,1,0-11.49,7.69,7.69,0,0,1,5.73-2.39,7.89,7.89,0,0,1,5.78,2.4,7.79,7.79,0,0,1,2.41,5.75,8.19,8.19,0,0,1-8.21,8.12A7.73,7.73,0,0,1,346.8,139.36Z"/><path class="cls-2" d="M262.31,126.18l-57.9-.07a7.67,7.67,0,0,0-5.72,2.44,8,8,0,0,0-2.35,5.78,7.94,7.94,0,0,0,8,8.08h20.82l-.07,59.45a8,8,0,0,0,7.91,8.07h.19a8,8,0,0,0,5.79-2.3,7.68,7.68,0,0,0,2.41-5.72l.07-59.46H262.3a8,8,0,0,0,8.07-8.06A8,8,0,0,0,268,128.6,7.65,7.65,0,0,0,262.31,126.18Z"/><path class="cls-2" d="M359.18,160.56a8.14,8.14,0,0,0-6.67-3.43,7.9,7.9,0,0,0-6.59,3.41,8.21,8.21,0,0,0-1.53,4.9l-.07,36.92a8.09,8.09,0,0,0,2.46,5.92,7.88,7.88,0,0,0,5.28,2.29,8.07,8.07,0,0,0,6.95-3.34,7.94,7.94,0,0,0,1.58-4.93l.07-36.92A7.84,7.84,0,0,0,359.18,160.56Z"/><path class="cls-2" d="M321.29,194.27h-.68a18,18,0,0,1-17.95-18V133.69a7.79,7.79,0,0,0-1.53-4.77,8.1,8.1,0,0,0-6.65-3.44,7.84,7.84,0,0,0-6.56,3.41,8.1,8.1,0,0,0-1.48,4.9s-.05,42.78-.05,42.9a34.2,34.2,0,0,0,34.2,33.85,13.28,13.28,0,0,0,1.84-.1,8.12,8.12,0,0,0-1.14-16.17Z"/><path class="cls-2" d="M185.26,167.7a42,42,0,1,0-16.32,33.47v.56a8.08,8.08,0,0,0,2.46,5.91,7.94,7.94,0,0,0,5.28,2.3,8.1,8.1,0,0,0,6.95-3.35,8,8,0,0,0,1.58-4.93C185.22,194.28,185.26,167.81,185.26,167.7Zm-41.92,26A25.68,25.68,0,1,1,169,168h0A25.68,25.68,0,0,1,143.34,193.7Z"/></g></g></svg>