<svg id="圖層_1" data-name="圖層 1" xmlns="http://www.w3.org/2000/svg" viewBox="0 0 462 452"><title>履歷作品icon設計</title><path d="M94.81,153.76H121.4c11.48,0,18.68,5.89,18.68,15.25v.08a13.44,13.44,0,0,1-11.73,13.21v.26c8.51.63,14.65,6.69,14.65,14.73v.09c0,10.75-8.09,17.48-21.13,17.48H94.81Zm12.79,9.49V179h9.19c6.81,0,10.71-3,10.71-8.08v-.09c0-4.83-3.47-7.62-9.4-7.62Zm0,24.47v17.62h11c7.32,0,11.35-3.05,11.35-8.81v-.08c0-5.68-4.11-8.73-11.65-8.73Z"/><path d="M147.48,201.87v-.09c0-8.26,6.4-13.08,17.66-13.8l11.22-.68v-2.8c0-4-2.63-6.52-7.45-6.52-4.62,0-7.41,2.16-8,5.08l-.08.39H149.51l.05-.51c.67-8.39,7.87-14.4,19.86-14.4,11.72,0,19.3,6.06,19.3,15.2v31.12H176.36v-6.77h-.25c-2.59,4.66-7.41,7.49-13.38,7.49C153.62,215.58,147.48,209.87,147.48,201.87Zm19.27,4.7c5.55,0,9.61-3.56,9.61-8.3V195l-9.36.59c-4.78.3-7.28,2.33-7.28,5.55v.08C159.72,204.58,162.47,206.57,166.75,206.57Z"/><path d="M196.68,169.47h12.37v7.46h.25c2.33-5.21,7-8.39,13.85-8.39,10,0,15.66,6.4,15.66,17v29.3H226.45V188.1c0-5.92-2.8-9.31-8.34-9.31s-9.06,4.06-9.06,10v26.08H196.68Z"/><path d="M246.64,169.47H259v7.46h.25c2.33-5.21,7-8.39,13.85-8.39,10,0,15.67,6.4,15.67,17v29.3H276.41V188.1c0-5.92-2.79-9.31-8.34-9.31s-9.06,4.06-9.06,10v26.08H246.64Z"/><path d="M295,192.25v0c0-14.44,8.52-23.67,21.81-23.67s21.64,9,21.64,22.74v3.81H307.15c.13,7.24,4.06,11.48,10.37,11.48,5.08,0,8.18-2.8,9.07-5.34l.08-.25H338l-.13.46c-1.4,6.69-7.66,14.36-20.62,14.36C303.38,215.8,295,206.78,295,192.25Zm12.33-4.95h19.26c-.76-6.27-4.44-9.53-9.57-9.53S308.08,181.16,307.28,187.3Z"/><path d="M344.75,169.47H356.9v7.75h.25c1.32-5.5,5.17-8.68,10.55-8.68a13.63,13.63,0,0,1,3.55.47v10.88a12.86,12.86,0,0,0-4.48-.68c-6.1,0-9.66,3.69-9.66,10.08v25.57H344.75Z"/><path d="M78.28,369.94v0c0-10.57,6-17.27,15.49-17.27,7.78,0,12.45,4.48,14,10.45l.12.45h-4.43l-.1-.26a9.6,9.6,0,0,0-9.61-6.75c-7,0-11.18,5-11.18,13.38v0c0,8.51,4.29,13.76,11.18,13.76,6,0,10.13-3.9,10.13-9.57v-.61H94.36v-3.7h13.76V373c0,9.14-5.32,14.56-14.35,14.56C84.33,387.59,78.28,380.72,78.28,369.94Z"/><path d="M112.88,362.65h3.84v3.94h.09a6,6,0,0,1,5.91-4.41,11.64,11.64,0,0,1,1.64.16v4a8.63,8.63,0,0,0-2.18-.23c-3.16,0-5.23,2.27-5.23,5.72V387h-4.07Z"/><path d="M126.21,380.13v0c0-4.15,3.24-6.75,8.84-7.08l7-.4v-2c0-3-1.94-4.78-5.34-4.78-3.14,0-5.11,1.5-5.58,3.68l-.05.21h-3.93l0-.26c.35-4,3.84-7.24,9.58-7.24s9.38,3.12,9.38,8V387H142v-4h-.09a8.62,8.62,0,0,1-7.62,4.43C129.47,387.49,126.21,384.56,126.21,380.13Zm9,3.82c3.85,0,6.8-2.65,6.8-6.18v-2l-6.51.4c-3.26.19-5.14,1.64-5.14,3.92v0C130.38,382.48,132.3,384,135.23,384Z"/><path d="M151.29,362.65h4.08v4.12h.09a8.48,8.48,0,0,1,7.74-4.59c6.23,0,10.35,5,10.35,12.66v0c0,7.69-4.17,12.63-10.28,12.63a8.64,8.64,0,0,1-7.81-4.54h-.09v12.28h-4.08Zm18.09,12.21v0c0-5.61-2.67-9-7-9-4.13,0-7.06,3.59-7.06,9v0c0,5.44,3,9,7.06,9C166.71,383.88,169.38,380.41,169.38,374.86Z"/><path d="M177.87,353.2H182v13.34H182c1.31-2.74,4-4.36,7.59-4.36,5.18,0,8.72,4,8.72,9.91V387h-4.08V372.8c0-4.41-2.25-7-6-7s-6.28,2.86-6.28,7V387h-4.08Z"/><path d="M203.27,356a2.56,2.56,0,1,1,2.56,2.55A2.55,2.55,0,0,1,203.27,356Zm.52,6.68h4.08V387h-4.08Z"/><path d="M212.23,374.81v0c0-7.69,4.47-12.61,11.25-12.61,6.07,0,9.65,4,10.17,8.2l0,.19h-4l-.05-.19a6,6,0,0,0-6.16-4.59c-4.25,0-7.08,3.51-7.08,9v0c0,5.67,2.9,9,7.12,9a5.9,5.9,0,0,0,6.14-4.59l.05-.19h4l0,.17c-.66,4.64-4.67,8.22-10.18,8.22C216.61,387.49,212.23,382.57,212.23,374.81Z"/><path d="M248,353.2h11.36c10,0,16,6.24,16,16.85v.05c0,10.67-5.9,16.92-16,16.92H248Zm11.08,30c7.67,0,11.93-4.69,11.93-13.08v0c0-8.44-4.26-13.1-11.93-13.1h-6.87v26.23Z"/><path d="M278.7,374.93v0c0-7.55,4.31-12.73,11-12.73s10.72,4.94,10.72,12.26v1.5H282.82c.09,5,2.86,7.94,7.2,7.94,3.09,0,5.27-1.54,6-3.63l.07-.21h4l-.05.23c-.79,4-4.78,7.22-10.1,7.22C282.91,387.49,278.7,382.59,278.7,374.93Zm4.19-2.18h13.34c-.4-4.73-3-7-6.59-7S283.34,368.2,282.89,372.75Z"/><path d="M303.42,380.2l0-.21h4.08l0,.24c.5,2.43,2.3,3.86,5.63,3.86s5.27-1.38,5.27-3.58v0c0-1.75-.91-2.74-3.68-3.42l-3.86-.94c-4.6-1.1-6.83-3.23-6.83-6.74v0c0-4.19,3.68-7.17,9-7.17s8.74,3.12,9,7.2l0,.3h-3.89l0-.16c-.32-2.37-2.13-3.94-5.15-3.94s-4.78,1.43-4.78,3.58v0c0,1.66,1.1,2.81,3.79,3.47l3.87.93c4.92,1.2,6.7,3.14,6.7,6.61v0c0,4.26-4,7.26-9.46,7.26C307.38,387.49,303.91,384.56,303.42,380.2Z"/><path d="M326.55,356a2.56,2.56,0,1,1,2.56,2.55A2.55,2.55,0,0,1,326.55,356Zm.52,6.68h4.08V387h-4.08Z"/><path d="M336.4,389.25l0-.21h4.1l.1.21c.77,1.76,3.09,2.84,6.42,2.84,4.29,0,6.73-2.37,6.73-6.14v-3.12h-.1a8.56,8.56,0,0,1-7.76,4.43c-6.14,0-10.33-4.95-10.33-12.56v0c0-7.57,4.24-12.49,10.43-12.49a8.6,8.6,0,0,1,7.66,4.59h.1v-4.12h4.07v23.69c0,5.65-4.14,9.36-10.75,9.36C341,395.7,337.2,392.86,336.4,389.25Zm17.3-14.55v0c0-5.37-2.84-8.88-7-8.88-4.33,0-7.05,3.47-7.05,8.88v0c0,5.53,2.72,8.95,7.05,8.95C350.88,383.65,353.7,380.11,353.7,374.7Z"/><path d="M363.05,362.65h4.08v3.47h.09c1.31-2.28,3.8-3.94,7.5-3.94,5.34,0,8.44,3.47,8.44,9V387h-4.08V371.93c0-4-1.85-6.14-5.6-6.14s-6.35,2.74-6.35,6.89V387h-4.08Z"/></svg>