<svg id="圖層_1" data-name="圖層 1" xmlns="http://www.w3.org/2000/svg" viewBox="0 0 462 452"><defs><style>.cls-1{fill:none;}.cls-2{fill:#c3094a;}.cls-3{fill:#e40064;}.cls-4{fill:#9d113d;}.cls-5{fill:#040000;}.cls-6{fill:#231815;}</style></defs><title>履歷作品icon設計</title><path d="M108,353.39h4.22v30H128.5v3.79H108Z"/><path d="M130.61,375v0c0-7.76,4.54-12.61,11.27-12.61s11.3,4.83,11.3,12.61v0c0,7.78-4.55,12.65-11.28,12.65S130.61,382.78,130.61,375ZM149,375v0c0-5.72-2.81-9-7.12-9s-7.1,3.3-7.1,9v0c0,5.74,2.83,9,7.15,9S149,380.74,149,375Z"/><path d="M157,389.44l0-.21H161l.09.21c.77,1.76,3.09,2.84,6.42,2.84,4.29,0,6.73-2.37,6.73-6.15V383h-.09a8.58,8.58,0,0,1-7.76,4.43c-6.14,0-10.34-4.95-10.34-12.57v0c0-7.57,4.24-12.49,10.43-12.49a8.61,8.61,0,0,1,7.67,4.59h.09v-4.12h4.08v23.69c0,5.65-4.15,9.35-10.76,9.35C161.57,395.88,157.77,393.05,157,389.44Zm17.3-14.56v0c0-5.37-2.84-8.88-7-8.88-4.34,0-7.06,3.47-7.06,8.88v0c0,5.54,2.72,9,7.06,9C171.46,383.84,174.27,380.3,174.27,374.88Z"/><path d="M182.43,375v0c0-7.76,4.54-12.61,11.27-12.61S205,367.2,205,375v0c0,7.78-4.55,12.65-11.28,12.65S182.43,382.78,182.43,375Zm18.39,0v0c0-5.72-2.81-9-7.12-9s-7.1,3.3-7.1,9v0c0,5.74,2.83,9,7.15,9S200.82,380.74,200.82,375Z"/><path d="M219.57,353.39h11.37c10,0,16,6.24,16,16.85v.05c0,10.67-5.9,16.92-16,16.92H219.57Zm11.09,30c7.66,0,11.93-4.69,11.93-13.08v0c0-8.44-4.27-13.1-11.93-13.1h-6.87v26.23Z"/><path d="M250.32,375.12v0c0-7.55,4.32-12.73,11-12.73S272,367.31,272,374.63v1.5H254.45c.09,5,2.86,7.94,7.19,7.94,3.1,0,5.28-1.54,6-3.63l.07-.21h4l-.05.23c-.79,4-4.78,7.22-10.1,7.22C254.54,387.68,250.32,382.78,250.32,375.12Zm4.2-2.18h13.34c-.4-4.73-3-7-6.59-7S255,368.39,254.52,372.94Z"/><path d="M275.05,380.39l0-.21h4.08l0,.24c.49,2.43,2.3,3.86,5.63,3.86s5.27-1.38,5.27-3.58v0c0-1.75-.91-2.74-3.68-3.42l-3.87-.94c-4.59-1.1-6.82-3.23-6.82-6.75v0c0-4.19,3.68-7.17,9-7.17s8.74,3.12,9,7.19l0,.31h-3.89l0-.16c-.33-2.37-2.13-3.94-5.15-3.94s-4.78,1.43-4.78,3.58v0c0,1.66,1.1,2.81,3.79,3.47l3.87.93c4.92,1.2,6.7,3.14,6.7,6.61v0c0,4.26-4,7.26-9.47,7.26C279,387.68,275.54,384.75,275.05,380.39Z"/><path d="M298.18,356.16a2.56,2.56,0,1,1,2.56,2.55A2.55,2.55,0,0,1,298.18,356.16Zm.52,6.68h4.08v24.37H298.7Z"/><path d="M308,389.44l0-.21h4.1l.1.21c.77,1.76,3.09,2.84,6.42,2.84,4.29,0,6.72-2.37,6.72-6.15V383h-.09a8.57,8.57,0,0,1-7.76,4.43c-6.14,0-10.33-4.95-10.33-12.57v0c0-7.57,4.24-12.49,10.43-12.49a8.6,8.6,0,0,1,7.66,4.59h.09v-4.12h4.08v23.69c0,5.65-4.15,9.35-10.76,9.35C312.62,395.88,308.82,393.05,308,389.44Zm17.29-14.56v0c0-5.37-2.83-8.88-7-8.88-4.33,0-7.05,3.47-7.05,8.88v0c0,5.54,2.72,9,7.05,9C322.51,383.84,325.32,380.3,325.32,374.88Z"/><path d="M334.68,362.84h4.07v3.47h.1c1.31-2.28,3.79-3.94,7.5-3.94,5.34,0,8.44,3.47,8.44,9v15.82h-4.08V372.12c0-4-1.85-6.14-5.6-6.14s-6.36,2.74-6.36,6.89v14.34h-4.07Z"/><path class="cls-1" d="M231.35,160.38V145.55a150,150,0,0,1-36.81-4.88v15.42A147.14,147.14,0,0,0,231.35,160.38Z"/><path class="cls-1" d="M231.35,145.55v14.83h0a147,147,0,0,0,36.79-4.28V140.68a150.27,150.27,0,0,1-36.79,4.88Z"/><path class="cls-2" d="M268.17,156.1a147,147,0,0,1-36.79,4.28h0V231.5h0c5.87.05,9.38-2.82,12.26-7.19a100.07,100.07,0,0,1,24.53-48.45Z"/><path class="cls-2" d="M194.54,175.86V156.09c-27.74-6.86-44.19-19.52-44.19-19.52l-.06,8.37.34.15A125.9,125.9,0,0,1,194.54,175.86Z"/><path class="cls-3" d="M312.42,144.94l0,0-.06-8.34s-16.47,12.67-44.23,19.53v19.76A125.9,125.9,0,0,1,312.42,144.94Z"/><path class="cls-4" d="M312.46,144.91l0,0a125.9,125.9,0,0,0-44.25,30.92,100.07,100.07,0,0,0-24.53,48.45c2.25-3.41,4.13-7.74,6.44-12.31a185.13,185.13,0,0,1,18.09-29c22.3-29.13,44.29-38.07,44.29-38.07Z"/><path class="cls-3" d="M194.54,156.09v19.77A100,100,0,0,1,219,224.21c2.9,4.43,6.42,7.33,12.31,7.29V160.38A147.14,147.14,0,0,1,194.54,156.09Z"/><path class="cls-4" d="M194.54,175.86a125.9,125.9,0,0,0-43.91-30.77c2.85,1.25,23.24,10.88,43.91,37.87a184.37,184.37,0,0,1,18.13,29c2.29,4.53,4.15,8.82,6.37,12.21A100,100,0,0,0,194.54,175.86Z"/><path class="cls-5" d="M231.35,145.53v0h0Z"/><path class="cls-4" d="M194.54,105.83,150.35,115c9.8,12.13,25.81,20.73,44.19,25.65a150,150,0,0,0,36.81,4.88v0Z"/><path class="cls-2" d="M194.54,83c-8.85,0-16.19,4.21-20.21,12.09-7.67,15-18.82,15.24-18.82,15.24L150.35,115l44.19-9.19Z"/><path class="cls-3" d="M231.35,145.53V111.8c-9.24.2-12.95-10.15-17.36-17C210,88.66,203.59,83,194.68,83h-.14v22.86Z"/><path class="cls-2" d="M231.38,145.56l36.79-39.69V83h-.1c-8.9,0-15.36,5.69-19.31,11.83-4.41,6.85-8.13,17.22-17.38,17h0v33.73Z"/><path class="cls-3" d="M268.21,105.83,312.4,115l-5.16-4.72s-11.15-.2-18.82-15.24C284.39,87.17,277,83,268.17,83v22.9Z"/><path class="cls-4" d="M268.21,105.83l0,0-36.79,39.69a150.27,150.27,0,0,0,36.79-4.88c18.4-4.92,34.42-13.52,44.23-25.66Z"/><path class="cls-6" d="M162.4,245.25V254a2.18,2.18,0,0,0,.19,1.2q.18.21,1.11.21H167a19.59,19.59,0,0,0,3.58-.26,2.86,2.86,0,0,0,1.51-.63,4.39,4.39,0,0,0,.63-1.81c.07-.36.26-.53.55-.52s.42.21.42.58c0,.1,0,.26,0,.48-.13,1.39-.2,2.66-.2,3.81,0,.87,0,1.74.13,2.6,0,.29,0,.49,0,.62q0,.54-.42.54a.51.51,0,0,1-.55-.47l-.13-.61a2.87,2.87,0,0,0-1-2,4.86,4.86,0,0,0-2.62-.52h-4.76a2.93,2.93,0,0,0-1.41.22.92.92,0,0,0-.36.86l0,.72v8c0,1.22.22,2,.66,2.29a7.3,7.3,0,0,0,3.33.46q8.46,0,10.88-3.82c.16-.25.32-.38.49-.39s.39.17.39.56a5.69,5.69,0,0,1-1.57,3.33,5.93,5.93,0,0,1-4.79,2.32c-.42,0-1,0-1.68-.08q-4.12-.39-6.82-.39a36,36,0,0,0-5.33.26,7.63,7.63,0,0,1-1.12.15c-.46,0-.69-.16-.69-.47s.18-.41.56-.5l.82-.24c1-.29,1.55-1.3,1.55-3l0-1.4V247.76a8.51,8.51,0,0,0-.68-4.16,2.87,2.87,0,0,0-2.64-1.07c-.42,0-.63-.14-.63-.4s.33-.59,1-.59a13,13,0,0,1,1.45.1A68,68,0,0,0,165,242c1.76,0,3.31,0,4.66-.09l3.07-.15c.85,0,1.36-.06,1.55-.09a7.92,7.92,0,0,1,.86-.08c.48,0,.72.21.72.62a2.81,2.81,0,0,1-.07.5c0,.2-.1.77-.17,1.72l-.09,1.26a7.6,7.6,0,0,1-.22,1.56.49.49,0,0,1-.48.34c-.28,0-.42-.2-.42-.65v-.56a3.49,3.49,0,0,0-.26-1.32,2.26,2.26,0,0,0-1.66-1.29,21,21,0,0,0-4.58-.33h-3.39a2.92,2.92,0,0,0-1.72.34A2,2,0,0,0,162.4,245.25Z"/><path class="cls-6" d="M194.4,265.55l0,.77c0,1.74.17,2.77.5,3.09s1.42.48,3.27.48a22.92,22.92,0,0,0,7.07-1q3-1,3.83-2.55c.2-.39.4-.59.61-.59s.34.14.32.43a5.87,5.87,0,0,1-1.41,3.15q-1.87,2.36-6.08,2.36c-.47,0-1,0-1.61-.06l-2.35-.18q-2.07-.15-4.38-.15a32.81,32.81,0,0,0-4.49.26c-.51.07-.92.12-1.22.13s-.55-.11-.55-.38.2-.4.6-.51a3.34,3.34,0,0,0,2-1.34,6.19,6.19,0,0,0,.52-3l0-1V246c0-1.93-.78-3.05-2.35-3.37l-1-.2c-.35-.07-.52-.21-.52-.43s.24-.48.74-.48a13.43,13.43,0,0,1,1.36.08c1,.09,2.1.13,3.33.13s2.54,0,3.62-.11l.94,0c.35,0,.52.11.52.32s-.21.52-.63.62l-.76.17c-1.31.32-2,1.62-2,3.9Z"/><path class="cls-1" d="M127.29,254.38c1.61,0,3.23.05,4.85,0a3.52,3.52,0,0,0,2.47-1.25,5.84,5.84,0,0,0,1.22-6.05,5.66,5.66,0,0,0-4.54-4.29,25.32,25.32,0,0,0-4.09-.07c-.67,0-.87.38-.86,1,0,1.62,0,3.24,0,4.86s0,3.11,0,4.67C126.31,254,126.53,254.38,127.29,254.38Z"/><path class="cls-1" d="M132,255.8c-1.65-.24-3.35-.18-5-.28-.62,0-.68.31-.68.8,0,1.8,0,9.12.1,11a2.27,2.27,0,0,0,1.94,2.53,12.76,12.76,0,0,0,6.77.17c2.94-.77,4.51-2.76,4.46-5.47A9.1,9.1,0,0,0,132,255.8Z"/><path d="M142.23,258.62a12.82,12.82,0,0,0-6-3.77l-.51-.18c.9-1,1.84-2,2.71-3.08,2.73-3.34,1.85-7.21-2.11-8.91a12,12,0,0,0-4.23-1c-2.41-.1-4.48-.13-6.6-.15-1.19-.05-2.27-.13-3.25-.24a11.36,11.36,0,0,0-1.24-.09c-.55,0-.83.17-.83.51s.18.34.54.34a2.48,2.48,0,0,1,2.26.92,4.73,4.73,0,0,1,.52,2v23a4.68,4.68,0,0,1-.52,2,2.48,2.48,0,0,1-2.26.92c-.36,0-.54.11-.54.34s.28.51.83.51a11.36,11.36,0,0,0,1.24-.09c1.16-.13,2.47-.22,3.94-.26,2.68,0,5.37.16,8-.05a11.17,11.17,0,0,0,8.14-4A6.64,6.64,0,0,0,142.23,258.62Zm-15.9-5.34c0-1.56,0-3.11,0-4.67s0-3.24,0-4.86c0-.63.19-1,.86-1a25.32,25.32,0,0,1,4.09.07,5.66,5.66,0,0,1,4.54,4.29,5.84,5.84,0,0,1-1.22,6.05,3.52,3.52,0,0,1-2.47,1.25c-1.62,0-3.24,0-4.85,0C126.53,254.38,126.31,254,126.33,253.28ZM135.15,270a12.76,12.76,0,0,1-6.77-.17,2.27,2.27,0,0,1-1.94-2.53c-.06-1.86-.08-9.18-.1-11,0-.49.06-.84.68-.8,1.67.1,3.37,0,5,.28a9.1,9.1,0,0,1,7.57,8.73C139.66,267.24,138.09,269.23,135.15,270Z"/><path d="M295.21,270.51a2.87,2.87,0,0,1-2.64-1.07,6.52,6.52,0,0,1-.66-3V246.37a6.56,6.56,0,0,1,.66-3,2.89,2.89,0,0,1,2.64-1.07c.42,0,.62-.13.62-.4s-.32-.59-1-.59a11.14,11.14,0,0,0-1.44.11c-1,.1-2,.18-3.16.24h0c-1.14-.06-2.2-.14-3.16-.24a11.14,11.14,0,0,0-1.44-.11c-.65,0-1,.2-1,.59s.2.4.62.4a2.89,2.89,0,0,1,2.64,1.07,6.56,6.56,0,0,1,.66,3v5.83h0c0,.29,0,.58,0,.87v.23c0,.74-.57.61-1,.61H271.45c-.47,0-1,.13-1-.61v-.23c0-.29,0-.58,0-.87h0v-5.83a6.58,6.58,0,0,1,.65-3,2.89,2.89,0,0,1,2.64-1.07c.42,0,.63-.13.63-.4s-.33-.59-1-.59a11.27,11.27,0,0,0-1.45.11c-1,.1-2,.19-3.17.24s-2.21-.14-3.18-.24a11.14,11.14,0,0,0-1.44-.11c-.65,0-1,.2-1,.59s.2.4.62.4a2.89,2.89,0,0,1,2.64,1.07,6.56,6.56,0,0,1,.66,3v20.08a6.52,6.52,0,0,1-.66,3,2.87,2.87,0,0,1-2.64,1.07c-.42,0-.62.14-.62.4s.32.59,1,.59a12.85,12.85,0,0,0,1.44-.1q1.35-.15,2.94-.24c.16,0,2.51.14,3.41.24a13,13,0,0,0,1.45.1c.64,0,1-.19,1-.59s-.21-.4-.63-.4a2.87,2.87,0,0,1-2.64-1.07,6.55,6.55,0,0,1-.65-3v-8.59h0c0-.19,0-.39,0-.58v-.8c.05-.51.3-.67.91-.67h16.34c.6,0,.86.16.91.67v.8c0,.19,0,.39,0,.58h0v8.59a6.52,6.52,0,0,1-.66,3,2.87,2.87,0,0,1-2.64,1.07c-.42,0-.62.14-.62.4s.32.59,1,.59a12.85,12.85,0,0,0,1.44-.1q1.35-.15,2.94-.24c.16,0,2.51.14,3.41.24a12.85,12.85,0,0,0,1.44.1c.65,0,1-.19,1-.59S295.63,270.51,295.21,270.51Z"/><path d="M322.83,272.48a15.64,15.64,0,0,1-15.62-15.63l0-9.31c0-2.23-.25-3.69-.75-4.49a3.26,3.26,0,0,0-3-1.22c-.44,0-.44-.14-.44-.21s0-.4.81-.4a12.2,12.2,0,0,1,1.49.11c1,.11,2.12.2,3.35.26s2.36-.15,3.36-.26a12.2,12.2,0,0,1,1.5-.11c.8,0,.8.29.8.4s0,.21-.44.21a3.26,3.26,0,0,0-3,1.22c-.5.8-.74,2.26-.74,4.49l.08,9.31a12.55,12.55,0,1,0,25.09,0l.08-9.31c0-2.23-.24-3.69-.74-4.49a3.26,3.26,0,0,0-3-1.22c-.44,0-.44-.14-.44-.21s0-.4.8-.4a12.2,12.2,0,0,1,1.5.11c1,.11,2.12.2,3.34.26s2.37-.15,3.37-.26a12.2,12.2,0,0,1,1.49-.11c.81,0,.81.29.81.4s0,.21-.44.21a3.26,3.26,0,0,0-3,1.22c-.5.8-.75,2.26-.75,4.49l0,9.31A15.65,15.65,0,0,1,322.83,272.48Z"/><path class="cls-1" d="M233,251.74l.69-1.46Z"/><path class="cls-1" d="M233,251.74l.69-1.46Z"/><path class="cls-1" d="M236,248.62l.28.58Z"/><path class="cls-1" d="M236,248.62l.28.58Z"/><path class="cls-1" d="M237.35,251.41l-.71-1.49h0Z"/><path class="cls-1" d="M237.35,251.41l-.71-1.49h0Z"/><path class="cls-1" d="M230.41,257.19l.21-.45Z"/><path class="cls-1" d="M230.41,257.19l.21-.45Z"/><path class="cls-1" d="M232.06,253.7l.15-.31Z"/><path class="cls-1" d="M232.06,253.7l.15-.31Z"/><path class="cls-1" d="M240.64,258.36l-.43-.9.43.9Z"/><path class="cls-1" d="M240.64,258.36l-.43-.9.43.9Z"/><path class="cls-1" d="M236.64,249.92l0-.12,0,.12Z"/><path class="cls-1" d="M236.64,249.92l0-.12,0,.12Z"/><path class="cls-1" d="M234.67,248.18l.39-.82Z"/><path class="cls-1" d="M234.67,248.18l.39-.82Z"/><path class="cls-1" d="M238.17,253.15l1.09,2.29Z"/><path d="M253,271.1a12.53,12.53,0,0,1-1.39-.11c-1.31-.14-2.81-.24-4.48-.29l-.84-1.65c-.07-.16-.17-.33-.25-.49l-.3-.57-.15-.29c-.4-.77-.8-1.53-1.19-2.3l-7.58-15.6-1.25-2.64h-.64l-1.39,2.94L226.28,265l-1.37,2.68-.16.3-.3.56c-.1.19-.18.35-.25.51l-.83,1.61h-.16v0c-1.64.05-3.12.15-4.4.29a12.51,12.51,0,0,1-1.4.11c-.45,0-.7-.1-.74-.3a.22.22,0,0,1,0-.08.14.14,0,0,1,0-.1s.12-.09.38-.09l.39,0h0a5.76,5.76,0,0,0,2.45-1.35,9.88,9.88,0,0,0,2.07-2.87l1.34-2.57,1.56-3c.6-1.14,1.19-2.29,1.79-3.44l2.34-4.53c1.81-3.49,3.67-7.11,5.53-10.65.32-.62.54-.75.66-.75s.36.13.68.75c1.86,3.56,3.74,7.19,5.55,10.7q1.16,2.25,2.32,4.48l1.84,3.56,1.42,2.73,1.42,2.75a10.19,10.19,0,0,0,1.94,2.74,5.73,5.73,0,0,0,2.6,1.48h.33a.61.61,0,0,1,.38.08.14.14,0,0,1,0,.11s0,0,0,.08Q253.69,271.1,253,271.1Z"/></svg>