<svg id="圖層_1" data-name="圖層 1" xmlns="http://www.w3.org/2000/svg" viewBox="0 0 462 452"><defs><style>.cls-1{font-size:48px;font-family:SFProDisplay-Regular, SF Pro Display;}.cls-2{fill:none;}.cls-3{fill:#c3094a;}.cls-4{fill:#e50064;}.cls-5{fill:#9e113d;}.cls-6{fill:#231815;}</style></defs><title>ft_logo</title><text class="cls-1" transform="translate(112.02 388.36)">logo Design</text><g id="圖層_2" data-name="圖層 2"><g id="圖層_1-2" data-name="圖層 1-2"><path class="cls-2" d="M231,165.05v-20.7a209.13,209.13,0,0,1-51.37-6.81v21.52A204.9,204.9,0,0,0,231,165.05Z"/><path class="cls-2" d="M231,144.35v20.7h0a205.14,205.14,0,0,0,51.35-6V137.56A209.36,209.36,0,0,1,231,144.35Z"/><path class="cls-3" d="M282.42,159.08a205.06,205.06,0,0,1-51.34,6h0v99.26h0c8.19.07,13.09-3.93,17.12-10a139.57,139.57,0,0,1,34.22-67.62Z"/><path class="cls-3" d="M179.66,186.66v-27.6C141,149.49,118,131.82,118,131.82l-.08,11.72.47.21A175.72,175.72,0,0,1,179.66,186.66Z"/><path class="cls-4" d="M344.19,143.54h0l-.09-11.64s-23,17.69-61.73,27.26v27.5A175.52,175.52,0,0,1,344.19,143.54Z"/><path class="cls-5" d="M344.19,143.54a175.78,175.78,0,0,0-61.77,43.16v9.88c31.13-40.6,61.82-53,61.82-53h-.05Z"/><path class="cls-5" d="M248.2,254.28c3.13-4.76,5.75-10.8,9-17.18a259.18,259.18,0,0,1,25.24-40.48v-10A139.57,139.57,0,0,0,248.2,254.28Z"/><path class="cls-5" d="M118.37,143.71c4,1.75,32.44,15.19,61.29,52.87v-9.91A175.76,175.76,0,0,0,118.37,143.71Z"/><path class="cls-4" d="M179.66,159.06v27.6a139.74,139.74,0,0,1,34.21,67.48c4,6.18,8.94,10.23,17.16,10.17V165.05A204.9,204.9,0,0,1,179.66,159.06Z"/><path class="cls-5" d="M179.66,196.58A257.12,257.12,0,0,1,205,237.06c3.2,6.32,5.8,12.31,8.91,17a139.74,139.74,0,0,0-34.21-67.44Z"/><path class="cls-5" d="M118,101.74c13.64,16.93,36,28.93,61.68,35.8V88.91Z"/><path class="cls-5" d="M231,144.32,179.66,88.91v48.63A209.13,209.13,0,0,0,231,144.35Z"/><path class="cls-3" d="M179.66,57c-12.35,0-22.6,5.87-28.21,16.87-10.7,20.94-26.27,21.27-26.27,21.27l-7.2,6.59,61.68-12.83Z"/><path class="cls-5" d="M231.08,144.35a209.28,209.28,0,0,0,51.34-6.79V89Z"/><path class="cls-4" d="M231,144.32V97.25c-12.89.28-18.14-14.17-24.22-23.73C201.29,65,192.29,57,179.85,57h-.19v31.9Z"/><path class="cls-3" d="M231.08,144.35,282.42,89V57h-.06c-12.43,0-21.44,7.94-26.94,16.5-6.17,9.57-11.36,24-24.27,23.72h0v47.09Z"/><path class="cls-4" d="M282.48,88.91l61.68,12.83L337,95.15s-15.52-.28-26.27-21.27c-5.63-11-15.9-16.87-28.27-16.87V89Z"/><path class="cls-5" d="M282.42,89v48.59c25.69-6.87,48.05-18.87,61.74-35.82L282.48,88.91Z"/><path class="cls-6" d="M134.8,283.5v12.18a3.19,3.19,0,0,0,.27,1.67c.16.2.68.29,1.55.29h4.63a27.09,27.09,0,0,0,5-.36,4,4,0,0,0,2.1-.88,6,6,0,0,0,.88-2.53c.1-.5.37-.73.77-.72s.59.29.59.81v.67c-.19,1.94-.28,3.71-.28,5.32,0,1.21.07,2.42.18,3.63v.86c0,.5-.2.75-.59.75a.71.71,0,0,1-.77-.65h0l-.18-.85a4,4,0,0,0-1.39-2.79,6.84,6.84,0,0,0-3.66-.73h-6.7a4,4,0,0,0-2,.31,1.3,1.3,0,0,0-.5,1.2v12.14c0,1.7.31,2.79.92,3.2a10.23,10.23,0,0,0,4.65.62q11.8,0,15.19-5.31a1,1,0,0,1,.68-.55c.22,0,.56.24.56.78a8,8,0,0,1-2.21,4.65,8.25,8.25,0,0,1-6.68,3.24,19.58,19.58,0,0,1-2.35-.11q-5.75-.55-9.52-.55a50.06,50.06,0,0,0-7.44.37,13.3,13.3,0,0,1-1.56.21c-.64,0-1-.23-1-.66s.25-.57.78-.7l1.14-.33c1.4-.41,2.17-1.82,2.17-4.19V287a11.94,11.94,0,0,0-.95-5.81,4,4,0,0,0-3.69-1.49c-.58,0-.88-.2-.88-.56s.46-.84,1.4-.84a19.41,19.41,0,0,1,2,.16,94.29,94.29,0,0,0,10.36.48c2.46,0,4.62,0,6.5-.12l4.29-.21a13.37,13.37,0,0,0,2.16-.13c.4-.05.8-.09,1.2-.11.67,0,1,.3,1,.87a3.38,3.38,0,0,1-.1.7c0,.27-.14,1.07-.24,2.4l-.12,1.75a10.61,10.61,0,0,1-.31,2.18.69.69,0,0,1-.67.48c-.39,0-.59-.28-.59-.91v-.78a4.83,4.83,0,0,0-.36-1.84,3.09,3.09,0,0,0-2.32-1.8,29.1,29.1,0,0,0-6.39-.47h-4.67a4.13,4.13,0,0,0-2.41.48A2.81,2.81,0,0,0,134.8,283.5Z"/><path class="cls-6" d="M179.46,311.84v1.07c0,2.43.24,3.87.7,4.32s2,.67,4.57.67a32,32,0,0,0,9.86-1.4c2.79-.93,4.58-2.12,5.35-3.56.28-.56.56-.82.85-.82s.47.19.45.6a8.24,8.24,0,0,1-2,4.39q-2.61,3.3-8.49,3.3a20.47,20.47,0,0,1-2.24-.09l-3.28-.25q-2.89-.21-6.12-.21a45.15,45.15,0,0,0-6.26.37c-.72.09-1.29.16-1.71.18s-.76-.16-.76-.53.27-.56.83-.71a4.68,4.68,0,0,0,2.79-1.88,8.58,8.58,0,0,0,.73-4.18V284.58c0-2.69-1.09-4.27-3.28-4.7l-1.4-.28q-.72-.15-.72-.6c0-.31.33-.67,1-.67a17.15,17.15,0,0,1,1.9.11c1.4.12,2.93.18,4.65.18s3.54,0,5.05-.15h1.31c.49,0,.73.15.73.44a1.05,1.05,0,0,1-.88.87l-1.06.24c-1.83.44-2.79,2.26-2.79,5.44Z"/><path class="cls-2" d="M85.8,296.25c2.26,0,4.51.07,6.77,0A4.9,4.9,0,0,0,96,294.5a8.16,8.16,0,0,0,1.71-8.44,7.91,7.91,0,0,0-6.34-6,35.13,35.13,0,0,0-5.71-.1c-.93,0-1.21.53-1.2,1.4v13.3C84.43,295.68,84.74,296.25,85.8,296.25Z"/><path class="cls-2" d="M92.43,298.23c-2.31-.35-4.68-.25-7-.39-.87,0-1,.43-1,1.12,0,2.51,0,12.72.14,15.35a3.16,3.16,0,0,0,2.71,3.53,17.88,17.88,0,0,0,9.38.17c4.09-1.08,6.29-3.86,6.21-7.64A12.71,12.71,0,0,0,92.43,298.23Z"/><path d="M106.65,302.17a17.89,17.89,0,0,0-8.44-5.27l-.72-.25c1.26-1.39,2.57-2.79,3.79-4.3,3.81-4.66,2.58-10.06-3-12.43a16.76,16.76,0,0,0-5.9-1.4c-3.37-.14-6.26-.18-9.21-.21-1.67-.07-3.17-.18-4.54-.33a14.39,14.39,0,0,0-1.73-.13c-.77,0-1.16.24-1.16.71s.25.48.75.48a3.45,3.45,0,0,1,3.16,1.28,6.64,6.64,0,0,1,.72,2.79v32.11A6.64,6.64,0,0,1,79.7,318a3.45,3.45,0,0,1-3.16,1.28c-.5,0-.75.15-.75.48s.39.71,1.16.71a16.78,16.78,0,0,0,1.73-.13c1.62-.18,3.45-.31,5.5-.36,3.74,0,7.51.22,11.16-.07a15.58,15.58,0,0,0,11.36-5.58A9.25,9.25,0,0,0,106.65,302.17Zm-22.19-7.46v-13.3c0-.88.26-1.39,1.2-1.39a34,34,0,0,1,5.71.09,7.9,7.9,0,0,1,6.33,6,8.14,8.14,0,0,1-1.7,8.44,4.92,4.92,0,0,1-3.46,1.74H85.77C84.74,296.25,84.43,295.68,84.46,294.71ZM96.73,318a17.91,17.91,0,0,1-9.47-.24,3.16,3.16,0,0,1-2.7-3.53c-.09-2.6-.12-12.81-.14-15.35,0-.69.08-1.18.94-1.12a64.3,64.3,0,0,1,7,.39,12.7,12.7,0,0,1,10.57,12.18C103.08,314.2,100.91,317,96.73,318Z"/><path d="M320.16,318.76a4,4,0,0,1-3.68-1.49,9.21,9.21,0,0,1-.91-4.19v-28a9.21,9.21,0,0,1,.91-4.19,4,4,0,0,1,3.68-1.49c.59,0,.88-.18.88-.56s-.46-.82-1.39-.82a15,15,0,0,0-2,.15c-1.4.14-2.79.25-4.41.33h0c-1.59-.08-3.07-.19-4.41-.33a13.6,13.6,0,0,0-2-.15c-.91,0-1.4.26-1.4.82s.28.56.87.56a4,4,0,0,1,3.68,1.49,9.06,9.06,0,0,1,.92,4.19v8.13h0v1.54c0,1-.79.85-1.39.85H287c-.65,0-1.39.18-1.39-.85V293.2h0v-8.13a9.33,9.33,0,0,1,.9-4.19,4,4,0,0,1,3.69-1.49c.59,0,.88-.18.88-.56s-.46-.82-1.4-.82a13.73,13.73,0,0,0-2,.15c-1.4.14-2.79.25-4.43.33a26.29,26.29,0,0,1-4.43-.33,13.6,13.6,0,0,0-2-.15c-.91,0-1.4.26-1.4.82s.28.56.87.56a4.06,4.06,0,0,1,3.69,1.49,9.21,9.21,0,0,1,.91,4.19v28a9.21,9.21,0,0,1-.91,4.19,4,4,0,0,1-3.69,1.49c-.59,0-.87.2-.87.56s.45.83,1.4.83a19.39,19.39,0,0,0,2-.14c1.25-.14,2.62-.25,4.1-.34.22,0,3.5.2,4.76.34a19.58,19.58,0,0,0,2,.14c.9,0,1.4-.27,1.4-.83s-.29-.56-.88-.56a4,4,0,0,1-3.69-1.49,9,9,0,0,1-.9-4.19v-12h0v-1.92c0-.71.43-.94,1.27-.94h22.8c.84,0,1.2.23,1.27.94v1.92h0v12a9.06,9.06,0,0,1-.92,4.19,4,4,0,0,1-3.68,1.49c-.59,0-.87.2-.87.56s.45.83,1.4.83a19.39,19.39,0,0,0,2-.14c1.25-.14,2.62-.25,4.1-.34.22,0,3.5.2,4.76.34a19.39,19.39,0,0,0,2,.14c.91,0,1.4-.27,1.4-.83S320.75,318.76,320.16,318.76Z"/><path d="M358.73,321.51a21.85,21.85,0,0,1-21.82-21.81v-13c0-3.11-.35-5.15-1-6.27a4.57,4.57,0,0,0-4.19-1.7c-.61,0-.61-.19-.61-.29s0-.56,1.13-.56a18.18,18.18,0,0,1,2.08.15c1.39.16,3,.28,4.67.37a28,28,0,0,0,4.69-.37,18.19,18.19,0,0,1,2.09-.15c1.12,0,1.12.4,1.12.56s0,.29-.61.29a4.56,4.56,0,0,0-4.19,1.7c-.7,1.12-1,3.16-1,6.27l.11,13a17.52,17.52,0,0,0,35,0l.1-13c0-3.11-.34-5.15-1-6.27a4.57,4.57,0,0,0-4.19-1.7c-.62,0-.62-.19-.62-.29s0-.56,1.12-.56a18.19,18.19,0,0,1,2.09.15c1.4.16,3,.28,4.67.37A28.19,28.19,0,0,0,383,278a18,18,0,0,1,2.08-.15c1.13,0,1.13.4,1.13.56s0,.29-.61.29a4.56,4.56,0,0,0-4.19,1.7c-.7,1.12-1,3.16-1,6.27v13A21.83,21.83,0,0,1,358.73,321.51Z"/><path class="cls-2" d="M233.32,292.56l1-2Z"/><path class="cls-2" d="M233.32,292.56l1-2Z"/><path class="cls-2" d="M237.57,288.19l.39.83Z"/><path class="cls-2" d="M237.57,288.19l.39.83Z"/><path class="cls-2" d="M239.41,292.1l-1-2.08h0Z"/><path class="cls-2" d="M239.41,292.1l-1-2.08h0Z"/><path class="cls-2" d="M229.72,300.17l.3-.63Z"/><path class="cls-2" d="M229.72,300.17l.3-.63Z"/><path class="cls-2" d="M232,295.3l.21-.43Z"/><path class="cls-2" d="M232,295.3l.21-.43Z"/><path class="cls-2" d="M244,301.8l-.6-1.25Z"/><path class="cls-2" d="M244,301.8l-.6-1.25Z"/><path class="cls-2" d="M238.43,290.09l-.08-.16Z"/><path class="cls-2" d="M238.43,290.09l-.08-.16Z"/><path class="cls-2" d="M235.67,287.59l.54-1.14Z"/><path class="cls-2" d="M235.67,287.59l.54-1.14Z"/><path class="cls-2" d="M240.55,294.53l1.52,3.2Z"/><path d="M261.25,319.58a15.84,15.84,0,0,1-1.94-.15c-1.83-.19-3.92-.33-6.25-.4l-1.17-2.31c-.1-.22-.23-.46-.35-.68l-.42-.8-.21-.4c-.56-1.08-1.12-2.14-1.66-3.21l-10.58-21.77-1.75-3.69H236l-1.94,4.1L224,311.1l-1.92,3.74-.23.42-.42.78a7.41,7.41,0,0,0-.34.71L219.9,319h-.21c-2.29.07-4.36.21-6.16.4a18.3,18.3,0,0,1-1.95.16c-.63,0-1-.14-1-.42v-.25s.15-.13.51-.13h.55a8.11,8.11,0,0,0,3.42-1.88,14.18,14.18,0,0,0,2.9-4l1.86-3.59L222,305.1l2.48-4.8,3.27-6.33c2.52-4.87,5.12-9.92,7.72-14.86.44-.87.75-1.05.92-1.05s.5.18.95,1.05c2.59,5,5.22,10,7.74,14.93,1.08,2.1,2.16,4.18,3.24,6.26l2.57,5,2,3.81,2,3.84a14.31,14.31,0,0,0,2.71,3.83,8,8,0,0,0,3.63,2.06h.46c.35,0,.49.07.53.11a.22.22,0,0,1,0,.16v.11C262.2,319.45,261.89,319.58,261.25,319.58Z"/></g></g></svg>