<svg id="圖層_1" data-name="圖層 1" xmlns="http://www.w3.org/2000/svg" viewBox="0 0 462 452"><defs><style>.cls-1{fill:#030000;}.cls-2{fill:#5a2469;}.cls-3,.cls-5{fill:#e0e0df;}.cls-3{stroke:#231815;stroke-miterlimit:10;stroke-width:3.46px;}.cls-4{fill:#331f40;}</style></defs><title>履歷作品icon設計</title><path d="M108,353.2h4.22v30H128.5V387H108Z"/><path d="M130.61,374.84v0c0-7.76,4.54-12.61,11.27-12.61s11.3,4.83,11.3,12.61v0c0,7.78-4.55,12.65-11.28,12.65S130.61,382.59,130.61,374.84Zm18.39,0v0c0-5.72-2.81-9-7.12-9s-7.1,3.3-7.1,9v0c0,5.74,2.83,9,7.15,9S149,380.55,149,374.84Z"/><path d="M157,389.25l0-.21H161l.09.21c.77,1.76,3.09,2.84,6.42,2.84,4.29,0,6.73-2.37,6.73-6.14v-3.12h-.09a8.58,8.58,0,0,1-7.76,4.43c-6.14,0-10.34-4.95-10.34-12.56v0c0-7.57,4.24-12.49,10.43-12.49a8.61,8.61,0,0,1,7.67,4.59h.09v-4.12h4.08v23.69c0,5.65-4.15,9.36-10.76,9.36C161.57,395.7,157.77,392.86,157,389.25Zm17.3-14.55v0c0-5.37-2.84-8.88-7-8.88-4.34,0-7.06,3.47-7.06,8.88v0c0,5.53,2.72,8.95,7.06,8.95C171.46,383.65,174.27,380.11,174.27,374.7Z"/><path d="M182.43,374.84v0c0-7.76,4.54-12.61,11.27-12.61S205,367,205,374.79v0c0,7.78-4.55,12.65-11.28,12.65S182.43,382.59,182.43,374.84Zm18.39,0v0c0-5.72-2.81-9-7.12-9s-7.1,3.3-7.1,9v0c0,5.74,2.83,9,7.15,9S200.82,380.55,200.82,374.84Z"/><path d="M219.57,353.2h11.37c10,0,16,6.24,16,16.85v.05c0,10.67-5.9,16.92-16,16.92H219.57Zm11.09,30c7.66,0,11.93-4.69,11.93-13.08v0c0-8.44-4.27-13.1-11.93-13.1h-6.87v26.23Z"/><path d="M250.32,374.93v0c0-7.55,4.32-12.73,11-12.73S272,367.12,272,374.44v1.5H254.45c.09,5,2.86,7.94,7.19,7.94,3.1,0,5.28-1.54,6-3.63l.07-.21h4l-.05.23c-.79,4-4.78,7.22-10.1,7.22C254.54,387.49,250.32,382.59,250.32,374.93Zm4.2-2.18h13.34c-.4-4.73-3-7-6.59-7S255,368.2,254.52,372.75Z"/><path d="M275.05,380.2l0-.21h4.08l0,.24c.49,2.43,2.3,3.86,5.63,3.86s5.27-1.38,5.27-3.58v0c0-1.75-.91-2.74-3.68-3.42l-3.87-.94c-4.59-1.1-6.82-3.23-6.82-6.74v0c0-4.19,3.68-7.17,9-7.17s8.74,3.12,9,7.2l0,.3h-3.89l0-.16c-.33-2.37-2.13-3.94-5.15-3.94s-4.78,1.43-4.78,3.58v0c0,1.66,1.1,2.81,3.79,3.47l3.87.93c4.92,1.2,6.7,3.14,6.7,6.61v0c0,4.26-4,7.26-9.47,7.26C279,387.49,275.54,384.56,275.05,380.2Z"/><path d="M298.18,356a2.56,2.56,0,1,1,2.56,2.55A2.55,2.55,0,0,1,298.18,356Zm.52,6.68h4.08V387H298.7Z"/><path d="M308,389.25l0-.21h4.1l.1.21c.77,1.76,3.09,2.84,6.42,2.84,4.29,0,6.72-2.37,6.72-6.14v-3.12h-.09a8.57,8.57,0,0,1-7.76,4.43c-6.14,0-10.33-4.95-10.33-12.56v0c0-7.57,4.24-12.49,10.43-12.49a8.6,8.6,0,0,1,7.66,4.59h.09v-4.12h4.08v23.69c0,5.65-4.15,9.36-10.76,9.36C312.62,395.7,308.82,392.86,308,389.25Zm17.29-14.55v0c0-5.37-2.83-8.88-7-8.88-4.33,0-7.05,3.47-7.05,8.88v0c0,5.53,2.72,8.95,7.05,8.95C322.51,383.65,325.32,380.11,325.32,374.7Z"/><path d="M334.68,362.65h4.07v3.47h.1c1.31-2.28,3.79-3.94,7.5-3.94,5.34,0,8.44,3.47,8.44,9V387h-4.08V371.93c0-4-1.85-6.14-5.6-6.14s-6.36,2.74-6.36,6.89V387h-4.07Z"/><path class="cls-1" d="M319.5,109.92C317.68,95.51,308.24,81,291.22,81l-109,0h-.12c-17.58,0-31.9,16-31.9,34.1v25.67c-.09,1.67-.14,3.24-.14,4.63-11.62,18-10.36,36.75.14,54.55v20.61a34.17,34.17,0,0,0,34.17,34.17V189.53h32.36a17.13,17.13,0,0,0,17.12-17.12h0a17.11,17.11,0,0,0-17.05-17.11l-32.43-.12V115.11h14.94v0h57.72V255.08l5.38-.85a34,34,0,0,0,28.79-33.74V115.15h28.93Zm-30.09.58a2.84,2.84,0,0,0-2.84,2.83V220.49a29.57,29.57,0,0,1-24.87,29.15V113.33a2.83,2.83,0,0,0-2.83-2.83l-76.29,0a2.84,2.84,0,0,0-2.84,2.83V157a2.84,2.84,0,0,0,2.84,2.84h34.11a12.52,12.52,0,0,1,12.53,12.52h0a12.53,12.53,0,0,1-12.53,12.53H182.57a2.83,2.83,0,0,0-2.83,2.83v62a29.57,29.57,0,0,1-24.87-29.15V198.69l-.64-1.09c-10.24-17.36-10.32-34.07-.25-49.67l.75-1.15v-1.37c0-1.21,0-2.64.13-4.38V115.11a29.56,29.56,0,0,1,27.66-29.46l108.69,0c13.88,0,22.06,12.1,23.66,24.87Z"/><path class="cls-2" d="M291.22,90.28l-109.11.1a21.31,21.31,0,0,0-15.65,7.24,26.07,26.07,0,0,0-6.87,17.49v26l0,.21c-.08,1.66-.13,3-.13,4.13v2.76l-1.5,2.32c-9,14-8.9,29,.35,44.72l1.3,2.2v23.16a24.78,24.78,0,0,0,15.43,23V186.11a6,6,0,0,1,6-6h35.71a7.81,7.81,0,0,0,7.81-7.81h0a7.81,7.81,0,0,0-7.81-7.81H181a6,6,0,0,1-6-5.95V111.7a6,6,0,0,1,6-6l79.43.09a6,6,0,0,1,5.94,6V243.54a25.11,25.11,0,0,0,15.57-23V111.8a6,6,0,0,1,5.95-6h21.29C306.65,97.48,300.64,90.28,291.22,90.28Z"/><path class="cls-3" d="M244.81,143.05C229.17,159,259,206,259,206s49.86-13.07,50.19-35.4-34-15.53-34-15.53S260.45,127.11,244.81,143.05Z"/><path class="cls-2" d="M302,163.19c-2.82-2.86-8.43-4.43-15.8-4.43a60.36,60.36,0,0,0-10.09.88l-3.41.68-1.61-3.07c-2-3.75-9.18-14.46-16.14-14.46-2.25,0-4.48,1.15-6.8,3.51-9,9.15,2.59,36.91,13,54.28,14.05-4.25,43.21-16,43.42-30C304.56,167.38,303.73,165,302,163.19Zm-35.25,19L258.05,187a13,13,0,0,1,3.07-4.52,21.06,21.06,0,0,1,4.26-3.29l1.55,2A.67.67,0,0,1,266.73,182.2Zm9.91-10.76a1.12,1.12,0,0,0-1.05,0,31.65,31.65,0,0,1-3.93,1.82h0a4,4,0,0,1,4.68,1.78l.43.72-3.79,1,0,2.2,2.94.48a9.14,9.14,0,0,1,4.69,2.22,7.41,7.41,0,0,1,2.16,6.16l-9.82-7-.23,5.17a4.73,4.73,0,0,1-4.81,4.51l.23-12.47-3,.77a4.1,4.1,0,0,1,.53-1.24l-7.27,4.2a14.31,14.31,0,0,1,5.61-7.17l2,2.44a8.81,8.81,0,0,1,3.15-2.72l-2.92-1.67a1.86,1.86,0,0,0-1.53-.14,18.43,18.43,0,0,0-3.3,1.56,28.27,28.27,0,0,0-2.95,2.11l-.64-2a2.18,2.18,0,0,1,1.75-2.82h0l.11-6.42a.47.47,0,0,0-.47-.48l-.83,0a2,2,0,0,1,2-1.91l8.87.16a1.94,1.94,0,0,1,1.91,2h-.78a.47.47,0,0,0-.48.47l-.16,9a12.31,12.31,0,0,1,1.23-.51l2.49-3a1.1,1.1,0,0,0,.18-1.06l-1.42-3.91a1.87,1.87,0,0,1,1.9-1.84l8.28.15a8.42,8.42,0,0,1-2.84,4.84,7.76,7.76,0,0,1,3.72,6.06Zm5,6.5c-.31,1.07-3.09.93-3.09.93s-.82-2.66.15-3.22,1.47,1.14,1.47,1.14S281.94,176.87,281.63,177.94Z"/><rect class="cls-4" x="264.15" y="164.51" width="0.92" height="5.32" rx="0.27" ry="0.27" transform="translate(92.67 428.71) rotate(-88.96)"/><rect class="cls-4" x="264.18" y="162.75" width="0.92" height="5.32" rx="0.27" ry="0.27" transform="translate(94.46 427) rotate(-88.96)"/><rect class="cls-4" x="263.73" y="166.66" width="1.69" height="5.32" rx="0.27" ry="0.27" transform="translate(90.48 430.77) rotate(-88.96)"/><path class="cls-5" d="M265.38,179.21a21.06,21.06,0,0,0-4.26,3.29,13,13,0,0,0-3.07,4.52l8.68-4.82a.67.67,0,0,0,.2-1Z"/><path class="cls-5" d="M278.69,175.65c-1,.56-.15,3.22-.15,3.22s2.78.14,3.09-.93-1.47-1.15-1.47-1.15S279.65,175.08,278.69,175.65Z"/><path class="cls-4" d="M275.87,166.58s-.71-.91-1.16-.34.68,2,.68,2,1.7-.57,1.63-1.29S275.87,166.58,275.87,166.58Z"/><path class="cls-5" d="M279.52,168.67a8.42,8.42,0,0,0,2.84-4.84l-8.28-.15a1.87,1.87,0,0,0-1.9,1.84l1.42,3.91a1.1,1.1,0,0,1-.18,1.06l-2.49,3a12.31,12.31,0,0,0-1.23.51l.16-9a.47.47,0,0,1,.48-.47h.78a1.94,1.94,0,0,0-1.91-2l-8.87-.16a2,2,0,0,0-2,1.91l.83,0a.47.47,0,0,1,.47.48l-.11,6.42h0a2.18,2.18,0,0,0-1.75,2.82l.64,2a28.27,28.27,0,0,1,2.95-2.11,18.43,18.43,0,0,1,3.3-1.56,1.86,1.86,0,0,1,1.53.14l2.92,1.67a8.81,8.81,0,0,0-3.15,2.72l-2-2.44a14.31,14.31,0,0,0-5.61,7.17l7.27-4.2a4.1,4.1,0,0,0-.53,1.24l3-.77-.23,12.47a4.73,4.73,0,0,0,4.81-4.51l.23-5.17,9.82,7a7.41,7.41,0,0,0-2.16-6.16,9.14,9.14,0,0,0-4.69-2.22L273,179l0-2.2,3.79-1-.43-.72a4,4,0,0,0-4.68-1.78h0a31.65,31.65,0,0,0,3.93-1.82,1.12,1.12,0,0,1,1.05,0l6.6,3.29A7.76,7.76,0,0,0,279.52,168.67Zm-12.3,1.27a.26.26,0,0,1-.28.26l-4.78-.08a.27.27,0,0,1-.26-.28l0-1.14a.27.27,0,0,1,.27-.27l4.78.09a.28.28,0,0,1,.27.28Zm0-2.53a.25.25,0,0,1-.27.26l-4.78-.08a.28.28,0,0,1-.27-.28v-.37a.27.27,0,0,1,.28-.27l4.77.08a.28.28,0,0,1,.27.28Zm0-1.77a.28.28,0,0,1-.28.27l-4.78-.09a.27.27,0,0,1-.27-.27v-.38a.28.28,0,0,1,.28-.27L267,165a.26.26,0,0,1,.26.28Zm8.09,2.57s-1.13-1.4-.68-2,1.16.34,1.16.34,1.08-.38,1.15.34S275.39,168.21,275.39,168.21Z"/></svg>