<svg id="圖層_1" data-name="圖層 1" xmlns="http://www.w3.org/2000/svg" viewBox="0 0 462 452"><defs><style>.cls-1{font-size:72px;font-family:PingFangTC-Medium-B5pc-H, PingFang TC;}.cls-2{font-size:48px;font-family:SFProDisplay-Regular, SF Pro Display;}.cls-3{fill:#030000;}.cls-4{fill:#5a2469;}.cls-5,.cls-7{fill:#e0e0df;}.cls-5{stroke:#231815;stroke-miterlimit:10;stroke-width:3.46px;}.cls-6{fill:#331f40;}</style></defs><title>ft_logo</title><text class="cls-1" transform="translate(159 316.36)">同聚</text><text class="cls-2" transform="translate(112.02 388.36)">logo Design</text><path class="cls-3" d="M319.5,81.66c-1.82-14.41-11.26-28.94-28.28-28.94l-109,0h-.12c-17.58,0-31.9,16-31.9,34.09v25.68c-.09,1.67-.14,3.24-.14,4.62-11.62,18-10.36,36.75.14,54.56v20.61a34.17,34.17,0,0,0,34.17,34.17V161.27h32.36a17.13,17.13,0,0,0,17.12-17.12h0A17.12,17.12,0,0,0,216.82,127l-32.43-.12V86.84h14.94v0h57.72V226.82l5.38-.85a34,34,0,0,0,28.79-33.75V86.89h28.93Zm-30.09.58a2.84,2.84,0,0,0-2.84,2.83V192.22a29.55,29.55,0,0,1-24.87,29.15V85.07a2.84,2.84,0,0,0-2.83-2.84l-76.29,0A2.84,2.84,0,0,0,179.74,85v43.69a2.85,2.85,0,0,0,2.84,2.85h34.11a12.52,12.52,0,0,1,12.53,12.52h0a12.52,12.52,0,0,1-12.53,12.52H182.57a2.84,2.84,0,0,0-2.83,2.84v62a29.55,29.55,0,0,1-24.87-29.15V170.43l-.64-1.09C144,152,143.91,135.27,154,119.67l.75-1.15v-1.38c0-1.2,0-2.63.13-4.37V86.84a29.55,29.55,0,0,1,27.66-29.45l108.69,0c13.88,0,22.06,12.1,23.66,24.87Z"/><path class="cls-4" d="M291.22,62l-109.11.1a21.31,21.31,0,0,0-15.65,7.24,26.07,26.07,0,0,0-6.87,17.48v26l0,.22c-.08,1.66-.13,3-.13,4.12v2.77l-1.5,2.32c-9,14-8.9,29,.35,44.71l1.3,2.21v23.16a24.79,24.79,0,0,0,15.43,23V157.85a6,6,0,0,1,6-5.95h35.71a7.81,7.81,0,0,0,7.81-7.81h0a7.81,7.81,0,0,0-7.81-7.81H181a6,6,0,0,1-6-5.95V83.44a6,6,0,0,1,6-6l79.43.1a6,6,0,0,1,5.94,6V215.27a25.09,25.09,0,0,0,15.57-23.05V83.54a6,6,0,0,1,5.95-6h21.29C306.65,69.22,300.64,62,291.22,62Z"/><path class="cls-5" d="M244.81,114.78c-15.64,15.94,14.16,63,14.16,63s49.86-13.07,50.19-35.4-34-15.53-34-15.53S260.45,98.85,244.81,114.78Z"/><path class="cls-4" d="M302,134.93c-2.82-2.86-8.43-4.43-15.8-4.43a59.13,59.13,0,0,0-10.09.88l-3.41.67L271.07,129c-2-3.76-9.18-14.46-16.14-14.46-2.25,0-4.48,1.15-6.8,3.51-9,9.14,2.59,36.91,13,54.27,14.05-4.25,43.21-15.94,43.42-30C304.56,139.11,303.73,136.71,302,134.93Zm-35.25,19-8.68,4.83a13,13,0,0,1,3.07-4.52,20.71,20.71,0,0,1,4.26-3.29l1.55,2A.66.66,0,0,1,266.73,153.93Zm9.91-10.75a1.12,1.12,0,0,0-1.05,0,31.68,31.68,0,0,1-3.93,1.81h0a4,4,0,0,1,4.68,1.79l.43.72-3.79,1,0,2.19,2.94.48a9.15,9.15,0,0,1,4.69,2.23,7.41,7.41,0,0,1,2.16,6.16l-9.82-7-.23,5.17a4.73,4.73,0,0,1-4.81,4.52l.23-12.47-3,.77a4,4,0,0,1,.53-1.24l-7.27,4.19a14.39,14.39,0,0,1,5.61-7.17l2,2.45a8.93,8.93,0,0,1,3.15-2.73l-2.92-1.66a1.82,1.82,0,0,0-1.53-.14,18.43,18.43,0,0,0-3.3,1.56,28.27,28.27,0,0,0-2.95,2.11l-.64-2.05a2.17,2.17,0,0,1,1.75-2.82h0l.11-6.42a.48.48,0,0,0-.47-.49h-.83a2,2,0,0,1,2-1.92l8.87.16a2,2,0,0,1,1.91,2h-.78a.47.47,0,0,0-.48.47l-.16,8.95a10.31,10.31,0,0,1,1.23-.51l2.49-3.06a1.08,1.08,0,0,0,.18-1.05l-1.42-3.92a1.87,1.87,0,0,1,1.9-1.83l8.28.15a8.45,8.45,0,0,1-2.84,4.84,7.74,7.74,0,0,1,3.72,6.05Zm5,6.5c-.31,1.07-3.09.93-3.09.93s-.82-2.66.15-3.23,1.47,1.15,1.47,1.15S281.94,148.61,281.63,149.68Z"/><rect class="cls-6" x="264.15" y="136.25" width="0.92" height="5.32" rx="0.27" ry="0.27" transform="translate(120.93 400.96) rotate(-88.96)"/><rect class="cls-6" x="264.18" y="134.48" width="0.92" height="5.32" rx="0.27" ry="0.27" transform="translate(122.71 399.25) rotate(-88.96)"/><rect class="cls-6" x="263.73" y="138.39" width="1.69" height="5.32" rx="0.27" ry="0.27" transform="translate(118.73 403.02) rotate(-88.96)"/><path class="cls-7" d="M265.38,151a20.71,20.71,0,0,0-4.26,3.29,13,13,0,0,0-3.07,4.52l8.68-4.83a.66.66,0,0,0,.2-1Z"/><path class="cls-7" d="M278.69,147.38c-1,.57-.15,3.23-.15,3.23s2.78.14,3.09-.93-1.47-1.15-1.47-1.15S279.65,146.82,278.69,147.38Z"/><path class="cls-6" d="M275.87,138.32s-.71-.91-1.16-.34.68,2,.68,2,1.7-.58,1.63-1.29S275.87,138.32,275.87,138.32Z"/><path class="cls-7" d="M279.52,140.41a8.45,8.45,0,0,0,2.84-4.84l-8.28-.15a1.87,1.87,0,0,0-1.9,1.83l1.42,3.92a1.08,1.08,0,0,1-.18,1.05l-2.49,3.06a10.31,10.31,0,0,0-1.23.51l.16-8.95a.47.47,0,0,1,.48-.47h.78a2,2,0,0,0-1.91-2l-8.87-.16a2,2,0,0,0-2,1.92h.83a.48.48,0,0,1,.47.49l-.11,6.42h0a2.17,2.17,0,0,0-1.75,2.82l.64,2.05a28.27,28.27,0,0,1,2.95-2.11,18.43,18.43,0,0,1,3.3-1.56,1.82,1.82,0,0,1,1.53.14l2.92,1.66A8.93,8.93,0,0,0,266,148.8l-2-2.45a14.39,14.39,0,0,0-5.61,7.17l7.27-4.19a4,4,0,0,0-.53,1.24l3-.77-.23,12.47a4.73,4.73,0,0,0,4.81-4.52l.23-5.17,9.82,7a7.41,7.41,0,0,0-2.16-6.16,9.15,9.15,0,0,0-4.69-2.23l-2.94-.48,0-2.19,3.79-1-.43-.72a4,4,0,0,0-4.68-1.79h0a31.68,31.68,0,0,0,3.93-1.81,1.12,1.12,0,0,1,1.05,0l6.6,3.28A7.74,7.74,0,0,0,279.52,140.41Zm-12.3,1.26a.28.28,0,0,1-.28.27l-4.78-.09a.25.25,0,0,1-.26-.27l0-1.14a.27.27,0,0,1,.27-.27l4.78.09a.27.27,0,0,1,.27.27Zm0-2.53a.27.27,0,0,1-.27.27l-4.78-.09a.27.27,0,0,1-.27-.27v-.38a.26.26,0,0,1,.28-.26l4.77.08a.28.28,0,0,1,.27.28Zm0-1.76a.28.28,0,0,1-.28.27l-4.78-.09a.28.28,0,0,1-.27-.28v-.37a.28.28,0,0,1,.28-.27l4.78.09a.26.26,0,0,1,.26.28Zm8.09,2.57s-1.13-1.4-.68-2,1.16.34,1.16.34,1.08-.38,1.15.34S275.39,140,275.39,140Z"/></svg>