<svg id="圖層_1" data-name="圖層 1" xmlns="http://www.w3.org/2000/svg" viewBox="0 0 462 452"><title>履歷作品icon設計</title><path d="M107.59,353.2h4.22v30h16.31V387H107.59Z"/><path d="M130.23,374.84v0c0-7.76,4.55-12.61,11.27-12.61s11.3,4.83,11.3,12.61v0c0,7.78-4.55,12.65-11.27,12.65S130.23,382.59,130.23,374.84Zm18.4,0v0c0-5.72-2.81-9-7.13-9s-7.1,3.3-7.1,9v0c0,5.74,2.84,9,7.15,9S148.63,380.55,148.63,374.84Z"/><path d="M156.6,389.25l0-.21h4.1l.1.21c.77,1.76,3.09,2.84,6.42,2.84,4.29,0,6.72-2.37,6.72-6.14v-3.12h-.09a8.56,8.56,0,0,1-7.76,4.43c-6.14,0-10.33-4.95-10.33-12.56v0c0-7.57,4.24-12.49,10.43-12.49a8.6,8.6,0,0,1,7.66,4.59h.09v-4.12H178v23.69c0,5.65-4.15,9.36-10.76,9.36C161.19,395.7,157.39,392.86,156.6,389.25Zm17.29-14.55v0c0-5.37-2.83-8.88-7-8.88-4.33,0-7.05,3.47-7.05,8.88v0c0,5.53,2.72,8.95,7.05,8.95C171.08,383.65,173.89,380.11,173.89,374.7Z"/><path d="M182.05,374.84v0c0-7.76,4.55-12.61,11.27-12.61s11.3,4.83,11.3,12.61v0c0,7.78-4.55,12.65-11.27,12.65S182.05,382.59,182.05,374.84Zm18.4,0v0c0-5.72-2.81-9-7.13-9s-7.1,3.3-7.1,9v0c0,5.74,2.84,9,7.15,9S200.45,380.55,200.45,374.84Z"/><path d="M219.2,353.2h11.37c10,0,16,6.24,16,16.85v.05c0,10.67-5.91,16.92-16,16.92H219.2Zm11.09,30c7.66,0,11.92-4.69,11.92-13.08v0c0-8.44-4.26-13.1-11.92-13.1h-6.87v26.23Z"/><path d="M250,374.93v0c0-7.55,4.31-12.73,11-12.73s10.71,4.94,10.71,12.26v1.5H254.07c.1,5,2.86,7.94,7.2,7.94,3.09,0,5.27-1.54,6-3.63l.07-.21h4l0,.23c-.8,4-4.78,7.22-10.1,7.22C254.17,387.49,250,382.59,250,374.93Zm4.19-2.18h13.34c-.4-4.73-3-7-6.59-7S254.59,368.2,254.14,372.75Z"/><path d="M274.68,380.2l0-.21h4.08l0,.24c.49,2.43,2.29,3.86,5.62,3.86s5.28-1.38,5.28-3.58v0c0-1.75-.92-2.74-3.68-3.42l-3.87-.94c-4.59-1.1-6.82-3.23-6.82-6.74v0c0-4.19,3.68-7.17,8.95-7.17s8.74,3.12,9.05,7.2l0,.3h-3.89l0-.16c-.33-2.37-2.13-3.94-5.16-3.94s-4.78,1.43-4.78,3.58v0c0,1.66,1.1,2.81,3.8,3.47l3.86.93c4.93,1.2,6.71,3.14,6.71,6.61v0c0,4.26-4,7.26-9.47,7.26C278.64,387.49,275.17,384.56,274.68,380.2Z"/><path d="M297.81,356a2.56,2.56,0,1,1,2.55,2.55A2.55,2.55,0,0,1,297.81,356Zm.51,6.68h4.08V387h-4.08Z"/><path d="M307.65,389.25l0-.21h4.1l.09.21c.77,1.76,3.09,2.84,6.42,2.84,4.29,0,6.73-2.37,6.73-6.14v-3.12h-.09a8.58,8.58,0,0,1-7.76,4.43c-6.14,0-10.34-4.95-10.34-12.56v0c0-7.57,4.24-12.49,10.43-12.49a8.61,8.61,0,0,1,7.67,4.59H325v-4.12H329v23.69c0,5.65-4.15,9.36-10.76,9.36C312.25,395.7,308.45,392.86,307.65,389.25ZM325,374.7v0c0-5.37-2.84-8.88-7-8.88-4.34,0-7.06,3.47-7.06,8.88v0c0,5.53,2.72,8.95,7.06,8.95C322.14,383.65,325,380.11,325,374.7Z"/><path d="M334.3,362.65h4.08v3.47h.09c1.32-2.28,3.8-3.94,7.5-3.94,5.35,0,8.44,3.47,8.44,9V387h-4.08V371.93c0-4-1.85-6.14-5.6-6.14s-6.35,2.74-6.35,6.89V387H334.3Z"/><path d="M284.22,184.5l-3.73-.81a51.92,51.92,0,0,1-101.45,0l-3.73.81A56,56,0,0,0,214.09,226v19.71a75.1,75.1,0,0,1,2.25-147.35l-.68-3.76a78.93,78.93,0,0,0,0,155.32l2.25.4V227a54.83,54.83,0,0,0,11.85,1.34A56,56,0,0,0,284.22,184.5Z"/><path d="M243.08,94.49l-2.23-.38v23.61a55,55,0,0,0-11.09-1.17,56,56,0,0,0-54.45,43.85l3.73.81a52.17,52.17,0,0,1,48.81-40.76V133.9h3.83V120.45a52.17,52.17,0,0,1,48.81,40.76l3.73-.81a56.06,56.06,0,0,0-39.55-41.77v-20a75.11,75.11,0,0,1-2.23,147.65l.64,3.77a78.93,78.93,0,0,0,0-155.6Z"/><path d="M182.52,92.55a4.65,4.65,0,0,1,.82,3.54,4.39,4.39,0,0,1-2,2.81,4.94,4.94,0,0,1-3.85.86,4.65,4.65,0,0,1-3-2,4.6,4.6,0,0,1-.68-3.51A4.79,4.79,0,0,1,176,91.12a5.38,5.38,0,0,1,2.07-.85,7.1,7.1,0,0,1,2.39,0l-.25,1.09a5.94,5.94,0,0,0-2,0,4.59,4.59,0,0,0-1.7.67,3.87,3.87,0,0,0-1.26,1.42,3.8,3.8,0,0,0-.45,1.9,3.36,3.36,0,0,0,.57,1.79,3.57,3.57,0,0,0,2.4,1.56,3.84,3.84,0,0,0,3-.63,3.56,3.56,0,0,0,1.44-1.79,2.88,2.88,0,0,0-.11-2.21l-2.33,1.55-.56-.85Z"/><path d="M178.4,100a4.47,4.47,0,0,1-1-.1,4.77,4.77,0,0,1-3.05-2,4.68,4.68,0,0,1-.69-3.58A4.91,4.91,0,0,1,175.93,91a5.53,5.53,0,0,1,2.1-.87,7.3,7.3,0,0,1,2.42,0h.1l-.29,1.28h-.09a5.71,5.71,0,0,0-1.93,0,4.38,4.38,0,0,0-1.67.65,3.89,3.89,0,0,0-1.66,3.23,3.23,3.23,0,0,0,.55,1.74,3.5,3.5,0,0,0,2.34,1.53,3.8,3.8,0,0,0,2.92-.62,3.51,3.51,0,0,0,1.4-1.74,2.85,2.85,0,0,0-.06-2l-2.32,1.54-.67-1,3.48-2.31,0,.08a4.78,4.78,0,0,1,.84,3.61A4.52,4.52,0,0,1,181.36,99,5.29,5.29,0,0,1,178.4,100Zm.75-9.68a6.21,6.21,0,0,0-1.08.09,5.53,5.53,0,0,0-2,.84,4.66,4.66,0,0,0-2.14,3.06,4.5,4.5,0,0,0,.66,3.44,4.56,4.56,0,0,0,2.93,2,4.85,4.85,0,0,0,3.78-.84,4.34,4.34,0,0,0,2-2.75,4.52,4.52,0,0,0-.76-3.38l-3.15,2.09.46.69,2.34-1.56.05.1a3,3,0,0,1,.11,2.28,3.69,3.69,0,0,1-1.47,1.84,4,4,0,0,1-3.06.65,3.7,3.7,0,0,1-2.47-1.61,3.52,3.52,0,0,1-.59-1.84,4.12,4.12,0,0,1,1.75-3.4,4.41,4.41,0,0,1,1.75-.68,5.84,5.84,0,0,1,1.91,0l.2-.9A7.88,7.88,0,0,0,179.15,90.27Z"/><path d="M194.36,91.56l-.93.41-3.75-8.41.92-.41Z"/><path d="M193.39,92.1l0-.09-3.79-8.5,1.09-.49,0,.09,3.79,8.5Zm-3.58-8.49,3.67,8.23.75-.33-3.68-8.24Z"/><path d="M204.86,80.58a3.34,3.34,0,0,1,2.65.36,3.6,3.6,0,0,1,1.33,4.82,3.3,3.3,0,0,1-2.11,1.66,3.37,3.37,0,0,1-2.67-.35,3.6,3.6,0,0,1-1.31-4.83A3.33,3.33,0,0,1,204.86,80.58Zm1.61,5.9A2.35,2.35,0,0,0,208,85.31a2.62,2.62,0,0,0-1-3.48,2.3,2.3,0,0,0-1.88-.29,2.33,2.33,0,0,0-1.46,1.19,2.63,2.63,0,0,0-.22,2,2.54,2.54,0,0,0,1.15,1.54A2.35,2.35,0,0,0,206.47,86.48Z"/><path d="M205.77,87.64a3.42,3.42,0,0,1-1.76-.49,3.72,3.72,0,0,1-1.35-5,3.54,3.54,0,0,1,4.9-1.33,3.7,3.7,0,0,1,1.36,5,3.42,3.42,0,0,1-2.17,1.7A3.72,3.72,0,0,1,205.77,87.64Zm0-7.09a3.48,3.48,0,0,0-.9.12h0a3.21,3.21,0,0,0-2,1.62,3.38,3.38,0,0,0-.31,2.6A3.34,3.34,0,0,0,204.11,87a3.35,3.35,0,0,0,4.64-1.26,3.53,3.53,0,0,0-1.29-4.7A3.27,3.27,0,0,0,205.79,80.55Zm0,6.12a2.38,2.38,0,0,1-1.25-.36,2.59,2.59,0,0,1-1.19-1.6,2.68,2.68,0,0,1,.23-2,2.4,2.4,0,0,1,1.52-1.24,2.46,2.46,0,0,1,1.95.29,2.66,2.66,0,0,1,1.22,1.62,2.55,2.55,0,0,1-.23,2,2.39,2.39,0,0,1-1.54,1.22h0A2.53,2.53,0,0,1,205.78,86.67Zm-.05-5.12a2.46,2.46,0,0,0-.59.08,2.19,2.19,0,0,0-1.4,1.15,2.46,2.46,0,0,0-.21,1.88,2.4,2.4,0,0,0,1.1,1.49,2.28,2.28,0,0,0,1.81.24h0a2.28,2.28,0,0,0,1.43-1.13,2.52,2.52,0,0,0-.93-3.35A2.3,2.3,0,0,0,205.73,81.55Z"/><path d="M220.07,78.87a3.37,3.37,0,0,1,4.94-.5,3.62,3.62,0,0,1,.38,5A3.32,3.32,0,0,1,223,84.59a3.13,3.13,0,0,1-2.58-1l.08,1-1,.08-.73-9.18,1-.09Zm2.82,4.75a2.36,2.36,0,0,0,1.71-.91,2.58,2.58,0,0,0,.59-1.87,2.63,2.63,0,0,0-.85-1.75,2.35,2.35,0,0,0-1.84-.63,2.39,2.39,0,0,0-1.72.87,2.45,2.45,0,0,0-.58,1.87,2.63,2.63,0,0,0,.87,1.8A2.36,2.36,0,0,0,222.89,83.62Z"/><path d="M219.44,84.75v-.09l-.73-9.28,1.18-.1v.1l.26,3.25a3.31,3.31,0,0,1,2.32-1.2,3.46,3.46,0,0,1,2.6.87,3.69,3.69,0,0,1,.39,5.12A3.46,3.46,0,0,1,223,84.69h-.25a3.27,3.27,0,0,1-2.22-.91l.07.87Zm-.54-9.2.71,9,.81-.06-.1-1.2.19.19a3.1,3.1,0,0,0,2.26,1H223a3.27,3.27,0,0,0,2.3-1.2,3.51,3.51,0,0,0-.36-4.86,3.26,3.26,0,0,0-4.8.49l-.16.2-.29-3.64Zm3.78,8.17a2.44,2.44,0,0,1-1.67-.65,2.69,2.69,0,0,1-.9-1.86,2.61,2.61,0,0,1,.59-1.95,2.56,2.56,0,0,1,1.79-.89,2.45,2.45,0,0,1,1.91.65,2.73,2.73,0,0,1,.89,1.82,2.68,2.68,0,0,1-.61,1.93,2.43,2.43,0,0,1-1.78.94Zm0-5.17h-.21a2.27,2.27,0,0,0-1.66.83,2.37,2.37,0,0,0-.55,1.8,2.5,2.5,0,0,0,.84,1.74,2.2,2.2,0,0,0,1.75.59,2.26,2.26,0,0,0,1.64-.87,2.43,2.43,0,0,0,.56-1.8,2.52,2.52,0,0,0-.82-1.69A2.2,2.2,0,0,0,222.72,78.55Z"/><path d="M242.65,85l-1-.11.11-1a3.35,3.35,0,0,1-2.64.93,3.31,3.31,0,0,1-2.31-1.31,3.51,3.51,0,0,1-.73-2.61,3.44,3.44,0,0,1,1.29-2.36,3.34,3.34,0,0,1,2.58-.76,3.08,3.08,0,0,1,2.32,1.45l.11-1,1,.11Zm-3.34-1.1a2.38,2.38,0,0,0,1.82-.53,2.49,2.49,0,0,0,.94-1.75,2.52,2.52,0,0,0-.52-1.91,2.48,2.48,0,0,0-3.53-.37,2.59,2.59,0,0,0-.92,1.73,2.52,2.52,0,0,0,.53,1.88A2.36,2.36,0,0,0,239.31,83.91Z"/><path d="M242.73,85.12,241.55,85l.09-.84a3.31,3.31,0,0,1-2.52.79,3.39,3.39,0,0,1-2.37-1.34,3.61,3.61,0,0,1-.75-2.68,3.59,3.59,0,0,1,4-3.21A3.19,3.19,0,0,1,242.21,79l.1-.86,1.18.13v.1Zm-1-.3.8.09.72-6.47-.8-.09-.13,1.19-.15-.22A3,3,0,0,0,240,77.9a3.26,3.26,0,0,0-2.51.74,3.5,3.5,0,0,0-.54,4.84,3.19,3.19,0,0,0,2.24,1.27,3.22,3.22,0,0,0,2.56-.9l.19-.16ZM239.6,84l-.3,0a2.46,2.46,0,0,1-1.74-1,2.55,2.55,0,0,1-.55-1.94,2.63,2.63,0,0,1,1-1.79,2.41,2.41,0,0,1,1.92-.59,2.51,2.51,0,0,1,1.75,1,2.69,2.69,0,0,1,.54,2,2.61,2.61,0,0,1-1,1.81A2.49,2.49,0,0,1,239.6,84Zm-.28-.21a2.34,2.34,0,0,0,1.76-.52,2.39,2.39,0,0,0,.89-1.68,2.42,2.42,0,0,0-.49-1.84,2.36,2.36,0,0,0-1.62-.9,2.26,2.26,0,0,0-1.78.55,2.44,2.44,0,0,0-.88,1.66,2.39,2.39,0,0,0,.51,1.81,2.31,2.31,0,0,0,1.61.92Z"/><path d="M253.36,87.35l-1-.26,2.42-8.89,1,.26Z"/><path d="M253.43,87.47l-1.16-.32,0-.09,2.45-9,1.16.32,0,.09Zm-.92-.45.78.21,2.37-8.7-.79-.21Z"/><path d="M281.4,100.64l-.88-.56,2.57-5.61L277.26,98l-.27-.17.73-6.84-4,4.75-.86-.54,5.89-6.91.22.14-.84,7.92,6.79-4.14.22.14Z"/><path d="M281.44,100.78l-1-.67,2.48-5.4-5.62,3.42-.37-.24v-.06l.69-6.53-3.87,4.58-1-.65.07-.09,6-7,.33.21v.06l-.82,7.73,6.67-4.07.34.21Zm-.8-.74.72.46L285,92.4l-.1-.06-6.9,4.2,0-.19.83-7.86-.1-.06L273,95.18l.7.45,4.16-4.93,0,.31-.72,6.78.17.11,6.05-3.67Z"/><path d="M293.58,111.35l-.71-.69.68-.71a3.29,3.29,0,0,1-3.66-3.34,3.44,3.44,0,0,1,1-2.5,3.4,3.4,0,0,1,2.47-1.08,3.35,3.35,0,0,1,2.5,1,3.09,3.09,0,0,1,.94,2.57l.71-.73.72.69Zm-2-2.92a2.38,2.38,0,0,0,1.77.7A2.67,2.67,0,0,0,296,106.5a2.39,2.39,0,0,0-.75-1.77,2.35,2.35,0,0,0-1.81-.69,2.54,2.54,0,0,0-1.78.8,2.57,2.57,0,0,0-.74,1.81A2.39,2.39,0,0,0,291.62,108.43Z"/><path d="M293.58,111.49l-.85-.83.59-.6h-.07a3.34,3.34,0,0,1-2.41-.93,3.43,3.43,0,0,1-1-2.52,3.63,3.63,0,0,1,1-2.57,3.56,3.56,0,0,1,2.53-1.11h.11a3.41,3.41,0,0,1,2.47,1,3.15,3.15,0,0,1,1,2.39l.6-.62.85.83-.07.07Zm-.58-.84.58.57,4.53-4.67-.58-.56-.82.85v-.26a3,3,0,0,0-.9-2.49,3.27,3.27,0,0,0-2.34-1h-.1a3.34,3.34,0,0,0-2.4,1,3.39,3.39,0,0,0-1,2.44,3.19,3.19,0,0,0,3.27,3.26h.29l.24,0Zm.35-1.43a2.49,2.49,0,0,1-1.8-.72h0a2.47,2.47,0,0,1-.76-1.85,2.63,2.63,0,0,1,.76-1.88,2.66,2.66,0,0,1,1.84-.82h.13a2.46,2.46,0,0,1,1.75.71,2.51,2.51,0,0,1,.79,1.84,2.77,2.77,0,0,1-2.67,2.72Zm.17-5.08h-.12a2.49,2.49,0,0,0-1.71.76,2.46,2.46,0,0,0-.71,1.75,2.25,2.25,0,0,0,.71,1.71h0a2.26,2.26,0,0,0,1.65.67h.05a2.41,2.41,0,0,0,1.74-.77,2.48,2.48,0,0,0,.74-1.76,2.31,2.31,0,0,0-.73-1.7A2.25,2.25,0,0,0,293.52,104.14Z"/><path d="M307,117.36l-1,.09a.76.76,0,0,0-.15-.39.89.89,0,0,0-.71-.34,2.55,2.55,0,0,0-1.06.22,10.27,10.27,0,0,0-1.86,1.18l-1.85,1.36-.61-.83,5.38-4,.62.82-.59.44a2.56,2.56,0,0,1,.92.09,1.24,1.24,0,0,1,.6.44A2.07,2.07,0,0,1,307,117.36Z"/><path d="M300.35,119.62l-.72-1,.07,0,5.46-4,.73,1-.42.32a2.47,2.47,0,0,1,.65.1,1.32,1.32,0,0,1,.64.48,2,2,0,0,1,.34.93v.1l-1.19.1v-.09a.86.86,0,0,0-.14-.35.78.78,0,0,0-.64-.29,2.25,2.25,0,0,0-1,.21,10.75,10.75,0,0,0-1.83,1.16Zm-.46-1,.5.68,1.77-1.31a10.68,10.68,0,0,1,1.88-1.19,2.62,2.62,0,0,1,1.1-.22,1,1,0,0,1,.78.37.77.77,0,0,1,.16.34l.81-.06a1.73,1.73,0,0,0-.28-.75,1.16,1.16,0,0,0-.55-.41,2.83,2.83,0,0,0-.88-.09h-.31l.75-.56-.5-.67Z"/><path d="M309.09,133.72l-.68-1.29,1-4.1-2.49,1.32-.48-.9,8.15-4.3.47.9-4.46,2.35,3.57,1.38.72,1.33-4.54-1.76Z"/><path d="M309.12,134l-.82-1.55v0l1-3.9-2.39,1.27-.57-1.07,8.32-4.39.56,1.07-.08,0-4.28,2.26,3.41,1.32,0,0,.84,1.56-.24-.1-4.45-1.73Zm-.61-1.57.55,1,1.24-4.94.1,0,4.3,1.67-.57-1.07-3.74-1.44,4.56-2.41-.38-.73-8,4.21.39.73,2.6-1.37Z"/><path d="M317.72,147.44l-1.82-5.58a2.55,2.55,0,0,0-1.45,1.25,2.25,2.25,0,0,0-.14,1.76,2.67,2.67,0,0,0,2.27,1.84l-.16,1a4.33,4.33,0,0,1-1.92-.81,3.37,3.37,0,0,1-1.06-1.63,3.3,3.3,0,0,1,.21-2.69,3.68,3.68,0,0,1,4.76-1.55,3.47,3.47,0,0,1,1.57,4.64A3.79,3.79,0,0,1,317.72,147.44Zm.5-1.35a2.18,2.18,0,0,0,1-1.21,2.44,2.44,0,0,0,0-1.58,2.26,2.26,0,0,0-2.44-1.6Z"/><path d="M316.5,147.78l-.09,0a4.39,4.39,0,0,1-2-.83,3.49,3.49,0,0,1-1.09-1.67,3.38,3.38,0,0,1,.22-2.77,3.77,3.77,0,0,1,4.89-1.58,3.35,3.35,0,0,1,1.8,2.06,3.44,3.44,0,0,1-.19,2.71,4,4,0,0,1-2.32,1.85l-.09,0,0-.09L315.84,142a2.48,2.48,0,0,0-1.31,1.17,2.16,2.16,0,0,0-.12,1.69,2.55,2.55,0,0,0,2.19,1.78l.09,0,0,.09Zm.38-7.05a3.66,3.66,0,0,0-1.12.19,3.41,3.41,0,0,0-2,1.66,3.22,3.22,0,0,0-.21,2.62,3.31,3.31,0,0,0,1,1.58,3.93,3.93,0,0,0,1.79.77l.12-.76a2.75,2.75,0,0,1-2.25-1.9,2.35,2.35,0,0,1,.14-1.82,2.69,2.69,0,0,1,1.51-1.3l.09,0,0,.1,1.79,5.49a3.72,3.72,0,0,0,2.11-1.73,3.36,3.36,0,0,0-1.52-4.51A3.43,3.43,0,0,0,316.88,140.73Zm1.29,5.5-1.51-4.63h.19a2.33,2.33,0,0,1,2.47,1.68,2.53,2.53,0,0,1,0,1.63,2.28,2.28,0,0,1-1.06,1.26Zm-1.24-4.44,1.35,4.15a2,2,0,0,0,.87-1.09,2.4,2.4,0,0,0,0-1.52A2.13,2.13,0,0,0,316.93,141.79Z"/><path d="M323,160l-.19-1.31-4.64.71c-.17,0-.27.06-.3.11a.76.76,0,0,0,0,.38l.09.58-.86.13a6.8,6.8,0,0,1-.24-.87,1.16,1.16,0,0,1,.16-.9,1.24,1.24,0,0,1,.86-.42l4.77-.73-.17-1.14.87-.13.18,1.14,2.49-.38.15,1-2.49.38.2,1.31Z"/><path d="M317,160.74l0-.08a6.47,6.47,0,0,1-.23-.88,1.24,1.24,0,0,1,.17-1,1.33,1.33,0,0,1,.93-.45l4.68-.71-.18-1.15,1.06-.16,0,.1.16,1,2.49-.38v.1l.17,1.1-.1,0-2.39.36L324,160l-1.07.16v-.09l-.19-1.22-4.54.69c-.2,0-.23.07-.23.07a1,1,0,0,0,0,.31l.11.68Zm5.56-4.09.17,1.14-.09,0-4.77.73a1.14,1.14,0,0,0-.8.37,1.07,1.07,0,0,0-.14.84,5.58,5.58,0,0,0,.2.78l.69-.11-.07-.49c-.05-.28,0-.38,0-.43s.16-.13.36-.17l4.74-.71v.09l.19,1.21.68-.1-.2-1.31.1,0,2.39-.36-.13-.82-2.48.38,0-.09-.16-1Z"/><path d="M317.93,171.27v-1l6.69-.12,0,1Zm9.2-.67a.72.72,0,0,1-.21.56.76.76,0,0,1-.55.23.73.73,0,0,1-.56-.21.76.76,0,0,1-.23-.55.77.77,0,0,1,.76-.79.76.76,0,0,1,.55.21A.72.72,0,0,1,327.13,170.6Z"/><path d="M326.36,171.49a.84.84,0,0,1-.62-.25.82.82,0,0,1-.26-.61.84.84,0,0,1,.25-.63.89.89,0,0,1,.61-.26h0a.88.88,0,0,1,.6.24.86.86,0,0,1,.27.62h0a.85.85,0,0,1-.86.89Zm0-1.56h0a.68.68,0,0,0-.68.7.63.63,0,0,0,.21.48.65.65,0,0,0,.48.19h0a.63.63,0,0,0,.48-.21.67.67,0,0,0,.19-.49h0a.63.63,0,0,0-.21-.48A.67.67,0,0,0,326.36,169.93Zm-8.52,1.43,0-1.21h.1l6.78-.11,0,1.21h-.1Zm.18-1v.83l6.5-.11v-.83Z"/><path d="M316.74,187l.14-1,3.16.43a7.21,7.21,0,0,0,1.5.1,2,2,0,0,0,.71-.22,1.3,1.3,0,0,0,.48-.45,1.9,1.9,0,0,0,.24-.74,2,2,0,0,0-.1-.9,2.31,2.31,0,0,0-.51-.81,2.21,2.21,0,0,0-.78-.53,8.16,8.16,0,0,0-1.73-.36l-2.46-.33.14-1,6.63.9-.14,1-1-.14a3,3,0,0,1,.86,2.5,2.45,2.45,0,0,1-.55,1.25,2.32,2.32,0,0,1-1.14.74,5.36,5.36,0,0,1-2,0Z"/><path d="M321.27,187.63a9.8,9.8,0,0,1-1.13-.08l-3.51-.48.16-1.19h.1l3.16.43a7,7,0,0,0,1.48.1,1.88,1.88,0,0,0,.68-.2,1.18,1.18,0,0,0,.44-.42,1.92,1.92,0,0,0,.22-.7,1.83,1.83,0,0,0-.09-.86,2.15,2.15,0,0,0-.49-.77,2.19,2.19,0,0,0-.74-.51,7.47,7.47,0,0,0-1.71-.35l-2.56-.35.17-1.2.09,0,6.73.91-.17,1.2-.84-.12a3,3,0,0,1,.71,2.38,2.44,2.44,0,0,1-.57,1.3,2.42,2.42,0,0,1-1.18.77A3.7,3.7,0,0,1,321.27,187.63Zm-4.42-.72,3.31.44a5,5,0,0,0,2,0,2.26,2.26,0,0,0,1.62-1.91A2.86,2.86,0,0,0,323,183l-.17-.2,1.16.16.11-.82-6.44-.87-.11.82,2.36.31a8.76,8.76,0,0,1,1.76.37,2.48,2.48,0,0,1,.81.55,2.59,2.59,0,0,1,.53.85,2.05,2.05,0,0,1,.1.94,1.94,1.94,0,0,1-.25.78,1.3,1.3,0,0,1-.51.48,1.79,1.79,0,0,1-.75.23,7.35,7.35,0,0,1-1.52-.1L317,186.1Z"/><path d="M314,203.44a6.67,6.67,0,0,1-1.8-.83,2.73,2.73,0,0,1-.81-1,2.84,2.84,0,0,1-.29-1.26,4.24,4.24,0,0,1,.22-1.42,3.39,3.39,0,0,1,3.19-2.63l-.34,1a2.47,2.47,0,0,0-1.95,1.85,2.94,2.94,0,0,0-.14,1.39,1.75,1.75,0,0,0,.48,1,3.45,3.45,0,0,0,1.36.7l.06,0a3.15,3.15,0,0,1-.43-1.35,3.6,3.6,0,0,1,.17-1.42,3.25,3.25,0,0,1,1.7-2,3.35,3.35,0,0,1,4.51,1.53,3.42,3.42,0,0,1,.19,2.64,3.27,3.27,0,0,1-1.87,2l.93.31-.32,1Zm2.09-.36a2.33,2.33,0,0,0,1.87-.12,2.37,2.37,0,0,0,1.2-1.43,2.44,2.44,0,0,0-.15-1.95,2.37,2.37,0,0,0-1.41-1.23,2.22,2.22,0,0,0-1.8.14,2.71,2.71,0,0,0-1.12,3.4A2.25,2.25,0,0,0,316.07,203.08Z"/><path d="M318.9,205.15l-.09,0L314,203.53a6.44,6.44,0,0,1-1.83-.85,2.82,2.82,0,0,1-.84-1,3.14,3.14,0,0,1-.3-1.3,4.39,4.39,0,0,1,.23-1.45,3.52,3.52,0,0,1,3.27-2.7h.14l-.39,1.21h-.06a2.4,2.4,0,0,0-1.88,1.79,3,3,0,0,0-.14,1.35,1.64,1.64,0,0,0,.46,1,3.3,3.3,0,0,0,1.15.63,3.24,3.24,0,0,1-.32-1.18,3.53,3.53,0,0,1,.17-1.45,3.37,3.37,0,0,1,1.75-2.06,3.44,3.44,0,0,1,4.63,1.58,3.5,3.5,0,0,1,.2,2.71,3.33,3.33,0,0,1-1.71,2l.8.26ZM314,203.34l4.77,1.57.26-.79-1.07-.35.22-.1a3.17,3.17,0,0,0,1.81-1.94,3.29,3.29,0,0,0-.18-2.57,3.26,3.26,0,0,0-4.38-1.49,3.19,3.19,0,0,0-1.65,1.94,3.59,3.59,0,0,0-.16,1.38,3,3,0,0,0,.41,1.31l.12.21-.29-.08a3.8,3.8,0,0,1-1.4-.73,1.8,1.8,0,0,1-.51-1.11,3.12,3.12,0,0,1,.15-1.43,2.59,2.59,0,0,1,2-1.9l.27-.84a3.31,3.31,0,0,0-3,2.55,4,4,0,0,0-.22,1.39,3,3,0,0,0,.28,1.21,2.79,2.79,0,0,0,.79,1,6.18,6.18,0,0,0,1.77.81Zm2.88,0a2.58,2.58,0,0,1-.85-.15h0a2.38,2.38,0,0,1-1.47-1.24,2.82,2.82,0,0,1,1.17-3.52,2.27,2.27,0,0,1,1.87-.15,2.51,2.51,0,0,1,1.47,1.27,2.56,2.56,0,0,1,.15,2A2.44,2.44,0,0,1,318,203,2.4,2.4,0,0,1,316.89,203.32Zm-.79-.33a2.2,2.2,0,0,0,1.8-.12A2.23,2.23,0,0,0,319,201.5a2.36,2.36,0,0,0-.13-1.88,2.26,2.26,0,0,0-1.36-1.18,2.11,2.11,0,0,0-1.72.14,2.33,2.33,0,0,0-1.16,1.43,2.38,2.38,0,0,0,.07,1.84A2.17,2.17,0,0,0,316.1,203Z"/><path d="M298.82,227.21l.59-.8.8.58a3.27,3.27,0,0,1,.52-2.74,3.23,3.23,0,0,1,2.28-1.34,3.49,3.49,0,0,1,2.62.66,3.52,3.52,0,0,1,.78,4.92,3.11,3.11,0,0,1-2.42,1.28l.82.6-.59.8Zm2.63-2.34a2.38,2.38,0,0,0-.45,1.85,2.45,2.45,0,0,0,1,1.68,2.59,2.59,0,0,0,1.92.51,2.44,2.44,0,0,0,1.65-1A2.41,2.41,0,0,0,306,226a2.55,2.55,0,0,0-1-1.65,2.49,2.49,0,0,0-1.9-.48A2.32,2.32,0,0,0,301.45,224.87Z"/><path d="M304.24,231.31l-.08-.06-5.47-4,.7-.95.68.49a3.29,3.29,0,0,1,.58-2.57,3.38,3.38,0,0,1,2.35-1.39,3.6,3.6,0,0,1,2.69.69,3.61,3.61,0,0,1,.79,5.05,3.14,3.14,0,0,1-2.23,1.29l.69.51ZM299,227.19,304.2,231l.48-.65-1-.7.26,0a3,3,0,0,0,2.35-1.24,3.28,3.28,0,0,0,.62-2.55A3.49,3.49,0,0,0,303,223a3.2,3.2,0,0,0-2.23,1.31,3.23,3.23,0,0,0-.5,2.66l.05.24-.92-.67Zm4.63,1.84a2.67,2.67,0,0,1-1.6-.55,2.63,2.63,0,0,1-1.09-1.74,2.54,2.54,0,0,1,.47-1.93h0a2.48,2.48,0,0,1,1.73-1,2.58,2.58,0,0,1,2,.5,2.63,2.63,0,0,1,1.07,1.71,2.44,2.44,0,0,1-.45,2,2.49,2.49,0,0,1-1.71,1A2.43,2.43,0,0,1,303.59,229ZM303.5,224a2.43,2.43,0,0,0-.38,0,2.29,2.29,0,0,0-1.6.93h0a2.32,2.32,0,0,0-.43,1.79,2.6,2.6,0,0,0,2.86,2.1,2.24,2.24,0,0,0,1.58-.95,2.29,2.29,0,0,0,.41-1.81,2.46,2.46,0,0,0-1-1.6A2.41,2.41,0,0,0,303.5,224Z"/><path d="M287.92,238.64l.73-.69,2.18,2.33a7.59,7.59,0,0,0,1.11,1,2,2,0,0,0,.68.28,1.23,1.23,0,0,0,.66-.06,1.71,1.71,0,0,0,.65-.42,1.82,1.82,0,0,0,.49-.76,2.17,2.17,0,0,0,.12-.95,2.41,2.41,0,0,0-.26-.9,8.75,8.75,0,0,0-1.13-1.37l-1.7-1.81.75-.7,4.58,4.89-.75.69-.69-.73a3,3,0,0,1-.91,2.47,2.43,2.43,0,0,1-1.22.63,2.34,2.34,0,0,1-1.35-.15,5.33,5.33,0,0,1-1.59-1.27Z"/><path d="M292.78,242.7a2.41,2.41,0,0,1-.95-.19,5.27,5.27,0,0,1-1.63-1.3l-2.42-2.58.87-.81.07.07,2.18,2.32a7.65,7.65,0,0,0,1.09,1,1.88,1.88,0,0,0,.65.27,1.06,1.06,0,0,0,.61-.06,1.74,1.74,0,0,0,.61-.39,1.92,1.92,0,0,0,.47-.73,2.16,2.16,0,0,0,.11-.91,2.26,2.26,0,0,0-.25-.86,8.39,8.39,0,0,0-1.11-1.35l-1.76-1.88.88-.83.07.07,4.64,4.95-.88.83-.59-.62a3,3,0,0,1-.95,2.29,2.43,2.43,0,0,1-1.26.65A2.28,2.28,0,0,1,292.78,242.7Zm-4.73-4.06,2.29,2.44a5.15,5.15,0,0,0,1.56,1.25,2.24,2.24,0,0,0,1.3.14,2.28,2.28,0,0,0,1.16-.6,2.92,2.92,0,0,0,.89-2.4l0-.26.81.86.6-.57-4.45-4.74-.6.57,1.63,1.73a9.21,9.21,0,0,1,1.14,1.39,2.49,2.49,0,0,1,.27.94,2.35,2.35,0,0,1-.12,1,2,2,0,0,1-.51.8,2.09,2.09,0,0,1-.69.45,1.29,1.29,0,0,1-.7.05,2,2,0,0,1-.72-.29,7.81,7.81,0,0,1-1.13-1l-2.12-2.26Z"/><path d="M274.55,248.3l.84-.54.53.83a3.28,3.28,0,0,1,1.48-2.37,3.24,3.24,0,0,1,2.61-.44,3.5,3.5,0,0,1,2.2,1.57,3.43,3.43,0,0,1,.49,2.66,3.34,3.34,0,0,1-1.54,2.21,3,3,0,0,1-2.71.32l1.9,3-.84.54Zm3.29-1.24a2.53,2.53,0,0,0-.72,3.5,2.59,2.59,0,0,0,1.59,1.18,2.49,2.49,0,0,0,3-2,2.62,2.62,0,0,0-2-3A2.36,2.36,0,0,0,277.84,247.06Z"/><path d="M279.48,256.19l-.05-.08-5-7.84,1-.64.45.71a3.37,3.37,0,0,1,4.17-2.65,3.58,3.58,0,0,1,2.25,1.61,3.52,3.52,0,0,1,.5,2.73,3.42,3.42,0,0,1-1.58,2.27,3.13,3.13,0,0,1-2.55.4l1.82,2.85Zm-4.79-7.86,4.85,7.6.68-.44-2-3.12.25.08a3,3,0,0,0,2.64-.31,3.26,3.26,0,0,0,1.5-2.15,3.5,3.5,0,0,0-2.62-4.11,3.16,3.16,0,0,0-2.54.42,3.27,3.27,0,0,0-1.44,2.31l0,.24-.61-1Zm4.6,3.58a2.47,2.47,0,0,1-.6-.08,2.64,2.64,0,0,1-1.65-1.22,2.63,2.63,0,0,1,.75-3.63h0a2.5,2.5,0,0,1,2-.32,2.66,2.66,0,0,1,1.65,1.17,2.61,2.61,0,0,1,.38,2,2.45,2.45,0,0,1-1.14,1.68A2.53,2.53,0,0,1,279.29,251.91Zm-.17-5.14a2.27,2.27,0,0,0-1.23.37h0a2.43,2.43,0,0,0-.69,3.37,2.51,2.51,0,0,0,1.53,1.14,2.42,2.42,0,0,0,2.89-1.87,2.48,2.48,0,0,0-.36-1.84,2.44,2.44,0,0,0-1.54-1.09A2.54,2.54,0,0,0,279.12,246.77Z"/><path d="M247.11,260.53a5.2,5.2,0,0,1,7.13-2.31,4.84,4.84,0,0,1,2.1,5.43,4.36,4.36,0,0,1-1.29,2.06,4.88,4.88,0,0,1-2.19,1.18,5.17,5.17,0,0,1-2.37.08,4.47,4.47,0,0,1-2-1l.64-.8a3.94,3.94,0,0,0,3.44.74,3.65,3.65,0,0,0,2.3-1.69,3.5,3.5,0,0,0,.44-2.84,3.45,3.45,0,0,0-1.69-2.27,4,4,0,0,0-5.55,1.83Z"/><path d="M251.46,267.17a5.36,5.36,0,0,1-1-.1,4.76,4.76,0,0,1-2.06-1l-.07-.06.75-.95.08,0a3.81,3.81,0,0,0,3.35.72,3.58,3.58,0,0,0,2.25-1.64,3.48,3.48,0,0,0,.43-2.76,3.43,3.43,0,0,0-1.64-2.22,3.82,3.82,0,0,0-2.92-.33,3.76,3.76,0,0,0-2.5,2.12l0,.08-1.12-.48,0-.09a5.3,5.3,0,0,1,7.27-2.35,4.94,4.94,0,0,1,2.14,5.53,4.42,4.42,0,0,1-1.31,2.11,5,5,0,0,1-2.24,1.21A5.88,5.88,0,0,1,251.46,267.17ZM248.61,266a4.55,4.55,0,0,0,1.9.92,5.29,5.29,0,0,0,2.33-.08,4.85,4.85,0,0,0,2.15-1.16,4.39,4.39,0,0,0,1.26-2,4.78,4.78,0,0,0-2.06-5.32,5.11,5.11,0,0,0-7,2.18l.78.34a3.92,3.92,0,0,1,2.58-2.14,4,4,0,0,1,3.06.34,3.78,3.78,0,0,1,1.28,5.25,3.73,3.73,0,0,1-2.36,1.73,4,4,0,0,1-3.44-.7Z"/><path d="M230.76,263.7l5.86-.29a2.57,2.57,0,0,0-.83-1.73,2.22,2.22,0,0,0-1.66-.6,2.66,2.66,0,0,0-2.37,1.71l-.88-.4a4.33,4.33,0,0,1,1.28-1.65,3.39,3.39,0,0,1,1.85-.59,3.26,3.26,0,0,1,2.55.91,3.56,3.56,0,0,1,1.1,2.45,3.49,3.49,0,0,1-.87,2.55,3.26,3.26,0,0,1-2.4,1.16,3.3,3.3,0,0,1-2.49-.87A3.81,3.81,0,0,1,230.76,263.7Zm1.17.83a2.16,2.16,0,0,0,.9,1.3,2.43,2.43,0,0,0,1.52.41,2.26,2.26,0,0,0,2.19-1.93Z"/><path d="M234.19,267.32a3.35,3.35,0,0,1-2.35-.9,3.89,3.89,0,0,1-1.18-2.72v-.09l5.86-.29a2.42,2.42,0,0,0-.78-1.57,2.09,2.09,0,0,0-1.47-.57h-.12a2.59,2.59,0,0,0-2.3,1.65l0,.08-1.05-.48,0-.09a4.42,4.42,0,0,1,1.32-1.68,3.46,3.46,0,0,1,1.9-.61h.22a3.32,3.32,0,0,1,2.39.94,3.77,3.77,0,0,1,.24,5.13,3.29,3.29,0,0,1-2.46,1.19Zm-3.33-3.53a3.65,3.65,0,0,0,1.11,2.49,3.2,3.2,0,0,0,2.42.84,3.16,3.16,0,0,0,2.33-1.12,3.45,3.45,0,0,0,.84-2.49,3.38,3.38,0,0,0-1.07-2.38,3.17,3.17,0,0,0-2.26-.89H234a3.27,3.27,0,0,0-1.8.58,4,4,0,0,0-1.21,1.52l.7.32a2.73,2.73,0,0,1,2.42-1.67,2.37,2.37,0,0,1,1.73.61,2.7,2.7,0,0,1,.86,1.8v.1Zm3.34,2.55a2.58,2.58,0,0,1-1.43-.43,2.24,2.24,0,0,1-.93-1.35l0-.12h.11l4.75-.23,0,.13a2.34,2.34,0,0,1-2.28,2Zm-2.15-1.71a2.06,2.06,0,0,0,.83,1.12,2.28,2.28,0,0,0,1.46.39,2.11,2.11,0,0,0,2.07-1.73Z"/><path d="M217.37,266.25l.62-.79a.9.9,0,0,0,.39.15.88.88,0,0,0,.72-.29,2.63,2.63,0,0,0,.57-.93,10.26,10.26,0,0,0,.4-2.16l.26-2.28,1,.12-.76,6.65-1-.12.08-.72a2.59,2.59,0,0,1-.69.6,1.18,1.18,0,0,1-.74.14A1.9,1.9,0,0,1,217.37,266.25Z"/><path d="M220.69,266.82h-.1l-1.12-.13.06-.52a2.2,2.2,0,0,1-.52.4,1.27,1.27,0,0,1-.79.16,2.25,2.25,0,0,1-.91-.39l-.08-.06.74-.94.07.05a.92.92,0,0,0,.35.14h.07a.84.84,0,0,0,.58-.27,2.32,2.32,0,0,0,.54-.89,10,10,0,0,0,.4-2.14l.27-2.38h.09l1.12.13v.1Zm-1-.3.84.09.73-6.46-.83-.09-.25,2.18a10.34,10.34,0,0,1-.41,2.19,2.66,2.66,0,0,1-.59,1,1,1,0,0,1-.8.32,1,1,0,0,1-.36-.13l-.5.65a1.66,1.66,0,0,0,.73.29,1,1,0,0,0,.68-.12,2.82,2.82,0,0,0,.67-.58l.2-.24Z"/><path d="M204.57,262.83l1.28.33,1.17-4.54c0-.17,0-.28,0-.33a.87.87,0,0,0-.34-.14l-.57-.15.21-.84a5.23,5.23,0,0,1,.89.13,1.17,1.17,0,0,1,.78.49,1.28,1.28,0,0,1,0,1l-1.2,4.67,1.12.29-.22.86-1.12-.29-.63,2.44-1-.26.63-2.43-1.28-.33Z"/><path d="M206.06,266.82l-.1,0-1.07-.28,0-.09.6-2.34-1.28-.34.27-1,.09,0,1.19.3,1.15-4.45c0-.19,0-.24,0-.24h0a.85.85,0,0,0-.29-.11l-.66-.17.26-1h.08a7.81,7.81,0,0,1,.91.13,1.24,1.24,0,0,1,.83.55,1.29,1.29,0,0,1,0,1L207,263.34l1.11.29-.27,1-.09,0-1-.26Zm-.94-.44.8.21.63-2.43.09,0,1,.26.17-.67-1.12-.29,0-.09,1.2-4.68a1.12,1.12,0,0,0,0-.88,1,1,0,0,0-.71-.45,5,5,0,0,0-.79-.12l-.18.68.48.12c.28.07.36.13.39.17a.49.49,0,0,1,0,.41l-1.2,4.64-.09,0-1.19-.3-.18.67,1.29.33,0,.09Z"/><path d="M193.25,262.54a.76.76,0,0,1-.44-1,.78.78,0,0,1,1.44,0,.76.76,0,0,1,0,.59.74.74,0,0,1-.41.42A.72.72,0,0,1,193.25,262.54Zm3-8.73.95.38-2.51,6.21-.95-.38Z"/><path d="M193.53,262.7a.74.74,0,0,1-.32-.07h0a.86.86,0,0,1-.49-1.14.88.88,0,0,1,.47-.48.82.82,0,0,1,.67,0,.85.85,0,0,1,.48.47.86.86,0,0,1,0,.67.85.85,0,0,1-.46.47A.89.89,0,0,1,193.53,262.7Zm-.25-.25a.56.56,0,0,0,.52,0,.62.62,0,0,0,.37-.37.69.69,0,0,0,0-.51.66.66,0,0,0-.37-.38.7.7,0,0,0-.53,0,.65.65,0,0,0-.36.37.7.7,0,0,0,0,.53.64.64,0,0,0,.38.36Zm1.43-1.93-.09,0-1-.42,0-.09,2.55-6.29.09,0,1,.42,0,.09Zm-.87-.56.76.31,2.44-6-.77-.31Z"/><path d="M180.78,255.07a2.69,2.69,0,0,0,.68.66.43.43,0,0,0,.48,0,1.9,1.9,0,0,0,.44-.58l.31-.55L181.5,254l.44-.77,1.19.68,2.86-5.06.88.5L184,254.37l.74.41-.44.78-.73-.42-.38.66a2.07,2.07,0,0,1-.95,1,1.25,1.25,0,0,1-1.13-.15,4.26,4.26,0,0,1-.84-.69Z"/><path d="M181.87,257a1.63,1.63,0,0,1-.8-.24,4.39,4.39,0,0,1-.86-.7l-.05,0,.61-1.07.09.11a2.53,2.53,0,0,0,.65.64c.21.12.31.07.38,0a1.91,1.91,0,0,0,.41-.55l.26-.46-1.19-.67.53-.94,1.19.68,2.86-5.06,1.05.6,0,.08-2.82,5,.74.42-.53.94-.74-.42-.32.58a2.25,2.25,0,0,1-1,1A1,1,0,0,1,181.87,257Zm-1.47-1a4.71,4.71,0,0,0,.77.62,1.2,1.2,0,0,0,1.05.15,2.11,2.11,0,0,0,.9-1l.42-.74.74.42.34-.61-.74-.41.05-.09,2.81-5-.72-.41L183.16,254l-1.19-.68-.34.61,1.19.67-.36.63a1.91,1.91,0,0,1-.46.6.53.53,0,0,1-.59,0,2.82,2.82,0,0,1-.62-.58Z"/><path d="M171.07,250a.77.77,0,0,1-.31-.52.78.78,0,0,1,.67-.88.7.7,0,0,1,.57.15.69.69,0,0,1,.3.52.77.77,0,0,1-.14.57.79.79,0,0,1-.51.3A.78.78,0,0,1,171.07,250Zm5.13-7.67.82.62-4,5.34-.82-.62Z"/><path d="M171.52,250.24a.85.85,0,0,1-.51-.17h0a.91.91,0,0,1-.35-.58.86.86,0,0,1,.18-.65.81.81,0,0,1,.57-.34.85.85,0,0,1,.65.17.87.87,0,0,1,.17,1.22.81.81,0,0,1-.57.34Zm0-1.56h-.11a.65.65,0,0,0-.45.26.7.7,0,0,0-.14.52.69.69,0,0,0,.28.45h0a.63.63,0,0,0,.5.12.62.62,0,0,0,.45-.26.67.67,0,0,0,.13-.5.65.65,0,0,0-.27-.46A.64.64,0,0,0,171.55,248.68Zm1.45-.26-.07-.06-.89-.67.06-.07,4.08-5.42,1,.73-.06.07Zm-.69-.77.66.5,3.91-5.18-.66-.5Z"/><path d="M163.11,232.18a3.39,3.39,0,0,1,1.81.17,4.31,4.31,0,0,1,1.58,1,3.57,3.57,0,0,1,1.07,2.57,3.39,3.39,0,0,1-1.07,2.48,3.48,3.48,0,0,1-2.54,1,3.67,3.67,0,0,1-2.63-1.21,3.9,3.9,0,0,1-1-1.6,3.23,3.23,0,0,1,0-1.77l.91.22a2.83,2.83,0,0,0,.8,2.5,2.62,2.62,0,0,0,1.86.86,2.36,2.36,0,0,0,1.84-.7,2.58,2.58,0,0,0,.8-1.84,2.63,2.63,0,0,0-.79-1.92,2.93,2.93,0,0,0-2.49-.87Z"/><path d="M164,239.54h0a3.72,3.72,0,0,1-2.7-1.23,4,4,0,0,1-1-1.64,3.41,3.41,0,0,1,0-1.82l0-.09,1.09.26v.09a2.69,2.69,0,0,0,.77,2.41,2.58,2.58,0,0,0,1.79.84H164a2.25,2.25,0,0,0,1.64-.68,2.41,2.41,0,0,0,.77-1.77,2.48,2.48,0,0,0-.76-1.85,2.84,2.84,0,0,0-2.41-.85h-.09L163,232.1l.1,0a3.63,3.63,0,0,1,1.85.18,4.29,4.29,0,0,1,1.62,1.07,3.61,3.61,0,0,1,1.09,2.63,3.42,3.42,0,0,1-1.1,2.55A3.55,3.55,0,0,1,164,239.54Zm-3.6-4.55a3,3,0,0,0,.06,1.62,3.64,3.64,0,0,0,.93,1.56,3.55,3.55,0,0,0,2.56,1.18,3.42,3.42,0,0,0,2.47-1,3.26,3.26,0,0,0,1-2.41,3.44,3.44,0,0,0-1-2.5,4.19,4.19,0,0,0-1.54-1,3.38,3.38,0,0,0-1.67-.18l.13.75a3.1,3.1,0,0,1,2.48.91,2.69,2.69,0,0,1,.81,2,2.64,2.64,0,0,1-.83,1.9,2.46,2.46,0,0,1-1.91.73,2.77,2.77,0,0,1-1.92-.89,2.93,2.93,0,0,1-.83-2.49Z"/><path d="M154.4,218.15l.54.83-.82.54a3.3,3.3,0,0,1,2.39,1.44,3.24,3.24,0,0,1,.47,2.61,3.49,3.49,0,0,1-1.53,2.23,3.43,3.43,0,0,1-2.64.52,3.35,3.35,0,0,1-2.24-1.51,3.06,3.06,0,0,1-.36-2.71l-.85.57-.55-.84Zm1.28,3.27a2.38,2.38,0,0,0-1.58-1.06,2.51,2.51,0,0,0-1.94.39,2.59,2.59,0,0,0-1.14,1.62,2.43,2.43,0,0,0,.36,1.89,2.35,2.35,0,0,0,1.62,1.06,2.61,2.61,0,0,0,3-2A2.38,2.38,0,0,0,155.68,221.42Z"/><path d="M153.53,226.49a3.81,3.81,0,0,1-.74-.08,3.44,3.44,0,0,1-2.3-1.55,3.11,3.11,0,0,1-.44-2.54l-.72.48-.65-1,.08-.05,5.66-3.73.66,1-.7.46a3.38,3.38,0,0,1,2.69,4.12,3.69,3.69,0,0,1-3.54,2.9Zm-3.15-4.61-.08.25a3,3,0,0,0,.35,2.63,3.26,3.26,0,0,0,2.17,1.46,3.33,3.33,0,0,0,2.57-.5,3.42,3.42,0,0,0,1.5-2.17,3.21,3.21,0,0,0-2.78-3.94l-.25,0,.95-.63-.44-.67-5.43,3.58.44.67Zm3.11,3.58a2.32,2.32,0,0,1-.51-.05,2.43,2.43,0,0,1-1.68-1.1,2.48,2.48,0,0,1-.37-2,2.68,2.68,0,0,1,1.18-1.68,2.64,2.64,0,0,1,2-.41,2.48,2.48,0,0,1,1.64,1.11h0a2.43,2.43,0,0,1,.35,2A2.65,2.65,0,0,1,155,225,2.6,2.6,0,0,1,153.49,225.46Zm.09-5.06a2.61,2.61,0,0,0-2.46,2,2.3,2.3,0,0,0,.34,1.82,2.26,2.26,0,0,0,1.56,1,2.51,2.51,0,0,0,2.9-1.94,2.24,2.24,0,0,0-.31-1.82,2.35,2.35,0,0,0-1.53-1A2.92,2.92,0,0,0,153.58,220.4Z"/><path d="M143.18,208.84l.54,1.21,4.29-1.91c.15-.07.24-.14.25-.2a.68.68,0,0,0-.1-.36l-.24-.53.8-.36a5.14,5.14,0,0,1,.45.78,1.16,1.16,0,0,1,.09.91,1.24,1.24,0,0,1-.72.63l-4.4,2,.47,1.05-.81.36-.47-1-2.3,1-.42-.93,2.3-1-.54-1.22Z"/><path d="M143.75,212.52l-.47-1.06-2.3,1-.49-1.11,2.3-1-.54-1.21,1-.44.54,1.21,4.2-1.87c.18-.08.2-.13.2-.13s0-.06-.1-.3l-.28-.62,1-.43.05.07a5.82,5.82,0,0,1,.46.79,1.26,1.26,0,0,1,.09,1,1.35,1.35,0,0,1-.77.68L144.26,211l.47,1.05Zm-.37-1.31.47,1.06.63-.29-.47-1,.09,0,4.4-2a1.21,1.21,0,0,0,.68-.57,1.17,1.17,0,0,0-.09-.84,6.27,6.27,0,0,0-.41-.7l-.63.28.2.45c.12.27.12.37.11.42s-.12.18-.32.26l-4.37,1.95,0-.08-.5-1.13-.63.28.54,1.22-2.3,1,.34.76Z"/><path d="M136.36,199.8a.7.7,0,0,1,.06-.6.71.71,0,0,1,.46-.37.78.78,0,0,1,.44,1.49.77.77,0,0,1-.59-.06A.71.71,0,0,1,136.36,199.8Zm8.68-3.11.29,1-6.42,1.9-.29-1Z"/><path d="M137.11,200.45a.91.91,0,0,1-.42-.11.84.84,0,0,1-.43-.51h0a.86.86,0,0,1,.07-.67.89.89,0,0,1,.52-.43.86.86,0,0,1,.67.07.85.85,0,0,1,.42.53.84.84,0,0,1-.07.66.83.83,0,0,1-.52.42A.67.67,0,0,1,137.11,200.45Zm-.66-.67a.65.65,0,0,0,.33.4.72.72,0,0,0,.52,0,.7.7,0,0,0,.46-.85.64.64,0,0,0-.33-.41.63.63,0,0,0-.52-.05.62.62,0,0,0-.41.33.65.65,0,0,0-.05.53Zm2.4-.09-.34-1.16.09,0,6.51-1.92.34,1.15-.09,0Zm-.11-1,.24.79,6.23-1.84-.23-.8Z"/><path d="M135.56,184.86a3.29,3.29,0,0,1,.7-2.58,3.5,3.5,0,0,1,2.35-1.34,3.46,3.46,0,0,1,2.61.66,3.48,3.48,0,0,1,.66,4.92,3.5,3.5,0,0,1-2.34,1.33,3.46,3.46,0,0,1-2.62-.68A3.27,3.27,0,0,1,135.56,184.86Zm6.06-.81a2.35,2.35,0,0,0-1-1.63,2.53,2.53,0,0,0-1.87-.47,2.62,2.62,0,0,0-1.71,1,2.34,2.34,0,0,0-.53,1.81,2.29,2.29,0,0,0,1,1.61,2.6,2.6,0,0,0,1.91.48,2.52,2.52,0,0,0,1.68-.93A2.32,2.32,0,0,0,141.62,184.05Z"/><path d="M139,188a3.58,3.58,0,0,1-2.16-.73,3.4,3.4,0,0,1-1.4-2.38h0a3.43,3.43,0,0,1,.73-2.65,3.71,3.71,0,0,1,5.09-.69,3.59,3.59,0,0,1,.68,5.05,3.57,3.57,0,0,1-2.41,1.36A3.23,3.23,0,0,1,139,188Zm.11-7a3.08,3.08,0,0,0-.51,0,3.36,3.36,0,0,0-2.28,1.3,3.25,3.25,0,0,0-.69,2.51h0A3.25,3.25,0,0,0,137,187.1a3.33,3.33,0,0,0,2,.69,2.74,2.74,0,0,0,.5,0,3.38,3.38,0,0,0,2.29-1.29,3.27,3.27,0,0,0,.67-2.53,3.16,3.16,0,0,0-1.31-2.25A3.4,3.4,0,0,0,139.13,181Zm-.07,5.94a2.62,2.62,0,0,1-1.58-.52,2.37,2.37,0,0,1-1-1.67,2.4,2.4,0,0,1,.55-1.89,2.7,2.7,0,0,1,1.77-1,2.66,2.66,0,0,1,1.94.5,2.42,2.42,0,0,1,1,1.69h0a2.38,2.38,0,0,1-.52,1.91,2.64,2.64,0,0,1-1.74,1Zm.09-4.92a2.19,2.19,0,0,0-.36,0,2.46,2.46,0,0,0-1.64.92,2.25,2.25,0,0,0-.51,1.75,2.13,2.13,0,0,0,1,1.54,2.43,2.43,0,0,0,1.84.46,2.38,2.38,0,0,0,1.61-.89,2.19,2.19,0,0,0,.48-1.77h0a2.2,2.2,0,0,0-.93-1.56A2.35,2.35,0,0,0,139.15,182Z"/><path d="M141.85,165l0,1-3.19-.16a6.6,6.6,0,0,0-1.51,0,2,2,0,0,0-.69.27,1.17,1.17,0,0,0-.43.5,2,2,0,0,0-.18.75,2,2,0,0,0,.18.89,2.12,2.12,0,0,0,.57.76,2.35,2.35,0,0,0,.82.47,9,9,0,0,0,1.76.21l2.48.12-.05,1-6.69-.34,0-1,1,0a3,3,0,0,1-1.06-2.41,2.41,2.41,0,0,1,.44-1.3,2.38,2.38,0,0,1,1.07-.83,5.46,5.46,0,0,1,2-.19Z"/><path d="M141.65,171l-6.88-.35.06-1.21.85,0a3,3,0,0,1-.91-2.3,2.54,2.54,0,0,1,.46-1.35,2.49,2.49,0,0,1,1.12-.87,5.82,5.82,0,0,1,2.07-.2l3.53.18-.06,1.2-3.29-.16a7.2,7.2,0,0,0-1.48,0,2,2,0,0,0-.66.26,1.12,1.12,0,0,0-.4.46,1.81,1.81,0,0,0-.16.71,1.71,1.71,0,0,0,.17.85,2,2,0,0,0,.55.73,2.29,2.29,0,0,0,.78.45,8.1,8.1,0,0,0,1.73.2l2.58.13Zm-6.68-.53,6.49.33,0-.83-2.39-.12a7.77,7.77,0,0,1-1.78-.21,2.38,2.38,0,0,1-.85-.49,2.31,2.31,0,0,1-.6-.79,2,2,0,0,1-.18-.94,1.88,1.88,0,0,1,.18-.79,1.34,1.34,0,0,1,.47-.53,2.26,2.26,0,0,1,.72-.29,6.85,6.85,0,0,1,1.53,0l3.1.16,0-.82-3.34-.16a5,5,0,0,0-2,.18,2.23,2.23,0,0,0-1,.8,2.26,2.26,0,0,0-.42,1.25,2.9,2.9,0,0,0,1,2.33l.19.18-1.17-.06Z"/><path d="M147.78,139.8,146.26,144l-8.45-3.06.36-1,7.49,2.72,1.16-3.19Z"/><path d="M146.32,144.12l-.1,0L137.68,141l.43-1.19.09,0,7.41,2.69,1.15-3.19,1.14.41Zm-8.39-3.25,8.27,3,1.45-4-.77-.28-1.16,3.18-.09,0-7.4-2.68Z"/><path d="M148.12,125.74l-.64,1.17,4.13,2.23c.15.08.25.11.31.09a.85.85,0,0,0,.22-.3l.28-.52.77.42a5.44,5.44,0,0,1-.34.83,1.15,1.15,0,0,1-.67.63,1.24,1.24,0,0,1-.94-.19L147,127.8l-.55,1-.78-.42.55-1-2.21-1.2.48-.9,2.22,1.2.63-1.17Z"/><path d="M152,130.42a1.68,1.68,0,0,1-.77-.23L147,127.93l-.56,1-.94-.51.55-1-2.21-1.2,0-.08.54-1,.08,0,2.13,1.15.63-1.17.95.52-.64,1.17,4,2.19c.18.09.23.08.23.08s.06,0,.18-.26l.33-.59.91.49,0,.08a6.37,6.37,0,0,1-.35.85,1.23,1.23,0,0,1-.73.67A.67.67,0,0,1,152,130.42Zm-5-2.75.08,0,4.24,2.31a1.2,1.2,0,0,0,.87.18,1.09,1.09,0,0,0,.61-.58,5.21,5.21,0,0,0,.31-.75l-.61-.33-.23.43c-.14.26-.22.32-.27.35a.53.53,0,0,1-.4-.09l-4.2-2.29.63-1.16-.61-.34-.63,1.17-.09,0-2.13-1.15-.39.73,2.21,1.2,0,.08-.5.93.61.33Z"/><path d="M162.35,115.36l-.61.78-.77-.6a3.33,3.33,0,0,1-.61,2.73,3.27,3.27,0,0,1-2.32,1.28,3.6,3.6,0,0,1-3.94-3.09,3.35,3.35,0,0,1,.71-2.6,3.12,3.12,0,0,1,2.46-1.21l-2.79-2.18.61-.78Zm-2.68,2.26a2.47,2.47,0,0,0,.49-1.81,2.42,2.42,0,0,0-1-1.73,2.57,2.57,0,0,0-1.89-.58,2.34,2.34,0,0,0-1.69.94,2.41,2.41,0,0,0-.5,1.89,2.62,2.62,0,0,0,2.87,2.21A2.38,2.38,0,0,0,159.67,117.62Z"/><path d="M157.63,119.66a3.7,3.7,0,0,1-3.62-3.19,3.44,3.44,0,0,1,.73-2.67,3.15,3.15,0,0,1,2.27-1.23l-2.66-2.08.72-.94.08.06,7.34,5.73-.73.94-.66-.52a3.39,3.39,0,0,1-3,3.88A3,3,0,0,1,157.63,119.66Zm-3-9.2,2.92,2.28h-.26a3,3,0,0,0-2.38,1.17,3.23,3.23,0,0,0-.69,2.52,3.49,3.49,0,0,0,3.83,3,3.15,3.15,0,0,0,2.26-1.24,3.27,3.27,0,0,0,.58-2.66l0-.24.89.7.5-.64-7.11-5.55Zm3.06,8.19a2.6,2.6,0,0,1-1.64-.57,2.66,2.66,0,0,1-1-1.74,2.6,2.6,0,0,1,2.27-2.94,2.66,2.66,0,0,1,2,.61,2.52,2.52,0,0,1,1,1.79,2.55,2.55,0,0,1-.51,1.88,2.45,2.45,0,0,1-1.76.95A1.67,1.67,0,0,1,157.67,118.65Zm-.13-5.07h-.25a2.4,2.4,0,0,0-2.09,2.72,2.45,2.45,0,0,0,1,1.62,2.48,2.48,0,0,0,1.81.52,2.29,2.29,0,0,0,1.63-.89h0a2.33,2.33,0,0,0,.48-1.74,2.31,2.31,0,0,0-.95-1.66A2.49,2.49,0,0,0,157.54,113.58Z"/><path d="M169.06,107.42a.7.7,0,0,1-.19-.53.69.69,0,0,1,.24-.51.72.72,0,0,1,1,.05.71.71,0,0,1,.2.53.76.76,0,0,1-.23.51.75.75,0,0,1-.54.19A.73.73,0,0,1,169.06,107.42Z"/><path d="M229.76,141.3a31,31,0,1,0,31,31A31,31,0,0,0,229.76,141.3Zm10.9,30.77a55,55,0,0,0-1.39-12.31,37.76,37.76,0,0,0,5.73-2,28,28,0,0,1,4.16,14.31Zm-10.45,28.67-.45,0c-.21,0-.41,0-.62,0l-.26-.14a36.31,36.31,0,0,1-7.34-14.33,36.3,36.3,0,0,1,8.22-.95,36.73,36.73,0,0,1,8.08.92,36.4,36.4,0,0,1-7.35,14.36Zm-.45-16.94a38,38,0,0,0-8.61,1,53.07,53.07,0,0,1-1.42-12.09h19.91a52.86,52.86,0,0,1-1.42,12.06A37.77,37.77,0,0,0,229.76,183.8Zm-10-11.73a52.59,52.59,0,0,1,1.4-12.09,37.78,37.78,0,0,0,17.14,0,52.39,52.39,0,0,1,1.38,12.06Zm9.7-28.24h.52l.59.33a35.77,35.77,0,0,1,7.36,14.38,36.65,36.65,0,0,1-8.13.93,36.24,36.24,0,0,1-8.27-1,35.83,35.83,0,0,1,7.35-14.35Zm9.48,14.45a38,38,0,0,0-5.77-12.54,40.12,40.12,0,0,1,11,10.73A35.61,35.61,0,0,1,238.9,158.28Zm-18.42,0a36.14,36.14,0,0,1-5.24-1.83,40.51,40.51,0,0,1,11-10.66A38.12,38.12,0,0,0,220.48,158.24Zm-.37,1.47a54.74,54.74,0,0,0-1.4,12.36H210.2a28,28,0,0,1,4.21-14.37A36.41,36.41,0,0,0,220.11,159.71Zm-11.93,12.36H201.3A28.32,28.32,0,0,1,208,154a39.44,39.44,0,0,0,4.62,2.83A29.78,29.78,0,0,0,208.18,172.07Zm0,.63A29.61,29.61,0,0,0,212.54,188a38.17,38.17,0,0,0-4.47,2.73,28.3,28.3,0,0,1-6.76-18Zm2,0h8.52A54.61,54.61,0,0,0,220.14,185a37,37,0,0,0-5.77,2A27.73,27.73,0,0,1,210.2,172.7Zm10.32,13.81a38.55,38.55,0,0,0,5.81,12.55,39.73,39.73,0,0,1-11.14-10.69A36.18,36.18,0,0,1,220.52,186.51Zm18.34,0a34.84,34.84,0,0,1,5.35,1.84A39.79,39.79,0,0,1,233,199.05,38.43,38.43,0,0,0,238.86,186.47Zm.37-1.47a54.31,54.31,0,0,0,1.42-12.3h8.52A27.58,27.58,0,0,1,245,187,37.18,37.18,0,0,0,239.23,185Zm12-12.3h7a28.3,28.3,0,0,1-6.76,18,38.08,38.08,0,0,0-4.6-2.79A29.72,29.72,0,0,0,251.2,172.7Zm0-.63a29.87,29.87,0,0,0-4.36-15.16,38.47,38.47,0,0,0,4.74-2.89,28.36,28.36,0,0,1,6.66,18Zm-.65-19.19a36.68,36.68,0,0,1-4.52,2.73,42.1,42.1,0,0,0-11.5-11.36A28.38,28.38,0,0,1,250.54,152.88Zm-25.74-8.6a42.19,42.19,0,0,0-11.42,11.27,36.76,36.76,0,0,1-4.4-2.66A28.39,28.39,0,0,1,224.8,144.28Zm-15.7,47.54a35.57,35.57,0,0,1,4.25-2.57,41.53,41.53,0,0,0,11.13,11A28.4,28.4,0,0,1,209.1,191.82Zm25.74,8.46a41.44,41.44,0,0,0,11.21-11.09,34.33,34.33,0,0,1,4.38,2.63A28.42,28.42,0,0,1,234.84,200.28Z"/></svg>