<svg id="圖層_1" data-name="圖層 1" xmlns="http://www.w3.org/2000/svg" viewBox="0 0 56.69 56.69"><defs><style>.cls-1{fill:#fff;}</style></defs><title>履歷logo</title><path class="cls-1" d="M9.63,12.48,26.1,5.67a5.68,5.68,0,0,1,4.34,0l16.62,6.9a2.84,2.84,0,0,1,0,5.24L30.57,24.6a5.7,5.7,0,0,1-4.33,0L9.63,17.72A2.84,2.84,0,0,1,9.63,12.48Z"/><path class="cls-1" d="M45.3,51l-10.67-4.5V37.31l-5.45-2a2.87,2.87,0,0,0-2,0l-5.06,2v9.58L11.25,51.24a2.83,2.83,0,0,1-3.89-2.63V26a2.83,2.83,0,0,1,3.91-2.62l15.07,6.19a5.67,5.67,0,0,0,4.32,0l14.76-6.09a2.84,2.84,0,0,1,3.92,2.63l-.11,22.31A2.83,2.83,0,0,1,45.3,51Z"/></svg>