<svg id="圖層_1" data-name="圖層 1" xmlns="http://www.w3.org/2000/svg" viewBox="0 0 462 452"><title>履歷作品icon設計</title><path d="M102.05,207.3a83.94,83.94,0,0,1-7.2,14.12l-5.55-2.88a75,75,0,0,0,7.28-13.83Zm12.82-49.18v45.15H92.11V158.12Zm-6.7,13v-6.91H98.81v6.91Zm0,13V176.7H98.81v7.35Zm0,5.68H98.81v7.49h9.36Zm9.36,27.08-5,3.53a96.86,96.86,0,0,0-7.56-12.68l5-3.09A97.32,97.32,0,0,1,117.53,216.81Zm20.38-61v12.53h18.22v6.41H137.91v12.6h14.9V222.5h-6.55V219h-21v3.53h-6.48V187.36h12.39V155.82Zm8.35,56.81v-19h-21v19Z"/><path d="M225.17,222.35h-6.26v-2.66H171.24v2.88H165V158.34h60.19Zm-6.26-8.21v-50H171.24v50Zm-8.43-47.09V178.5H197.74l-.87,2.81h19.66v4.61H173.69v-4.61h17.14l.86-2.81H179.74V167.05Zm3.1,21.32v23H176.71v-23Zm-5.69,4H182.4v14.83h25.49ZM204.65,171H185.57v3.68h19.08Zm-.57,24.05v9.51H186.15v-9.51Zm-4.76,2.88H191v3.68h8.35Z"/><path d="M245.47,164.53a55.38,55.38,0,0,0-3.6-7.13l6.48-1.8a77.65,77.65,0,0,1,3.75,8.93h9.5v6.2H234.31v-6.2Zm13.83,52.28a60.94,60.94,0,0,0,17.06-8.57,38,38,0,0,1-8.64-15.55h-4.1v-6.63h31.61v6.27a40.22,40.22,0,0,1-9.07,16.34,65.9,65.9,0,0,0,14.76,8.14l-3.67,5.9a70.21,70.21,0,0,1-15.85-9.65,61.4,61.4,0,0,1-18.65,9.58l-3.45-5.33V218H242.81v3.24H236.4V196.07h22.9Zm-.58-41.55v5.91H237v-5.91Zm0,9.94v6H237.05v-6ZM253,211.91V202H242.81v9.93Zm38.38-53.71v15.12c0,1.58.94,2.45,2.88,2.45h4.54V182h-6.41c-5.26,0-7.85-2.45-7.85-7.2V164.6h-9.5V167c0,7.35-3.39,13-10.08,17l-4.54-5c5.18-2.67,7.85-6.41,7.85-11.31v-9.5ZM281,204.06a37.6,37.6,0,0,0,7.49-11.37H274.2A31.16,31.16,0,0,0,281,204.06Z"/><path d="M317.11,164.46a58.85,58.85,0,0,0-3.53-7.06l6.56-1.8a81.15,81.15,0,0,1,3.6,8.86h9.57v6.34H305.66v-6.34Zm-2.45,57.75h-6.55V195.85h22.76V221.2h-6.56v-3h-9.65Zm15.77-47v6h-22v-6Zm0,10v6.05h-22V185.2Zm-6.12,16.92h-9.65v9.79h9.65ZM356.21,156v23h15.92v6.62H356.21v36.58h-6.7V185.63H334.39V179h15.12V156Z"/><path d="M78.28,369.94v0c0-10.57,6-17.27,15.49-17.27,7.78,0,12.45,4.48,14,10.45l.12.45h-4.43l-.1-.26a9.6,9.6,0,0,0-9.61-6.75c-7,0-11.18,5-11.18,13.38v0c0,8.51,4.29,13.76,11.18,13.76,6,0,10.13-3.9,10.13-9.57v-.61H94.36v-3.7h13.76V373c0,9.14-5.32,14.56-14.35,14.56C84.33,387.59,78.28,380.72,78.28,369.94Z"/><path d="M112.88,362.65h3.84v3.94h.09a6,6,0,0,1,5.91-4.41,11.64,11.64,0,0,1,1.64.16v4a8.63,8.63,0,0,0-2.18-.23c-3.16,0-5.23,2.27-5.23,5.72V387h-4.07Z"/><path d="M126.21,380.13v0c0-4.15,3.24-6.75,8.84-7.08l7-.4v-2c0-3-1.94-4.78-5.34-4.78-3.14,0-5.11,1.5-5.58,3.68l-.05.21h-3.93l0-.26c.35-4,3.84-7.24,9.58-7.24s9.38,3.12,9.38,8V387H142v-4h-.09a8.62,8.62,0,0,1-7.62,4.43C129.47,387.49,126.21,384.56,126.21,380.13Zm9,3.82c3.85,0,6.8-2.65,6.8-6.18v-2l-6.51.4c-3.26.19-5.14,1.64-5.14,3.92v0C130.38,382.48,132.3,384,135.23,384Z"/><path d="M151.29,362.65h4.08v4.12h.09a8.48,8.48,0,0,1,7.74-4.59c6.23,0,10.35,5,10.35,12.66v0c0,7.69-4.17,12.63-10.28,12.63a8.64,8.64,0,0,1-7.81-4.54h-.09v12.28h-4.08Zm18.09,12.21v0c0-5.61-2.67-9-7-9-4.13,0-7.06,3.59-7.06,9v0c0,5.44,3,9,7.06,9C166.71,383.88,169.38,380.41,169.38,374.86Z"/><path d="M177.87,353.2H182v13.34H182c1.31-2.74,4-4.36,7.59-4.36,5.18,0,8.72,4,8.72,9.91V387h-4.08V372.8c0-4.41-2.25-7-6-7s-6.28,2.86-6.28,7V387h-4.08Z"/><path d="M203.27,356a2.56,2.56,0,1,1,2.56,2.55A2.55,2.55,0,0,1,203.27,356Zm.52,6.68h4.08V387h-4.08Z"/><path d="M212.23,374.81v0c0-7.69,4.47-12.61,11.25-12.61,6.07,0,9.65,4,10.17,8.2l0,.19h-4l-.05-.19a6,6,0,0,0-6.16-4.59c-4.25,0-7.08,3.51-7.08,9v0c0,5.67,2.9,9,7.12,9a5.9,5.9,0,0,0,6.14-4.59l.05-.19h4l0,.17c-.66,4.64-4.67,8.22-10.18,8.22C216.61,387.49,212.23,382.57,212.23,374.81Z"/><path d="M248,353.2h11.36c10,0,16,6.24,16,16.85v.05c0,10.67-5.9,16.92-16,16.92H248Zm11.08,30c7.67,0,11.93-4.69,11.93-13.08v0c0-8.44-4.26-13.1-11.93-13.1h-6.87v26.23Z"/><path d="M278.7,374.93v0c0-7.55,4.31-12.73,11-12.73s10.72,4.94,10.72,12.26v1.5H282.82c.09,5,2.86,7.94,7.2,7.94,3.09,0,5.27-1.54,6-3.63l.07-.21h4l-.05.23c-.79,4-4.78,7.22-10.1,7.22C282.91,387.49,278.7,382.59,278.7,374.93Zm4.19-2.18h13.34c-.4-4.73-3-7-6.59-7S283.34,368.2,282.89,372.75Z"/><path d="M303.42,380.2l0-.21h4.08l0,.24c.5,2.43,2.3,3.86,5.63,3.86s5.27-1.38,5.27-3.58v0c0-1.75-.91-2.74-3.68-3.42l-3.86-.94c-4.6-1.1-6.83-3.23-6.83-6.74v0c0-4.19,3.68-7.17,9-7.17s8.74,3.12,9,7.2l0,.3h-3.89l0-.16c-.32-2.37-2.13-3.94-5.15-3.94s-4.78,1.43-4.78,3.58v0c0,1.66,1.1,2.81,3.79,3.47l3.87.93c4.92,1.2,6.7,3.14,6.7,6.61v0c0,4.26-4,7.26-9.46,7.26C307.38,387.49,303.91,384.56,303.42,380.2Z"/><path d="M326.55,356a2.56,2.56,0,1,1,2.56,2.55A2.55,2.55,0,0,1,326.55,356Zm.52,6.68h4.08V387h-4.08Z"/><path d="M336.4,389.25l0-.21h4.1l.1.21c.77,1.76,3.09,2.84,6.42,2.84,4.29,0,6.73-2.37,6.73-6.14v-3.12h-.1a8.56,8.56,0,0,1-7.76,4.43c-6.14,0-10.33-4.95-10.33-12.56v0c0-7.57,4.24-12.49,10.43-12.49a8.6,8.6,0,0,1,7.66,4.59h.1v-4.12h4.07v23.69c0,5.65-4.14,9.36-10.75,9.36C341,395.7,337.2,392.86,336.4,389.25Zm17.3-14.55v0c0-5.37-2.84-8.88-7-8.88-4.33,0-7.05,3.47-7.05,8.88v0c0,5.53,2.72,8.95,7.05,8.95C350.88,383.65,353.7,380.11,353.7,374.7Z"/><path d="M363.05,362.65h4.08v3.47h.09c1.31-2.28,3.8-3.94,7.5-3.94,5.34,0,8.44,3.47,8.44,9V387h-4.08V371.93c0-4-1.85-6.14-5.6-6.14s-6.35,2.74-6.35,6.89V387h-4.08Z"/></svg>