<svg xmlns="http://www.w3.org/2000/svg" width="267.152" height="190.659" viewBox="0 0 267.152 190.659"  style="enable-background:new 0 0 229.2 69.6;" xml:space="preserve">
  <defs>
    <style>
      <!-- .cls-1 {
        fill: #662d91;
      } -->
    </style>
  </defs>
  <g id="组_433" data-name="组 433" transform="translate(-830 -400.633)">
    <path id="logo" class="cls-1" d="M826.3,328.438l14.666,20.851-13.154,18.786-20.625-29.127a5.684,5.684,0,0,0-9.3.028l-23.156,33.148a28.424,28.424,0,0,1-46.6-.007L668.848,287.2h10.764a28.424,28.424,0,0,1,23.308,12.16l43.937,62.966a5.683,5.683,0,0,0,9.322,0l23.565-33.79A28.423,28.423,0,0,1,826.3,328.438ZM936,287.2H925.384a28.426,28.426,0,0,0-23.247,12.075L883.248,326.14,896,344.3ZM802.307,441.279l.007,0L789.45,459.557l12.992,18.3L866.669,386,853.882,367.74Z" transform="translate(161.152 113.436)"/>
  </g>
</svg>
