<svg xmlns="http://www.w3.org/2000/svg" viewBox="0 0 75.8 54.09">
<defs><style>.cls-1{fill:#fff;}</style></defs><g id="圖層_2" data-name="圖層 2"><g id="圖層_1-2" data-name="圖層 1"><path class="cls-1" d="M44.67,11.7l4.17,5.92L45.1,23l-5.85-8.27a1.62,1.62,0,0,0-2.64,0L30,24.1a8.06,8.06,0,0,1-13.22,0L0,0H3.05A8.08,8.08,0,0,1,9.67,3.45L22.13,21.31a1.62,1.62,0,0,0,2.65,0l6.68-9.58A8.06,8.06,0,0,1,44.67,11.7ZM75.8,0h-3a8.06,8.06,0,0,0-6.6,3.43l-5.36,7.62,3.62,5.15ZM37.87,43.72h0L34.22,48.9l3.68,5.19L56.13,28,52.5,22.85Z"/></g></g></svg>