<svg id="圖層_1" data-name="圖層 1" xmlns="http://www.w3.org/2000/svg" viewBox="0 0 462 452"><defs><style>.cls-1,.cls-5{fill:#6a3906;}.cls-1,.cls-2,.cls-3{fill-rule:evenodd;}.cls-2,.cls-7{fill:#fff;}.cls-2,.cls-3,.cls-6,.cls-7{stroke:#fff;stroke-width:0.72px;}.cls-4{fill:none;}</style></defs><title>履歷作品icon設計</title><path d="M110.89,354.54h4.41l6.82,27.77h.09l7.67-27.77h4.26l7.67,27.77h.09l6.82-27.77h4.41l-9.21,33.82h-4l-7.87-27.09H132l-7.87,27.09h-4Z"/><path d="M153.06,376.27v0c0-7.54,4.31-12.72,11-12.72s10.71,4.94,10.71,12.26v1.5H157.18c.1,5,2.86,7.94,7.2,7.94,3.09,0,5.27-1.55,6-3.63l.07-.21h4l0,.23c-.8,4-4.78,7.22-10.1,7.22C157.28,388.83,153.06,383.93,153.06,376.27Zm4.19-2.18h13.34c-.4-4.74-3-7-6.59-7S157.7,369.54,157.25,374.09Z"/><path d="M183.22,384.24h-.09v4.12h-4.08V354.54h4.08v13.52h.09a8.65,8.65,0,0,1,7.81-4.54c6.11,0,10.29,4.94,10.29,12.63v0c0,7.69-4.13,12.66-10.36,12.66A8.49,8.49,0,0,1,183.22,384.24Zm13.92-8.07v0c0-5.55-2.67-9-7-9-4.1,0-7,3.58-7,9v0c0,5.46,2.93,9.05,7,9.05C194.47,385.22,197.14,381.78,197.14,376.17Z"/><path d="M215.89,354.54h11.37c10,0,16,6.24,16,16.85v.05c0,10.66-5.9,16.92-16,16.92H215.89Zm11.09,30c7.66,0,11.93-4.68,11.93-13.07v-.05c0-8.44-4.27-13.1-11.93-13.1h-6.87v26.22Z"/><path d="M246.64,376.27v0c0-7.54,4.32-12.72,11-12.72s10.71,4.94,10.71,12.26v1.5H250.77c.09,5,2.86,7.94,7.19,7.94,3.1,0,5.28-1.55,6-3.63l.07-.21h4l0,.23c-.79,4-4.78,7.22-10.1,7.22C250.86,388.83,246.64,383.93,246.64,376.27Zm4.2-2.18h13.34c-.4-4.74-3-7-6.59-7S251.29,369.54,250.84,374.09Z"/><path d="M271.37,381.54l0-.21h4.08l0,.23c.49,2.44,2.3,3.87,5.63,3.87s5.27-1.38,5.27-3.58v0c0-1.76-.91-2.74-3.68-3.42l-3.87-.94c-4.59-1.1-6.82-3.23-6.82-6.75v0c0-4.2,3.68-7.17,9-7.17s8.74,3.11,9,7.19l0,.31h-3.89l0-.17c-.32-2.36-2.13-3.93-5.15-3.93s-4.78,1.43-4.78,3.58v0c0,1.66,1.1,2.81,3.79,3.46l3.87.94c4.92,1.2,6.7,3.14,6.7,6.61v0c0,4.27-4,7.27-9.47,7.27C275.33,388.83,271.86,385.9,271.37,381.54Z"/><path d="M294.5,357.31a2.56,2.56,0,1,1,2.56,2.55A2.55,2.55,0,0,1,294.5,357.31ZM295,364h4.08v24.37H295Z"/><path d="M304.35,390.59l-.05-.21h4.1l.1.21c.77,1.76,3.09,2.83,6.42,2.83,4.29,0,6.72-2.36,6.72-6.14v-3.11h-.09a8.56,8.56,0,0,1-7.76,4.43c-6.14,0-10.33-5-10.33-12.57v0c0-7.57,4.24-12.49,10.43-12.49a8.6,8.6,0,0,1,7.66,4.59h.09V364h4.08v23.69c0,5.65-4.15,9.35-10.76,9.35C308.94,397,305.14,394.2,304.35,390.59ZM321.64,376v0c0-5.37-2.83-8.88-7-8.88-4.33,0-7.05,3.47-7.05,8.88v0c0,5.53,2.72,9,7.05,9C318.83,385,321.64,381.45,321.64,376Z"/><path d="M331,364h4.07v3.47h.1c1.31-2.28,3.79-3.94,7.5-3.94,5.34,0,8.44,3.47,8.44,9v15.82H347V373.27c0-4-1.85-6.14-5.6-6.14s-6.36,2.74-6.36,6.89v14.34H331Z"/><path class="cls-1" d="M162.85,172c.2,1.46.16,3.16.34,4.64-.54.88-1.14.57-1.37,1.54-.46,1.87,1.5,3.56,1.88,5-6.09-6.22-9.58-15.39-12.53-25.23-.89-3-1.74-6.11-2.4-9.28a54.15,54.15,0,0,1-1.38-12A17,17,0,0,0,146,129.8c-.53-1.2-1.39-2.09-1.89-3.09a29.16,29.16,0,0,1-2.57-12.19c0-9,4.13-16.36,8.92-21.8s10.13-9.35,17.69-13c4.55,1.58,7.55-2.65,10.64-2.92,1.47-.13,2.58.3,2.75,1.2.23,1.24-1.62,2.57-2.75,3.61-3.26,3-6.88,6-10,8.75a30.36,30.36,0,0,0-7.55,11.16,21.71,21.71,0,0,0-1.54,4.64,29.37,29.37,0,0,0,.68,8.93c.44,2.48,1.45,5,1.72,7.89.49,5.33-1.33,10.65-2.92,15.45a66,66,0,0,0-1.89,7.39,71.76,71.76,0,0,0-1.54,7.55,35.84,35.84,0,0,0,.86,11.33c.44,2,2.65,4.83,4.29,6.35A3,3,0,0,0,162.85,172Z"/><path class="cls-1" d="M239.42,91.17c4.54,9.2,5.43,22.06,6,35.2a46.2,46.2,0,0,1,0,7.89,6.54,6.54,0,0,1-3.26.35c-.44.33-.09.37-.51.68a8.55,8.55,0,0,1-1,.52c-1.48.45-3.46-.44-3.44,1.37a83.12,83.12,0,0,0-12.53-20.94c-4.92-6.08-10.45-11.91-17.68-15.63-2.36,1.77-5,3.27-6.87,5.5,8.1,2.89,14.37,8.19,19.92,13.73a176,176,0,0,1,15.79,17.69c-1.38,0-1.65,1.25-2.4,2.06-.2.21-.65.16-.86.34-.85.73-1.58,2.16-2.58,2.92-13.52-4.34-26.68-9-42.92-10.65-.15-.61,1.2-1,1.89-1.37,1.05-4.37,5.3-6.55,4.64-12.88a3.29,3.29,0,0,0-.52-1.71c.06-.88,1-.74,1-1.2-.75-3.83.76-5.33,2.92-7.73a28.12,28.12,0,0,1,8.07-6.35,17.44,17.44,0,0,1,5.15-2.06,5.32,5.32,0,0,1,3.78,1.2c1.61,1.32,2.54,3.61,4.12,5.49,1.87,1,3.1,2.16,6.18,1.89.71-.06,1.33-.39,2.06-.51,1.56-.26,3-.15,4.46-.52a13.37,13.37,0,0,0,5.5-2.57C238.85,101.45,240.42,95.86,239.42,91.17Z"/><path class="cls-2" d="M301.39,100.79c.07-.43.67,0,.52.34C301.68,101.07,301.64,100.83,301.39,100.79Z"/><path class="cls-2" d="M312.89,112c.37-.57.5.51,1,.34C313.57,112.85,313.2,112,312.89,112Z"/><path class="cls-3" d="M141.21,121.56c.56,0,.37.78.52,1.2A1.59,1.59,0,0,1,141.21,121.56Z"/><path class="cls-1" d="M262.59,147.83c-7.33.48-14,.74-19.74,2.4s-9.77,5.17-13.74,8.41c-3.49-11.37,4.89-21.4,15.28-22.32a28.31,28.31,0,0,1,4.12,0C255.48,136.82,261.16,141,262.59,147.83Z"/><path class="cls-3" d="M125.08,156.41c.48.09.31.83.51,1.2C125.19,157.44,125,157,125.08,156.41Z"/><path class="cls-3" d="M162.85,162.42c.5.24-.31.59-.18,1C162.18,163.21,162.72,162.6,162.85,162.42Z"/><path class="cls-1" d="M281.65,187.83c-7.56-.22-15.14-.43-22.66-.69.5-3,.5-6.59,1.2-9.44,2.46.11,4.71-.07,6.87-.17a17.53,17.53,0,0,1,4.8,0c.86.23,1.7,1.65,2.58,2.57C277,182.76,279.85,185.29,281.65,187.83Z"/><path class="cls-1" d="M258.47,177.87c-.86,3.08-1.5,6.4-2.57,9.27-6.66-.38-13.65-.43-20.43-.69-.64,0,.26-.75.51-1,2.16-2.3,5.34-4.85,7.56-7.21C248.5,178.09,253.36,177.85,258.47,177.87Z"/><path class="cls-1" d="M241.65,178.21c-2.9,2.89-6.19,5.38-9.27,8.07-6.5,0-12.74-.31-19.06-.51,3.31-1.8,7.29-3.68,11-5.5a19.69,19.69,0,0,1,3.77-1.71c1.47-.28,3.17.07,4.81,0C235.81,178.43,238.81,178.33,241.65,178.21Z"/><path class="cls-1" d="M225.17,178.73c-5,2.53-10.48,4.51-15.63,6.87-8-.1-15.79-.35-23.52-.69,6.18-1.5,12.4-3,18.72-4.46a59.86,59.86,0,0,1,6.18-1.38C215.52,178.56,220.07,179.17,225.17,178.73Z"/><path class="cls-2" d="M330.92,182.85c.07-.33.22.11.17.34S330.87,183.08,330.92,182.85Z"/><path class="cls-1" d="M174.35,185.94a23.2,23.2,0,0,1-5.32,1.2c0-.48-.32-.71-.35-1.2C170.42,185.43,172.45,186.05,174.35,185.94Z"/><path class="cls-1" d="M205.94,187c-6.66,3-13.78,6.1-20.78,9.1a17.65,17.65,0,0,1-2.91,1.2c-2.63.49-4.81-.67-7.39-.34-1.81-2.65-3.75-5.18-5-8.42,3.27-.32,6.68-2,10.31-2.4a48.62,48.62,0,0,1,6.69.17C193.13,186.55,199.75,186.8,205.94,187Z"/><path class="cls-1" d="M230.14,187.83c.58.3-.23.58-.34.68-3.12,3-6.39,5.35-10,8.42-1.24,1.07-2.51,2.67-3.6,2.92a16.54,16.54,0,0,1-3.61-.18c-7.85-.56-16.49-1.3-24.55-1.88,6.48-3.45,14.74-6.91,21.46-10.3,1-.49,2.87-.25,4.47-.18C219.1,187.54,224.69,187.46,230.14,187.83Z"/><path class="cls-1" d="M255.55,188.69c-.9,4.87-2.78,8.78-3.6,13.73-10.37-.62-20.58-1.4-30.73-2.23-.58-.33.63-1,1-1.37,3.38-3.38,7.44-7.31,11-10.65,1.22-.47,4.3-.1,6.53,0C245.16,188.41,250.23,188.3,255.55,188.69Z"/><path class="cls-1" d="M298.82,205.85c-13.95-.81-27.5-2-41.38-2.91.29-4.75.93-9.15,1.38-13.74a.46.46,0,0,1,.34-.51c6,.24,11.78.56,18,.68,2,0,4.36-.27,6,.18,1.25.33,2.92,2.64,4.12,3.94C291.26,197.79,295.41,201.71,298.82,205.85Z"/><path class="cls-1" d="M287.83,189.89c13.29,0,27.31.84,40.86,1.2-1.95,5.72-3.79,11.55-6.52,16.48-3.95-.2-7.29-.43-11.34-.69a16.94,16.94,0,0,1-3.6-.34c-1.3-.39-3.55-2.7-5-3.95C297.46,198.39,292.27,193.59,287.83,189.89Z"/><path class="cls-1" d="M175.89,198.3c.82-.35,2.28.12,3.27.17-.5.54-1.57.5-2.06,1A5.3,5.3,0,0,1,175.89,198.3Z"/><path class="cls-1" d="M213.66,201.91c.57-.13.27.34,0,.34-5.33,4.51-10.59,9.09-16,13.56a55.87,55.87,0,0,1-18.37-13.9c1.64-.7,3.82-1.95,5.66-2.75.61-.26,2.71,0,4.12.17C196.5,200.11,206.21,201.07,213.66,201.91Z"/><path class="cls-3" d="M174.86,200.88c.25.15.55.25.52.68h-.52Z"/><path class="cls-1" d="M218.64,202.25c10.7,1.2,21.69,2.11,32.45,3.26-1.15,4.58-2.32,9.13-3.61,13.56-8.51-3.84-19.77.19-28.32,1.38-5.85.81-11-.29-16.48-2.41-.57.13-.27-.34,0-.34C207.88,212.43,213.3,207.38,218.64,202.25Z"/><path class="cls-3" d="M181.39,207.74c-1-.05-1.79-1-2.58-1.71a17.45,17.45,0,0,1-2.23-2.24v-.51c.95.13,1.65,1.25,2.4,2.06A20.19,20.19,0,0,0,181.39,207.74Z"/><path class="cls-2" d="M172.29,206.54a5.87,5.87,0,0,0,1.2.69C173.23,207.54,172.22,207.13,172.29,206.54Z"/><path class="cls-1" d="M312.72,211.69c2-.21,4.71.45,7,.52-.7,1.24-1.44,2.45-2.23,3.6C315.91,214.45,314.42,213,312.72,211.69Z"/><path class="cls-2" d="M182.25,212.21c1.1.21,1.56,1.06,2.57,1.37A2,2,0,0,1,182.25,212.21Z"/><path class="cls-2" d="M306.2,230.06h.51a1.6,1.6,0,0,1-1.71,1.2C305.35,230.32,306.33,231,306.2,230.06Z"/><path class="cls-3" d="M281.82,93.58c-1-.5-.45.42,0,0Z"/><path class="cls-3" d="M282.68,93.92c-1-.5-.45.42,0,0Z"/><path class="cls-3" d="M293.32,99.24c1.37.45-1.14-.52,0,0Z"/><path class="cls-3" d="M331.26,182.16c-.1-.42.44-1.52,0-1.2C331.41,181.41,330.74,181.9,331.26,182.16Z"/><path class="cls-3" d="M331.09,183.19c.05-.23-.1-.67-.17-.34S331,183.52,331.09,183.19Z"/><path class="cls-3" d="M173.49,207.23a5.87,5.87,0,0,1-1.2-.69C172.22,207.13,173.23,207.54,173.49,207.23Z"/><path class="cls-3" d="M180.87,211.18A5.06,5.06,0,0,0,178.3,210c-1-.3-2.14-.5-3.09-.85,0-.1-.14-.2-.18,0C175.8,211,179.24,210.17,180.87,211.18Z"/><path class="cls-3" d="M184.82,213.58c-1-.31-1.47-1.16-2.57-1.37A2,2,0,0,0,184.82,213.58Z"/><path class="cls-3" d="M201,224.05c-4.85-3-9.31-6.37-14.42-9.1-.08.54.24.67.34,1-.26,0-.63-.06-.69.18,3.77,2.76,9.54,3.51,12.37,7.21-.21,0-.49,0-.52.17A3.53,3.53,0,0,0,201,224.05Z"/><path class="cls-3" d="M309.46,226.63c.61-.27.1.58.52.51-.32-.84.71-1.22.34-1.54C310.14,226.05,309.64,226.18,309.46,226.63Z"/><path class="cls-3" d="M307.4,228.69c-.23.28-1,1.08-.51,1.2.34.48.39-.72.51-.86s.31.22.34.17-.09-.51,0-.68c.37-.69,1.59-.86,1.38-1.55C308.85,227.57,307.94,228.05,307.4,228.69Z"/><path class="cls-3" d="M305,231.26a1.6,1.6,0,0,0,1.71-1.2h-.51C306.33,231,305.35,230.32,305,231.26Z"/><path class="cls-1" d="M197.87,100.79c-2.5,2.68-6.09,5.74-7.73,9.95,1.93,7.29-1.88,13.21-5.32,17.34-2.77,3.34-6.45,5.73-9.27,8.76a53.54,53.54,0,0,0-13.05,23,11,11,0,0,1-.68-3.94c-.47-9.1,1.33-16.21,5.66-21.46,3.27-4,6.1-9.21,6.52-15.11.08-1-.05-1.83,0-2.92.72-14.39,9.44-24.92,18.89-31.25a26.07,26.07,0,0,1,4.29-2.74,36.62,36.62,0,0,1,6-1.38c9.18-1.73,19.48-.51,26.1,3.44,3.27,1.94,6.35,5.09,6.35,10,0,4.18-2.89,6.43-5.84,8.07a12.78,12.78,0,0,1-2.23,1.2c-6.35,1.67-8.16-4.37-10.47-6.35a11.34,11.34,0,0,0-8.24-2.23c-3,.39-5,2.33-7.56,3.61a20.6,20.6,0,0,1,5.15-3.44c-4.6,1.12-8.39,4.54-11.5,7.73A14.64,14.64,0,0,0,197.87,100.79Z"/><path class="cls-3" d="M231.35,84.48a1.49,1.49,0,0,1,.68.68C232.52,85.41,231.18,85,231.35,84.48Z"/><path class="cls-2" d="M281.82,93.58c-.45.42-1-.5,0,0Z"/><path class="cls-2" d="M282.68,93.92c-.45.42-1-.5,0,0Z"/><path class="cls-1" d="M137.27,174.27c-3.12-4.73-6.69-9-10-13.57.28-.44.42.26.51.35A44.71,44.71,0,0,1,137.27,174.27Z"/><path class="cls-1" d="M169.2,184.57c-.93-1.12-2.1-2.09-1.72-3.61.56-.68,1.51-.29,2.23-.34,11.11-.79,24.25-.88,35.2-1.38.71,0,0,.12,0,.35-6.25,1.27-12,2.44-18.37,3.77a57,57,0,0,1-5.84,1.38C177,185.12,173.4,184.26,169.2,184.57Z"/><path class="cls-2" d="M331.26,181c.44-.32-.1.78,0,1.2C330.74,181.9,331.41,181.41,331.26,181Z"/><path class="cls-3" d="M141.9,187.31c.2.26.5.42.52.86C142.08,188.05,142,187.71,141.9,187.31Z"/><path class="cls-1" d="M146.36,196.58c-1.05-1.58-1.69-3.56-2.74-5.15.28-.54.54.61.68.86A16.84,16.84,0,0,1,146.36,196.58Z"/><path class="cls-3" d="M167.48,192.12c.44,0,.28.64.52.86C167.85,193.33,167.53,192.44,167.48,192.12Z"/><path class="cls-3" d="M168.85,194.7c0-.13,1.07,1.52,1.55,2.06C169.81,196.82,169.24,195.4,168.85,194.7Z"/><path class="cls-2" d="M175,209.12c0-.2.18-.1.18,0,.95.35,2.07.55,3.09.85a5.06,5.06,0,0,1,2.57,1.21C179.24,210.17,175.8,211,175,209.12Z"/><path class="cls-2" d="M198,223.54c0-.2.31-.15.52-.17-2.83-3.7-8.6-4.45-12.37-7.21.06-.24.43-.15.69-.18-.1-.36-.42-.49-.34-1,5.11,2.73,9.57,6.11,14.42,9.1A3.53,3.53,0,0,1,198,223.54Z"/><path class="cls-2" d="M310.32,225.6c.37.32-.66.7-.34,1.54-.42.07.09-.78-.52-.51C309.64,226.18,310.14,226.05,310.32,225.6Z"/><path class="cls-2" d="M309.12,227c.21.69-1,.86-1.38,1.55-.09.17.11.53,0,.68s-.27-.25-.34-.17-.17,1.34-.51.86c-.47-.12.28-.92.51-1.2C307.94,228.05,308.85,227.57,309.12,227Z"/><path class="cls-1" d="M191.86,69.54h.34a1.49,1.49,0,0,1,1,.86c.57.85,1.34,1.16,1.38,2.4.11,4.55-6.33,5-6.7,1.2a5.5,5.5,0,0,1,.52-2.4A2.71,2.71,0,0,1,190,70.06C190.62,69.83,192.32,70.46,191.86,69.54Z"/><path class="cls-4" d="M185.34,163.11l.13-.07-.31.07Z"/><path class="cls-5" d="M322.85,134.09c-14.81-.28-29.7.14-38.28,6.7-5,3.81-9.68,9.19-17.51,9.78-4.47.34-8.53-.63-12.54-.34-11.45.83-19.46,5.83-27.12,10.47-5.59,3.39-13.18,3.18-21,2.06-3.31-.47-6.8-1.37-10.64-1.37s-7.05,1-10.34,1.65l-.13.07h-.18l.31-.07a41.74,41.74,0,0,1,20.81-4c3.47.21,6.94,1.23,10.47,1.37a48,48,0,0,0,11-1c.21-.5-.36-.68-.51-1a9.51,9.51,0,0,1-.35-1.72,18.78,18.78,0,0,1-.68-3.09,14.84,14.84,0,0,1,.85-4.63c.2-.58.18-1.3.35-1.72s.37-.14.51-.34c.5-.69.43-1.78.86-2.24-14.26-3.55-29.4-7.82-47.21-6.69-.62.15-1.39,1.3-1.89.51-2.65,3.19-5.5,6.18-8.41,9.1.61.17.05.87,0,1a12.12,12.12,0,0,1-.52,1.38,54.43,54.43,0,0,0-4.46,21.28c.56.62,1.16.4,1.54.86a9.14,9.14,0,0,0,2.06,2.06c4.07,2.44,9.9.86,15.28.86s11.25,1.23,17,1.72c2.87.25,5.85.46,8.76.51s6.08.37,9.1.35c4.67,0,9.41-1.23,14.24-1.2,2.55,0,5.14.53,7.73.34,2.82-.21,5.53-.93,8.24-1,6.31-.24,12.42.55,18.37.17,3-.2,6.18-.13,8.93-.51.74-.11,1.59-.52,2.4-.69,3.05-.64,5.18-.8,6.18-3.61-1.05-2.81-9.07-1.75-9.1-5.15,0-3.18,6.95-2.54,10.48-2.74,9-.54,17.49-.17,25.58-.86,4.13-.35,8.22-1,10.13-3.26-1.17-2.16-8.71-.76-7.9-4.47.25-1.16,2.37-1.42,4.12-1.54,3.27-.23,6.36.5,9.1,0-1.74,2.16-7.27.51-9.79,1.89,2.22,1.78,7.09.71,7.38,3.77.26,2.72-3.54,4.18-6.52,4.64-3.21.49-6.79.16-10.82.17-3.24,0-7.27.34-11.33.34a105.34,105.34,0,0,0-11.5.18c-1.61.19-3.38,1.11-3.26,2.23.13,1.27,3.09,1.79,4.81,2.4,2.34.84,5.92,2.6,3.26,5.15-.42.4-1.76.45-1.2.86,14.13-.52,28.13-1.17,41.71-2.23C332.25,156.51,327.74,144.66,322.85,134.09ZM182.07,154.18a2.44,2.44,0,0,1,1.38-2.4c2.73-1.38,7.44.29,8.58,2.23-.58-5.89,2.61-9.39,8.76-9.1-4.74,1.38-7.87,4.38-7.73,10.64C191.31,152.48,185,151.44,182.07,154.18Z"/><path class="cls-4" d="M201.61,224.66a2,2,0,0,0-.48-.26Z"/><path class="cls-6" d="M293.32,99.24c-1.14-.52,1.37.45,0,0Z"/><path class="cls-5" d="M335.21,151.6a23.63,23.63,0,0,0-1.71-5.32c0-2.45-.9-5.07-1.89-7.72a68.76,68.76,0,0,0-5-10.48c-1.7-2.92-3-5.41-5.49-7.38-.19-1.52-1.67-1.9-1.55-3.26-3.94-3.94-7.29-8.41-11.16-12.53a66.94,66.94,0,0,0-18.2-13.39c-.84-.44-1.86-.81-2.74-1.21s-2-.58-2.92-1c-.57-.26-.87-.74-1.38-1-3.41-1.94-8-3.18-12.36-4.29a67.26,67.26,0,0,0-7.72-1.72c-2.75-.36-5.64-.27-8.93-.51-.7,0-1.47-.35-2.23-.34s-1.72.49-2.58.51c-.53,0-1-.31-1.54-.34a17.12,17.12,0,0,0-2.58.17,11.08,11.08,0,0,0-4.63,1.37c-2.05-.35-3-.07-5.5.17,1.16,1.49,3,3.62,3.61,5.84,7.72-1.34,16.59-2,23.86-1,.53.07,1,.28,1.55.35s1.1-.09,1.54,0c2.07.38,4.25,1.64,6.53,1.54.49.63,1.3.59,2.06.86,1.88.68,4.36,1.5,6.35,2.4.42,0,.29.21,0,.17-8.78-3.09-19.18-6.3-31.08-5.15,1.87,14.46.58,33.14-2.23,46.19,1,.28.39-1,1.2-.86.74,1.34,2.81.62,4.12,1s2.33,1.46,3.61,2.06c.92.28-.49,0-.34.17,1.34.62,1.42-1.4,1.71-2.06,3-6.73,6.59-14.18,10.3-20.6,4.38-7.56,9.21-14.62,16-19.4a1.7,1.7,0,0,0-1-.52c1.84-.23,2.87,1.83,5.15,1.72a8.06,8.06,0,0,0,3.95,2.4,3.84,3.84,0,0,0-2.06.69c-3.34,1.87-6.45,5.31-9.27,8.41a118.43,118.43,0,0,0-7.73,10,142.49,142.49,0,0,0-13.39,21.8c.46,1.19,1.66.59,2.06,1.72a28.19,28.19,0,0,1,3.09,6.69c10.14-1.27,14.44-9.47,20.6-14.76a40.34,40.34,0,0,1,31.59-9.44,22.58,22.58,0,0,0-4.12-6.53,80.32,80.32,0,0,0-16.14-15.45c1.49.45,2.78,2,4.3,3.09s3,2.65,4.29,3.44c.16.09,1.77.5,1,.68,0-.2-.31-.14-.52-.17.85.68,1.65,1.75,2.24,2.23s1.84.71,2.06,2.06c.24.56.07-.83.51-.17.37,1.18,1.81,1.29,1.55,3.09a55.51,55.51,0,0,1,5,7c1.17,1.75,2.27,3.56,3.44,5.67.77,1.38,1.43,2.73,2.23,4.12.11.18,0,.36.17.51,1,1.13,1.22,3.73,2.75,5,.06,2.14,1.17,4.21,1.89,6.35a54.78,54.78,0,0,0,2.23,6.36,6.35,6.35,0,0,0,.51,3.43,36.72,36.72,0,0,1,.86,4.81c.44,3,.16,6.87,1.2,9.27-.34.08-.39-.95-.68-.35.33.84,0,3,.51,3.26-.35,1.21.18,3,0,4.81-.15,1.49-.76,3-.68,4.47-.39-2,.43-4.26.17-6.7-1.4-.54-2.9.23-4.12.34-4.45.41-9.05.3-13.57.69s-9,.49-13.56.69c-9,.39-17.82,1.57-26.44,2.06,2.58,2.64,5.65,5.05,8.93,7.89,1.15,1,2,2.31,3.09,2.58a16,16,0,0,0,3.09,0c10.44.42,22.36.72,33.31,1-11.69-4.17-23.64-8.07-35.54-12,3.71,0,7.23,1.72,10.64,2.75,10.54,3.19,20.95,6.41,31.76,9.44a17.66,17.66,0,0,0,1.55-5.49,22.89,22.89,0,0,1-1.2,7c-1.08,3.34-2,6.95-3.26,10.13-1.45,3.63-3.56,6.86-5,10.3-.9.59-.85,1.59-1.55,2.4-.87,1-1.53,2.59-2.4,3.78a79.36,79.36,0,0,1-6.53,7.89,29.07,29.07,0,0,1,2.92-3.77c-3.19-3.79-6.76-7.2-10.13-10.82-15.44-1.61-31.11-3-46.52-4.63-.75,5.77-1.36,11.68-1.89,17.68,1,1.16,2.43,1.75,3.61,2.57,3.51,2.45,7.11,5.25,10.81,7.73-5.31-1.36-8.51-5.28-13.22-7.9a30.63,30.63,0,0,0-11-3.77c-6.78-.93-13.24.73-18.54,2.91A20.05,20.05,0,0,1,217.1,227c-7-.53-12.18-4.7-17.17-7.55-1.44.51-3.2-.72-5-1.38a53.16,53.16,0,0,1-20.6-13.22c-2.62-.76-4-2.74-5.5-4.63.31-.23.86.74,1.38.86-.09-.89-1.15-1.57-1.89-2.41a80.61,80.61,0,0,1-6.18-7.21,61.9,61.9,0,0,1-3.95-6.86c-1.21-2.32-2-5-3.43-7.21a27.23,27.23,0,0,0-2.75-2.92c-5.92-6.49-13.09-13-16-22.49.14-1.74-.53-3.14-.51-5a10.26,10.26,0,0,1,1.89-6c1.14-1.3,3.4-1.63,3.77-2.92.55-1.92-1.4-4.33-2.91-4.63a5.81,5.81,0,0,0-3.27.51c-.93.39-1.46,1.31-2.4,1,.05.77-.67,1.27-1,1.89A36.86,36.86,0,0,0,129,142.5c-1.06,2.87-2.39,6.83-1.71,10.13.57,2.78,3,5.79,5,8.59s4,5.43,5.66,7.72a32.31,32.31,0,0,1,4.12,9.45,90.78,90.78,0,0,0,3.61,9.78c10.82,25,26.93,44.59,51,56.48a124.1,124.1,0,0,0,36.05,11,42.74,42.74,0,0,0,5.84.86c1.63,0,3.18-.78,5-.86.83,0,1.81.17,2.74.17,5.71,0,11.61-1.16,17.17-2.23,11.32-2.17,21.07-4.84,29-10.3a41.87,41.87,0,0,0,5.33-4.46c1.6-1.55,4.59-2.61,4.29-5.5-2-1.92-4.42.13-6,1.21-2.7,1.82-6,4.16-9.44,5.15-4.17,1.2-10.62-.09-14.77-1.21A30.54,30.54,0,0,1,261.73,234c-4-2.93-8.39-6-14.25-7.55-2-.54-4.34-1.24-6.18-1-1.55.17-2.8,1.32-4.46,1.54-.56.08-1.32-.21-1.89-.17-1.83.12-4.2,1.26-6,1.72-.72.18-1.4.15-2.06.34-1.15.34-2,1-3.09,1.37-7.32,2.45-14.18-.34-21.11-3.95a3.42,3.42,0,0,0-1.07-1.62l-.48-.26a2,2,0,0,1,.48.26c4.27,2.34,9.16,5,15.49,5.57,6.84.59,11.66-2.95,16.65-5.15.88-.14.6.9,1.54.69,9.44-2.53,17.86.24,24.38,4.81a48.17,48.17,0,0,0,4.64,3.26,30.4,30.4,0,0,0,5.49,2.23c3.91,1.22,8.43,2.53,13.22,2.4a13.94,13.94,0,0,0,3.26-.51,10.74,10.74,0,0,0,2.58-1c.53-.43.36-1.31,1-1.89.42-.36,2-.74,2.75-1.2,1.88-1.11,4.05-3.51,5.49-4,2.58-.79,5.69-.06,6.35,2.75.09,1.19-.44-.29-.51.17,0,.87.36,1.36.34,2.23a56.39,56.39,0,0,1-13.56,11.67c2.21-.74,3.85-2.65,6-4.12s4.57-2.39,6.35-4.12a16.24,16.24,0,0,0,1.54-2.06c.51-.67,1-1.26,1.55-1.88s.13.44.51.51c1.66-2.07,4.2-3.34,6.18-5.15,1.55-1.41,3-3.38,4.64-5.15a40.07,40.07,0,0,0,4.46-5.32c.35-.57.37-1.32.69-1.89.05-.09.44-.22.52-.34.51-.86,1.39-2.1,1.88-3.09.32-.64.32-1.42.69-2.07.26-.45.75-.79,1-1.2,1.93-2.77,3.28-6.5,4.64-10.13.73-1.95,1.47-4.14,2.06-6.35a46.68,46.68,0,0,0,1.54-6.86c.11-1-.25-1.89-.17-2.58s.81-1.18.34-2.06c1.11-.74.89-2.73,1-4.81.06-.76,0-1.69.52-2.06-.8-1.64.14-4.1,0-6.18,0-.2,0-.3.17-.34V166.2A84.62,84.62,0,0,0,335.21,151.6Z"/><path class="cls-6" d="M301.91,101.13c-.23-.06-.27-.3-.52-.34C301.46,100.36,302.06,100.78,301.91,101.13Z"/><path class="cls-6" d="M312.89,112c.37-.57.5.51,1,.34C313.57,112.85,313.2,112,312.89,112Z"/><path class="cls-6" d="M335,161.73c-.08.35-.32.14-.17-.51C335,160.73,335.07,161.61,335,161.73Z"/><path class="cls-7" d="M293.32,99.24c1.37.45-1.14-.52,0,0Z"/></svg>