<svg id="圖層_1" data-name="圖層 1" xmlns="http://www.w3.org/2000/svg" viewBox="0 0 462 452"><title>履歷作品icon設計</title><path d="M138.85,355.76v21.68a8.66,8.66,0,0,0,2.44,6.38,9.22,9.22,0,0,0,6.77,2.43,9.12,9.12,0,0,0,6.75-2.43,8.64,8.64,0,0,0,2.46-6.38V355.76h4.22v22a11.87,11.87,0,0,1-3.63,9q-3.62,3.45-9.8,3.44t-9.82-3.44a11.92,11.92,0,0,1-3.61-9v-22Zm33.42,33.82h-4.22V355.76h4.22Zm16.41-33.82h11.37q7.51,0,11.74,4.48T216,372.66q0,8-4.22,12.47t-11.74,4.45H188.68Zm4.22,3.8v26.23h6.87q5.73,0,8.83-3.38t3.1-9.7q0-6.36-3.1-9.75t-8.83-3.4Zm37.5,8.76a6.24,6.24,0,0,0-4.71,2,7.65,7.65,0,0,0-2,5h13.24a7.45,7.45,0,0,0-1.85-5A6,6,0,0,0,230.4,368.32Zm6.4,14.28h4a8.06,8.06,0,0,1-3.37,5.32,11.05,11.05,0,0,1-6.77,2.08,10.44,10.44,0,0,1-8.23-3.37q-3-3.37-3-9.14a13.65,13.65,0,0,1,3-9.21,10.11,10.11,0,0,1,8-3.49,9.77,9.77,0,0,1,7.78,3.3c1.91,2.2,2.86,5.16,2.86,8.86v1.55H223.63v.23a8.06,8.06,0,0,0,1.92,5.63,6.7,6.7,0,0,0,5.2,2.11,7,7,0,0,0,3.91-1.06A5,5,0,0,0,236.8,382.6Zm8-10.67a6.26,6.26,0,0,1,2.53-5.13,10.31,10.31,0,0,1,6.57-2,9.73,9.73,0,0,1,6.28,2,6.72,6.72,0,0,1,2.65,5.11H259a3.89,3.89,0,0,0-1.6-2.79,6.87,6.87,0,0,0-7.17,0,3.05,3.05,0,0,0-1.36,2.6q0,2.49,4.06,3.52l3.77.91a11.4,11.4,0,0,1,5.18,2.44,5.56,5.56,0,0,1,1.52,4.17,6.25,6.25,0,0,1-2.72,5.23,11.43,11.43,0,0,1-7,2,10.63,10.63,0,0,1-6.59-2,7.3,7.3,0,0,1-2.9-5.25h4.07q.69,3.88,5.68,3.89a6.91,6.91,0,0,0,3.89-1,3.05,3.05,0,0,0,1.45-2.65,2.66,2.66,0,0,0-.87-2.09,7,7,0,0,0-2.88-1.31l-4.29-1.1Q244.82,376.92,244.81,371.93Zm23,17.65V365.21h4.08v24.37Zm2-28.47a2.56,2.56,0,0,1-2.53-2.54,2.39,2.39,0,0,1,.75-1.78,2.52,2.52,0,0,1,3.59,0,2.39,2.39,0,0,1,.75,1.78,2.56,2.56,0,0,1-2.56,2.54Zm17.46,25.07a6.26,6.26,0,0,0,5.14-2.43,11.73,11.73,0,0,0,0-12.92,6.23,6.23,0,0,0-5.14-2.46,6.09,6.09,0,0,0-5.06,2.44,12.2,12.2,0,0,0,0,13A6.13,6.13,0,0,0,287.3,386.18Zm.15,12.59a11.65,11.65,0,0,1-6.9-2,7.62,7.62,0,0,1-3.39-5.13h4.19a5.13,5.13,0,0,0,2.3,2.69,7.48,7.48,0,0,0,4,1,7,7,0,0,0,4.94-1.66,5.68,5.68,0,0,0,1.83-4.41v-3.84h-.09a8.67,8.67,0,0,1-3.21,3.21A9.81,9.81,0,0,1,279,386.37c-1.88-2.26-2.81-5.29-2.81-9.07s.93-6.85,2.81-9.12a9.36,9.36,0,0,1,7.57-3.39,9.06,9.06,0,0,1,4.64,1.19,8.89,8.89,0,0,1,3.28,3.33h.07v-4.1h3.89v23.88a8.91,8.91,0,0,1-3,7A11.64,11.64,0,0,1,287.45,398.77Zm16.33-9.19V365.21h3.85v3.89h.09a7.57,7.57,0,0,1,3-3.17,9.26,9.26,0,0,1,4.71-1.14,8,8,0,0,1,6.21,2.41,9.22,9.22,0,0,1,2.23,6.56v15.82h-4.08V374.49a6.52,6.52,0,0,0-1.4-4.52,5.35,5.35,0,0,0-4.2-1.58,6,6,0,0,0-4.62,1.88,7.06,7.06,0,0,0-1.73,5v14.34Z"/><path d="M108.71,149.74v-6.05h7v6.05h24.63v-6.05h7v6.05h11.88v6.41H147.31V187.4h13.25v6.33h-65V187.4h13.17V156.15H96.83v-6.41Zm13.47,49.11a87,87,0,0,1-21.31,11.3l-4.32-5.54a90.58,90.58,0,0,0,20.8-10.08Zm18.15-36.29v-6.41H115.7v6.41Zm0,12.24v-6.41H115.7v6.41Zm0,12.6v-6.77H115.7v6.77Zm19.15,16.85-3.75,5.9A103.26,103.26,0,0,0,134.35,200l3.46-5.19A119.18,119.18,0,0,1,159.48,204.25Z"/><path d="M187.84,146.14a86.88,86.88,0,0,1-6.33,15.12v49.18h-6.7v-38.6c-2,2.67-4.18,5.26-6.48,7.85l-2.16-7a81.9,81.9,0,0,0,15.48-29.45Zm36.51,39L218,183.15a145.76,145.76,0,0,0,3.53-20.09l-9.07,2.74v28.58H205.7V167.81l-9,2.74V199c0,2.23,1.08,3.39,3.38,3.39h21.68a4.26,4.26,0,0,0,3.53-1.45c.64-1,1.08-4.39,1.29-10.29l6.48,2.16c-.5,7.56-1.37,12.17-2.66,13.75-1.44,1.59-3.89,2.38-7.49,2.38H198.43c-5.76,0-8.57-3-8.57-8.93V172.64l-5.91,1.8v-6.63l5.91-1.8V150.46h6.84V164l9-2.74v-17.5h6.77v15.48l15.63-4.75A164.07,164.07,0,0,1,224.35,185.09Z"/><path d="M274.46,144.19a101.93,101.93,0,0,0,30.53,24l-3.38,6.05A94.67,94.67,0,0,1,272,150.67q-11.11,13.94-29.45,24.2l-3.38-6.12a101.65,101.65,0,0,0,30.38-24.56Zm-11.38,24.13v13.24c-.21,13.25-4.46,22.9-12.67,29l-5.11-4.53c7.2-5,10.87-13.25,11-24.49V168.32Zm24.2-.22v41.62h-6.84V168.1Z"/><path d="M376.27,146.28v6.55H347.9a55,55,0,0,1-2.23,7.57h27.22v50.11h-6.63v-3H322v3h-6.63V160.4h23.41a46.5,46.5,0,0,0,2.16-7.57H311.75v-6.55Zm-46.08,54.87V166.66H322v34.49Zm21.24-27v-7.49H336.6v7.49Zm0,13.39v-7.49H336.6v7.49Zm0,13.61v-7.78H336.6v7.78Zm14.83,0V166.66h-8.42v34.49Z"/></svg>