<svg id="圖層_1" data-name="圖層 1" xmlns="http://www.w3.org/2000/svg" viewBox="0 0 56.69 56.69"><defs><style>.cls-1,.cls-3{fill:#fff;}.cls-2,.cls-4{fill:#040000;}.cls-3{stroke:#040000;stroke-width:0.4px;}.cls-3,.cls-4{stroke-miterlimit:10;}.cls-4{stroke:#fff;stroke-width:2.41px;}</style></defs><title>履歷logo</title><path class="cls-1" d="M42.51,40l4.17,1.73a2.27,2.27,0,0,1,0,4.2L28.41,53.45a4.54,4.54,0,0,1-3.47,0L6.67,45.9a2.27,2.27,0,0,1,0-4.2l18.27-7.56a4.54,4.54,0,0,1,3.47,0l4.26,1.76Z"/><path class="cls-2" d="M26.68,54a4.63,4.63,0,0,1-1.82-.37L6.59,46.08a2.47,2.47,0,0,1,0-4.57L24.86,34a4.76,4.76,0,0,1,3.63,0l18.27,7.55a2.47,2.47,0,0,1,0,4.57L28.49,53.63A4.62,4.62,0,0,1,26.68,54Zm0-20a4.31,4.31,0,0,0-1.66.33L6.74,41.88a2.07,2.07,0,0,0,0,3.83L25,53.26a4.25,4.25,0,0,0,3.32,0l18.27-7.55a2.07,2.07,0,0,0,0-3.83L28.34,34.33A4.39,4.39,0,0,0,26.68,34Z"/><path class="cls-1" d="M42.51,36.66l4.17,1.73a2.27,2.27,0,0,1,0,4.2L28.41,50.14a4.54,4.54,0,0,1-3.47,0L6.67,42.59a2.27,2.27,0,0,1,0-4.2l18.27-7.55a4.54,4.54,0,0,1,3.47,0l4.26,1.76Z"/><path class="cls-2" d="M26.68,50.69a4.8,4.8,0,0,1-1.82-.36L6.59,42.77a2.47,2.47,0,0,1,0-4.57l18.27-7.55a4.76,4.76,0,0,1,3.63,0L46.76,38.2a2.47,2.47,0,0,1,0,4.57L28.49,50.33A4.79,4.79,0,0,1,26.68,50.69Zm0-20A4.31,4.31,0,0,0,25,31L6.74,38.57a2.07,2.07,0,0,0,0,3.83L25,50a4.34,4.34,0,0,0,3.32,0L46.61,42.4a2.07,2.07,0,0,0,0-3.83L28.34,31A4.39,4.39,0,0,0,26.68,30.69Z"/><path class="cls-1" d="M42.3,34.14l4.05,1.67a2.28,2.28,0,0,1,0,4.21L28.41,47.43a4.54,4.54,0,0,1-3.47,0L7,40a2.28,2.28,0,0,1,0-4.21l19.68-8.13,5.91,2.45Z"/><path class="cls-2" d="M26.68,47.9a4.65,4.65,0,0,1-1.79-.36L7,40.13A2.4,2.4,0,0,1,7,35.7l19.72-8.15,0,0L46.4,35.7a2.4,2.4,0,0,1,0,4.43L28.46,47.54A4.64,4.64,0,0,1,26.68,47.9Zm0-20.09L7.05,35.93a2.15,2.15,0,0,0,0,4L25,47.32a4.4,4.4,0,0,0,3.38,0L46.3,39.91a2.15,2.15,0,0,0,0-4Z"/><path class="cls-3" d="M43.07,30.83l4.49,1.85a2.28,2.28,0,0,1,0,4.21L28.41,44.8a4.54,4.54,0,0,1-3.47,0L5.79,36.89a2.28,2.28,0,0,1,0-4.21l19.15-7.91a4.54,4.54,0,0,1,3.47,0l4.47,1.85"/><line class="cls-4" x1="32.88" y1="26.62" x2="43.07" y2="30.83"/><path class="cls-2" d="M11.84,35.2c2.16-2.89,2.59,1.36,3.31,2.16a3.57,3.57,0,0,0,2.77,1.16,4.76,4.76,0,0,0,3.64-2.24c.31-.42.49-1.23.88-1.5,1.63-1.19,2.82,1.28,3.48,2.7a1,1,0,0,0,1.58.21c.88-1,1.49-1.79,2.54-.79a1,1,0,0,0,1.57-.2,2.58,2.58,0,0,0,.64-1.6c.2-1.26-1.74-1.81-1.94-.53l-.43,1.12,1.58-.2a7.92,7.92,0,0,0-2-1.59,1,1,0,0,0-1,0,15.3,15.3,0,0,0-2.39,2.37l1.57.2c-.76-1.64-2.2-4.18-4.18-4.54-2.88-.52-1.91,3.09-3.93,3.7-.49.15-3.16-1.76-3.35-1.94s-.18-.72-.42-.85a4.83,4.83,0,0,0-1.14-.55,4.42,4.42,0,0,0-4.52,1.89c-.77,1,1,2,1.73,1Z"/><path class="cls-1" d="M35.76,25.29,48,5.67a1.29,1.29,0,0,1,2.2,1.26L40.49,27Z"/><path class="cls-2" d="M34.79,28.54s-3.07,1.31-2.3,4.08-2.82,2.84-2.82,2.84A6.35,6.35,0,0,0,35,35.7a4.44,4.44,0,0,0,2.64-4.08s1-2.76,2-2.5S36.86,26.7,34.79,28.54Z"/></svg>