<svg id="圖層_1" data-name="圖層 1" xmlns="http://www.w3.org/2000/svg" viewBox="0 0 56.69 56.69"><defs><style>.cls-1,.cls-3{fill:#fff;}.cls-2,.cls-4{fill:#040000;}.cls-3{stroke:#040000;stroke-width:0.75px;}.cls-3,.cls-4{stroke-miterlimit:10;}.cls-4{stroke:#fff;stroke-width:2.41px;}</style></defs><title>履歷logo</title><path class="cls-1" d="M27.7,54.19a4.89,4.89,0,0,1-1.85-.37L7.58,46.27a2.56,2.56,0,0,1,0-4.73L25.85,34a4.79,4.79,0,0,1,3.69,0l18.27,7.55a2.56,2.56,0,0,1,0,4.73L29.54,53.82A4.87,4.87,0,0,1,27.7,54.19Z"/><path class="cls-1" d="M43.53,40.08l4.18,1.72a2.28,2.28,0,0,1,0,4.21L29.43,53.56a4.54,4.54,0,0,1-3.47,0L7.69,46a2.28,2.28,0,0,1,0-4.21L26,34.25a4.54,4.54,0,0,1,3.47,0L33.69,36Z"/><path class="cls-2" d="M27.7,54.39A4.88,4.88,0,0,1,25.78,54L7.5,46.45a2.76,2.76,0,0,1,0-5.09l18.28-7.55a4.92,4.92,0,0,1,3.84,0l18.27,7.55a2.75,2.75,0,0,1,0,5.09L29.62,54A4.92,4.92,0,0,1,27.7,54.39Zm0-20a3.94,3.94,0,0,0-1.55.31L7.87,42.25a1.8,1.8,0,0,0,0,3.31l18.28,7.55a4,4,0,0,0,3.1,0l18.27-7.55a1.79,1.79,0,0,0,0-3.31L29.25,34.7A4,4,0,0,0,27.7,34.39Z"/><path class="cls-2" d="M27.7,54.1a4.8,4.8,0,0,1-1.82-.36L7.61,46.19a2.47,2.47,0,0,1,0-4.57l18.27-7.55a4.67,4.67,0,0,1,3.63,0l18.27,7.55a2.47,2.47,0,0,1,0,4.57L29.51,53.74A4.75,4.75,0,0,1,27.7,54.1Zm0-20a4.35,4.35,0,0,0-1.66.33L7.77,42a2.07,2.07,0,0,0,0,3.83L26,53.37a4.34,4.34,0,0,0,3.32,0l18.27-7.55a2.07,2.07,0,0,0,0-3.83L29.36,34.44A4.39,4.39,0,0,0,27.7,34.11Z"/><path class="cls-1" d="M27.7,49.88a4.89,4.89,0,0,1-1.85-.37L7.58,42a2.56,2.56,0,0,1,0-4.73l18.27-7.55a4.91,4.91,0,0,1,3.69,0l18.27,7.55a2.56,2.56,0,0,1,0,4.73L29.54,49.51A4.87,4.87,0,0,1,27.7,49.88Z"/><path class="cls-1" d="M43.53,35.77l4.18,1.73a2.27,2.27,0,0,1,0,4.2L29.43,49.25a4.54,4.54,0,0,1-3.47,0L7.69,41.7a2.27,2.27,0,0,1,0-4.2L26,29.94a4.54,4.54,0,0,1,3.47,0l4.26,1.76Z"/><path class="cls-2" d="M27.7,50.08a5.06,5.06,0,0,1-1.92-.38L7.5,42.14a2.76,2.76,0,0,1,0-5.09L25.78,29.5a4.92,4.92,0,0,1,3.84,0l18.27,7.55a2.75,2.75,0,0,1,0,5.09L29.62,49.7A5.09,5.09,0,0,1,27.7,50.08Zm0-20a4.12,4.12,0,0,0-1.55.31L7.87,37.94a1.77,1.77,0,0,0-1.1,1.66,1.75,1.75,0,0,0,1.1,1.65L26.15,48.8a4,4,0,0,0,3.1,0l18.27-7.55a1.76,1.76,0,0,0,1.11-1.65,1.78,1.78,0,0,0-1.11-1.66L29.25,30.39A4.16,4.16,0,0,0,27.7,30.08Z"/><path class="cls-2" d="M27.7,49.8a4.63,4.63,0,0,1-1.82-.37L7.61,41.88a2.47,2.47,0,0,1,0-4.57l18.27-7.55a4.76,4.76,0,0,1,3.63,0l18.27,7.55a2.47,2.47,0,0,1,0,4.57L29.51,49.43A4.58,4.58,0,0,1,27.7,49.8Zm0-20a4.35,4.35,0,0,0-1.66.33L7.77,37.68a2.07,2.07,0,0,0,0,3.83L26,49.06a4.25,4.25,0,0,0,3.32,0l18.27-7.55a2.07,2.07,0,0,0,0-3.83L29.36,30.13A4.39,4.39,0,0,0,27.7,29.8Z"/><path class="cls-1" d="M27.7,46.17a4.89,4.89,0,0,1-1.85-.37L7.91,38.39a2.56,2.56,0,0,1,0-4.73L27.7,25.48l19.78,8.18a2.56,2.56,0,0,1,0,4.73L29.54,45.8A4.87,4.87,0,0,1,27.7,46.17Z"/><path class="cls-1" d="M43.32,32.25l4,1.67a2.27,2.27,0,0,1,0,4.2L29.43,45.54a4.54,4.54,0,0,1-3.47,0L8,38.12a2.27,2.27,0,0,1,0-4.2L27.7,25.79l5.91,2.45Z"/><path class="cls-2" d="M27.7,46.29a4.91,4.91,0,0,1-1.89-.38L7.87,38.5a2.68,2.68,0,0,1,0-5L27.7,25.36l19.83,8.19a2.68,2.68,0,0,1,0,5L29.59,45.91A4.94,4.94,0,0,1,27.7,46.29ZM8.18,34.3a1.86,1.86,0,0,0,0,3.45l17.94,7.42a4.18,4.18,0,0,0,3.16,0l17.94-7.42a1.87,1.87,0,0,0,0-3.45L27.7,26.23Z"/><path class="cls-2" d="M27.7,46a4.57,4.57,0,0,1-1.78-.36L8,38.24a2.4,2.4,0,0,1,0-4.43L27.7,25.66l0,0,19.68,8.13a2.4,2.4,0,0,1,0,4.43L29.48,45.65A4.6,4.6,0,0,1,27.7,46Zm0-20.09L8.07,34a2.15,2.15,0,0,0,0,4L26,45.43a4.4,4.4,0,0,0,3.38,0L47.33,38a2.15,2.15,0,0,0,0-4Z"/><path class="cls-3" d="M44.09,27.93l4.49,1.86a2.27,2.27,0,0,1,0,4.2L29.43,41.91a4.54,4.54,0,0,1-3.47,0L6.81,34a2.27,2.27,0,0,1,0-4.2L26,21.88a4.54,4.54,0,0,1,3.47,0l4.47,1.84"/><line class="cls-4" x1="33.9" y1="26.72" x2="44.09" y2="30.93"/><path class="cls-2" d="M12.87,32.3c2.15-2.88,2.58,1.37,3.3,2.17a3.6,3.6,0,0,0,2.77,1.16,4.8,4.8,0,0,0,3.65-2.24c.3-.42.48-1.23.87-1.5,1.63-1.2,2.82,1.28,3.48,2.7a1,1,0,0,0,1.58.21c.88-1,1.49-1.79,2.54-.79a1,1,0,0,0,1.58-.2,2.62,2.62,0,0,0,.63-1.6c.2-1.26-1.73-1.81-1.93-.54l-.43,1.13,1.57-.2a8.05,8.05,0,0,0-2-1.59,1,1,0,0,0-1,0,15.3,15.3,0,0,0-2.39,2.37l1.58.2c-.77-1.64-2.2-4.18-4.19-4.54-2.88-.52-1.91,3.09-3.92,3.7-.5.15-3.16-1.76-3.36-1.94s-.18-.72-.42-.85a5,5,0,0,0-1.13-.55,4.43,4.43,0,0,0-4.53,1.89c-.77,1,1,2,1.74,1Z"/><path class="cls-1" d="M36.78,22.4,49,2.78A1.29,1.29,0,0,1,51.2,4L41.51,24.13Z"/><path class="cls-2" d="M35.81,25.65S32.74,27,33.52,29.73s-2.82,2.83-2.82,2.83a6.32,6.32,0,0,0,5.36.25,4.44,4.44,0,0,0,2.64-4.08s1-2.76,2-2.5S37.88,23.81,35.81,25.65Z"/></svg>