<svg id="圖層_1" data-name="圖層 1" xmlns="http://www.w3.org/2000/svg" viewBox="0 0 462 452"><defs><style>.cls-1{fill:#9e9e9f;fill-rule:evenodd;}</style></defs><title>履歷作品icon設計</title><path d="M110.89,354.54h4.41l6.82,27.77h.09l7.67-27.77h4.26l7.67,27.77h.09l6.82-27.77h4.41l-9.21,33.82h-4l-7.87-27.09H132l-7.87,27.09h-4Z"/><path d="M153.06,376.27v0c0-7.54,4.31-12.72,11-12.72s10.71,4.94,10.71,12.26v1.5H157.18c.1,5,2.86,7.94,7.2,7.94,3.09,0,5.27-1.55,6-3.63l.07-.21h4l0,.23c-.8,4-4.78,7.22-10.1,7.22C157.28,388.83,153.06,383.93,153.06,376.27Zm4.19-2.18h13.34c-.4-4.74-3-7-6.59-7S157.7,369.54,157.25,374.09Z"/><path d="M183.22,384.24h-.09v4.12h-4.08V354.54h4.08v13.52h.09a8.65,8.65,0,0,1,7.81-4.54c6.11,0,10.29,4.94,10.29,12.63v0c0,7.69-4.13,12.66-10.36,12.66A8.49,8.49,0,0,1,183.22,384.24Zm13.92-8.07v0c0-5.55-2.67-9-7-9-4.1,0-7,3.58-7,9v0c0,5.46,2.93,9.05,7,9.05C194.47,385.22,197.14,381.78,197.14,376.17Z"/><path d="M215.89,354.54h11.37c10,0,16,6.24,16,16.85v.05c0,10.66-5.9,16.92-16,16.92H215.89Zm11.09,30c7.66,0,11.93-4.68,11.93-13.07v-.05c0-8.44-4.27-13.1-11.93-13.1h-6.87v26.22Z"/><path d="M246.64,376.27v0c0-7.54,4.32-12.72,11-12.72s10.71,4.94,10.71,12.26v1.5H250.77c.09,5,2.86,7.94,7.19,7.94,3.1,0,5.28-1.55,6-3.63l.07-.21h4l0,.23c-.79,4-4.78,7.22-10.1,7.22C250.86,388.83,246.64,383.93,246.64,376.27Zm4.2-2.18h13.34c-.4-4.74-3-7-6.59-7S251.29,369.54,250.84,374.09Z"/><path d="M271.37,381.54l0-.21h4.08l0,.23c.49,2.44,2.3,3.87,5.63,3.87s5.27-1.38,5.27-3.58v0c0-1.76-.91-2.74-3.68-3.42l-3.87-.94c-4.59-1.1-6.82-3.23-6.82-6.75v0c0-4.2,3.68-7.17,9-7.17s8.74,3.11,9,7.19l0,.31h-3.89l0-.17c-.32-2.36-2.13-3.93-5.15-3.93s-4.78,1.43-4.78,3.58v0c0,1.66,1.1,2.81,3.79,3.46l3.87.94c4.92,1.2,6.7,3.14,6.7,6.61v0c0,4.27-4,7.27-9.47,7.27C275.33,388.83,271.86,385.9,271.37,381.54Z"/><path d="M294.5,357.31a2.56,2.56,0,1,1,2.56,2.55A2.55,2.55,0,0,1,294.5,357.31ZM295,364h4.08v24.37H295Z"/><path d="M304.35,390.59l-.05-.21h4.1l.1.21c.77,1.76,3.09,2.83,6.42,2.83,4.29,0,6.72-2.36,6.72-6.14v-3.11h-.09a8.56,8.56,0,0,1-7.76,4.43c-6.14,0-10.33-5-10.33-12.57v0c0-7.57,4.24-12.49,10.43-12.49a8.6,8.6,0,0,1,7.66,4.59h.09V364h4.08v23.69c0,5.65-4.15,9.35-10.76,9.35C308.94,397,305.14,394.2,304.35,390.59ZM321.64,376v0c0-5.37-2.83-8.88-7-8.88-4.33,0-7.05,3.47-7.05,8.88v0c0,5.53,2.72,9,7.05,9C318.83,385,321.64,381.45,321.64,376Z"/><path d="M331,364h4.07v3.47h.1c1.31-2.28,3.79-3.94,7.5-3.94,5.34,0,8.44,3.47,8.44,9v15.82H347V373.27c0-4-1.85-6.14-5.6-6.14s-6.36,2.74-6.36,6.89v14.34H331Z"/><path d="M266.09,136a6.65,6.65,0,0,0-2-4.73l-40.7-40.69a6.66,6.66,0,0,0-9.46,0l-40.69,40.68a6.71,6.71,0,0,0,0,9.48L214,181.46a6.7,6.7,0,0,0,9.47,0l40.69-40.69A6.69,6.69,0,0,0,266.09,136ZM217.66,94.3a1.55,1.55,0,0,1,2.08,0l15.89,15.89H201.77Zm18,21.11L218.7,132.34l-16.93-16.93ZM177,137.07a1.47,1.47,0,0,1,0-2.08l18.5-18.5L215,136l-19.54,19.54Zm42.77,40.69a1.55,1.55,0,0,1-2.08,0l-15.89-15.88h33.86Zm-18-21.11,16.93-16.93,16.93,16.93Zm58.66-19.58-18.49,18.5L222.4,136l19.54-19.54L260.43,135a1.47,1.47,0,0,1,.44,1A1.45,1.45,0,0,1,260.43,137.07Z"/><path d="M259.37,217.17h20.12c3.35,0,3.71,1.87,3.71,2.67v18.35h5.44v-18c0-2.41-1.86-7-8.9-7H259.13c-7,0-8.91,4.56-8.91,7v18h5.44V219.84C255.66,219,256,217.17,259.37,217.17Z"/><path d="M236.66,220.16c0-2.69-2.29-7-8.43-7H207.46c-6.79,0-9.22,3.6-9.22,7v11c0,2.71,2.29,7,8.44,7h21.55c6.14,0,8.43-4.29,8.43-7Zm-5.46,11.06c0,.88-.36,2.92-3.7,2.92H208.18c-4.49,0-4.49-2.12-4.49-2.92V219.84c0-.62.26-2.67,3.7-2.67H227.5c3.22,0,3.7,1.67,3.7,2.67Z"/><path d="M340.35,220.16c0-2.69-2.29-7-8.43-7H311.15c-6.79,0-9.21,3.6-9.21,7v11c0,2.71,2.29,7,8.43,7h21.55c6.14,0,8.43-4.29,8.43-7Zm-5.45,11.06c0,.88-.37,2.92-3.71,2.92H311.87c-4.49,0-4.49-2.12-4.49-2.92V219.84c0-.62.27-2.67,3.7-2.67h20.11c3.22,0,3.71,1.67,3.71,2.67Z"/><path d="M157.67,213.19c-7,0-8.9,4.56-8.9,7v18h5.44V219.84c0-.8.36-2.67,3.7-2.67l23.67,0a6.19,6.19,0,0,0,5.56-4Z"/><path d="M127,213.19H106.27c-6.8,0-9.22,3.6-9.22,7v11c0,2.71,2.29,7,8.43,7H130v3.11c0,3.63,4.32,5.23,5.44,5.59V220.16C135.47,217.47,133.18,213.19,127,213.19ZM107,234.14c-4.49,0-4.49-2.12-4.49-2.92V219.84c0-.62.27-2.67,3.71-2.67h20.11c3.22,0,3.7,1.67,3.7,2.67v11.38c0,.88-.36,2.92-3.7,2.92Z"/><path class="cls-1" d="M352.25,240.73h5.1V242h-1.83v5.36h-1.44V242h-1.83Z"/><polygon class="cls-1" points="362.59 240.76 361.42 245.46 360.11 240.76 357.76 240.76 357.76 247.42 359.2 247.42 359.2 242.19 360.63 247.42 362.07 247.42 363.51 242.19 363.51 247.42 364.95 247.42 364.95 240.76 362.59 240.76"/></svg>