<svg id="圖層_1" data-name="圖層 1" xmlns="http://www.w3.org/2000/svg" viewBox="0 0 462 452"><defs><style>.cls-1{font-size:72px;font-family:SFProDisplay-Bold, SF Pro Display;font-weight:700;}.cls-2{letter-spacing:-0.02em;}.cls-3{font-size:48px;font-family:SFProDisplay-Regular, SF Pro Display;}.cls-4{letter-spacing:-0.05em;}</style></defs><title>ft_logo</title><text class="cls-1" transform="translate(135.2 316.36)">q<tspan class="cls-2" x="42.68" y="0">r</tspan><tspan x="67.64" y="0">ono</tspan></text><text class="cls-3" transform="translate(109.1 388.36)"><tspan class="cls-4">W</tspan><tspan x="41.77" y="0">eb Design</tspan></text><path d="M231.2,29.13c5.54-.77,9.27,2.43,12.83,6,14.51,14.51,29,29.09,43.56,43.52C303.12,94,318.8,109.17,334,124.84c7.43,7.66,7.79,16.36.29,23.89q-26.62,26.78-53.44,53.39c-12.16,12.12-24.64,23.94-36.49,36.36-7.84,8.22-18,8.76-26.41.29-29.89-30.18-60.18-60-90.27-89.92-7.43-7.4-7.21-16.4.35-23.94q45.24-45.12,90.48-90.23C222,31.2,225.81,28.36,231.2,29.13ZM177.53,180.88c1.45-.26,2.05-1.36,2.88-2.18q19.82-19.71,39.67-39.38c1.67-1.64,2.07-2.63.22-4.45q-20.37-20-40.54-40.19c-1.69-1.7-2.54-1.5-4.08,0q-19.32,19.35-38.76,38.58c-3.23,3.21-3.24,4.18.09,7.5q19.23,19.17,38.5,38.29C176.16,179.74,176.88,180.31,177.53,180.88ZM327.4,136.81c.11-1.48-1.09-2.29-2-3.21-13-13-26.47-25.5-39.08-38.88-1.46-1.55-2.24-1.89-4-.06q-20,20.36-40.3,40.4c-1.63,1.61-1.71,2.54-.09,4.15q20.19,19.88,40.23,39.93c1.86,1.88,2.79,1.51,4.43-.12,13-13,26-25.85,39.05-38.78C326.53,139.32,327.67,138.46,327.4,136.81Zm-134.34,59.4c11.69,11.81,23.1,23.3,34.47,34.85,2.52,2.55,4.63,2.32,7.1-.18,8.87-9,17.87-17.88,26.78-26.85,2.38-2.4,5.14-4.47,7.34-7.82Zm0-106c12.28,12.32,24,24,35.5,35.72,2,2,3.07,2,5,0,9-9.22,18.25-18.26,27.34-27.43,2.54-2.57,5.47-4.84,7.79-8.32Zm.23-13.41.68.8H268.4c-.12-.53-.1-.86-.25-1Q251.09,59.55,234,42.51c-2-2-4-1.89-6,0-2.49,2.4-4.91,4.88-7.37,7.3Zm75.94,106.88c-12.78-12.75-24.74-24.66-36.67-36.62-1.29-1.3-2.17-.91-3.26.2-3.16,3.24-6.39,6.41-9.57,9.62l-26.48,26.8Z"/></svg>