<svg id="圖層_1" data-name="圖層 1" xmlns="http://www.w3.org/2000/svg" viewBox="0 0 56.69 56.69"><defs><style>.cls-1{fill:none;stroke:#040000;stroke-miterlimit:10;stroke-width:0.75px;}</style></defs><title>logo</title><path class="cls-1" d="M9.08,13.78,25.54,7a5.61,5.61,0,0,1,4.33,0l16.46,6.8a2.83,2.83,0,0,1,0,5.24l-16.46,6.8a5.7,5.7,0,0,1-4.33,0L9.08,19A2.84,2.84,0,0,1,9.08,13.78Z"/><path class="cls-1" d="M5.94,40.82,6,26.36A2.71,2.71,0,0,1,9.7,23.75l15,6.48a2.83,2.83,0,0,1,1.68,2.62l0,14.46a2.73,2.73,0,0,1-3.75,2.62l-15-6.48A2.84,2.84,0,0,1,5.94,40.82Z"/><line class="cls-1" x1="8.35" y1="29.62" x2="24.1" y2="36.28"/><line class="cls-1" x1="8.35" y1="33.62" x2="24.1" y2="40.28"/><line class="cls-1" x1="8.35" y1="37.62" x2="24.1" y2="44.28"/><line class="cls-1" x1="47.85" y1="29.62" x2="32.1" y2="36.28"/><line class="cls-1" x1="47.85" y1="33.62" x2="32.1" y2="40.28"/><line class="cls-1" x1="47.85" y1="37.62" x2="32.1" y2="44.28"/><path class="cls-1" d="M31.79,30.23,47,23.75a2.75,2.75,0,0,1,3.79,2.61l0,14.46a2.85,2.85,0,0,1-1.7,2.63L33.91,49.93a2.75,2.75,0,0,1-3.79-2.62l0-14.46A2.81,2.81,0,0,1,31.79,30.23Z"/></svg>