<svg xmlns="http://www.w3.org/2000/svg" viewBox="0 0 76.01 11.26"><title>資產 1</title><g id="b91d8217-bc7c-42f6-acea-cdf8fe15b81a" data-name="圖層 2"><g id="ac07a6e5-2124-462b-83db-fbe1ca3f9f0f" data-name="圖層 1"><path d="M0,6l1.07-.1a2.29,2.29,0,0,0,.36,1.06,1.87,1.87,0,0,0,.86.67,3.27,3.27,0,0,0,1.32.25,3.15,3.15,0,0,0,1.15-.19,1.63,1.63,0,0,0,.74-.53,1.23,1.23,0,0,0,.24-.74,1.13,1.13,0,0,0-.23-.7,1.82,1.82,0,0,0-.78-.51,15.4,15.4,0,0,0-1.52-.42,8.3,8.3,0,0,1-1.66-.53,2.44,2.44,0,0,1-.92-.8,2,2,0,0,1-.3-1.07A2.16,2.16,0,0,1,.7,1.15,2.24,2.24,0,0,1,1.78.29,4.14,4.14,0,0,1,3.35,0,4.25,4.25,0,0,1,5,.31a2.4,2.4,0,0,1,1.12.9,2.63,2.63,0,0,1,.42,1.36l-1.09.08A1.8,1.8,0,0,0,4.9,1.42,2.31,2.31,0,0,0,3.4,1a2.39,2.39,0,0,0-1.5.38,1.13,1.13,0,0,0-.48.91,1,1,0,0,0,.34.76,4.5,4.5,0,0,0,1.71.62,11,11,0,0,1,1.9.54,2.65,2.65,0,0,1,1.11.88,2.11,2.11,0,0,1,.36,1.22A2.32,2.32,0,0,1,6.45,7.6a2.65,2.65,0,0,1-1.13,1,4,4,0,0,1-1.66.33,4.83,4.83,0,0,1-1.95-.34,2.65,2.65,0,0,1-1.24-1A2.91,2.91,0,0,1,0,6Z"/><path d="M8.26,8.74V.15H9.31V3.23a2.35,2.35,0,0,1,1.86-.86,2.46,2.46,0,0,1,1.21.28,1.58,1.58,0,0,1,.72.75,3.38,3.38,0,0,1,.22,1.39v4H12.27V4.79a1.63,1.63,0,0,0-.34-1.15,1.28,1.28,0,0,0-1-.36,1.69,1.69,0,0,0-.88.24,1.39,1.39,0,0,0-.59.66,3,3,0,0,0-.18,1.15V8.74Z"/><path d="M14.94,1.36V.15H16V1.36Zm0,7.38V2.51H16V8.74Z"/><path d="M17.6,8.74V2.51h.94V3.4a2.24,2.24,0,0,1,2-1,2.5,2.5,0,0,1,1,.21,1.64,1.64,0,0,1,.71.53,2,2,0,0,1,.32.77,6,6,0,0,1,.06,1V8.74h-1V5a2.59,2.59,0,0,0-.13-1A.94.94,0,0,0,21,3.48a1.38,1.38,0,0,0-.74-.19,1.73,1.73,0,0,0-1.16.42,2.12,2.12,0,0,0-.49,1.63v3.4Z"/><path d="M24.27,8.74V2.51h.95V3.4a2.23,2.23,0,0,1,2-1,2.5,2.5,0,0,1,1,.21,1.58,1.58,0,0,1,.71.53,1.86,1.86,0,0,1,.33.77,6,6,0,0,1,.06,1V8.74H28.27V5a2.87,2.87,0,0,0-.12-1,1,1,0,0,0-.44-.51A1.35,1.35,0,0,0,27,3.29a1.75,1.75,0,0,0-1.17.42,2.16,2.16,0,0,0-.49,1.63v3.4Z"/><path d="M30.9,11.13l-.12-1a2.08,2.08,0,0,0,.6.1,1.18,1.18,0,0,0,.57-.12,1,1,0,0,0,.34-.33A5,5,0,0,0,32.61,9a2.51,2.51,0,0,1,.1-.26L30.35,2.51h1.13l1.3,3.61a13.53,13.53,0,0,1,.45,1.44,13,13,0,0,1,.43-1.42L35,2.51h1.06L33.68,8.84a10.85,10.85,0,0,1-.59,1.41,2,2,0,0,1-.65.77,1.52,1.52,0,0,1-.86.24A2,2,0,0,1,30.9,11.13Z"/><path d="M40.41,8.74V.15h3A7.34,7.34,0,0,1,44.9.27a3,3,0,0,1,1.26.61,3.67,3.67,0,0,1,1,1.47,5.9,5.9,0,0,1,.33,2,6.08,6.08,0,0,1-.22,1.74,4.4,4.4,0,0,1-.59,1.25,3.2,3.2,0,0,1-.78.78,3.33,3.33,0,0,1-1,.43,5.72,5.72,0,0,1-1.38.15Zm1.14-1h1.83a4.37,4.37,0,0,0,1.34-.16,1.93,1.93,0,0,0,.77-.44A2.68,2.68,0,0,0,46.12,6a5.27,5.27,0,0,0,.22-1.65,4,4,0,0,0-.44-2.07,2.17,2.17,0,0,0-1.08-1,4.31,4.31,0,0,0-1.47-.18h-1.8Z"/><path d="M53.2,6.73l1.09.14a2.68,2.68,0,0,1-.95,1.48,2.89,2.89,0,0,1-1.78.53A2.85,2.85,0,0,1,49.39,8a3.31,3.31,0,0,1-.8-2.36,3.44,3.44,0,0,1,.81-2.44,2.74,2.74,0,0,1,2.1-.87,2.69,2.69,0,0,1,2,.85,3.43,3.43,0,0,1,.79,2.39c0,.07,0,.16,0,.28H49.68a2.36,2.36,0,0,0,.58,1.57,1.71,1.71,0,0,0,1.3.55,1.62,1.62,0,0,0,1-.3A2,2,0,0,0,53.2,6.73ZM49.74,5h3.47a2,2,0,0,0-.39-1.18,1.63,1.63,0,0,0-1.31-.61,1.66,1.66,0,0,0-1.22.49A1.92,1.92,0,0,0,49.74,5Z"/><path d="M55.2,6.88l1-.17a1.49,1.49,0,0,0,.49,1A1.72,1.72,0,0,0,57.85,8a1.66,1.66,0,0,0,1.08-.3A.87.87,0,0,0,59.28,7,.62.62,0,0,0,59,6.46a4.24,4.24,0,0,0-1.08-.36,9.68,9.68,0,0,1-1.61-.51A1.58,1.58,0,0,1,55.6,5a1.6,1.6,0,0,1-.23-.83,1.54,1.54,0,0,1,.19-.77,1.65,1.65,0,0,1,.52-.59,2.09,2.09,0,0,1,.67-.31,3.33,3.33,0,0,1,.91-.13A3.63,3.63,0,0,1,59,2.58a1.78,1.78,0,0,1,.82.58,2.35,2.35,0,0,1,.36,1l-1,.14a1.12,1.12,0,0,0-.41-.75,1.47,1.47,0,0,0-.95-.27,1.73,1.73,0,0,0-1,.24.69.69,0,0,0-.31.56.56.56,0,0,0,.13.37.87.87,0,0,0,.4.28l.94.27a15.4,15.4,0,0,1,1.56.49,1.59,1.59,0,0,1,.69.56,1.52,1.52,0,0,1,.25.9,1.79,1.79,0,0,1-.3,1,2.06,2.06,0,0,1-.89.72,3.26,3.26,0,0,1-1.31.26A2.89,2.89,0,0,1,56,8.37,2.26,2.26,0,0,1,55.2,6.88Z"/><path d="M61.62,1.36V.15h1.06V1.36Zm0,7.38V2.51h1.06V8.74Z"/><path d="M64.09,9.25l1,.15a1,1,0,0,0,.35.7,1.79,1.79,0,0,0,1.07.29,2,2,0,0,0,1.14-.29,1.46,1.46,0,0,0,.53-.82,6.62,6.62,0,0,0,.08-1.36,2.17,2.17,0,0,1-1.72.82,2.35,2.35,0,0,1-2-.93,3.57,3.57,0,0,1-.7-2.22A4.21,4.21,0,0,1,64.2,4a2.62,2.62,0,0,1,.94-1.17,2.51,2.51,0,0,1,1.43-.41,2.24,2.24,0,0,1,1.82.89V2.51h1V7.89A5.24,5.24,0,0,1,69.07,10a2.13,2.13,0,0,1-.94,1,3.3,3.3,0,0,1-1.58.35,3,3,0,0,1-1.8-.5A1.68,1.68,0,0,1,64.09,9.25ZM65,5.51a2.72,2.72,0,0,0,.49,1.79,1.52,1.52,0,0,0,1.22.56,1.55,1.55,0,0,0,1.22-.56,2.63,2.63,0,0,0,.49-1.75,2.52,2.52,0,0,0-.51-1.72,1.55,1.55,0,0,0-1.22-.58,1.5,1.5,0,0,0-1.19.57A2.51,2.51,0,0,0,65,5.51Z"/><path d="M71,8.74V2.51h1V3.4a2.21,2.21,0,0,1,2-1,2.5,2.5,0,0,1,1,.21,1.58,1.58,0,0,1,.71.53,2.16,2.16,0,0,1,.33.77,7.71,7.71,0,0,1,.05,1V8.74H75V5a2.87,2.87,0,0,0-.12-1,1,1,0,0,0-.44-.51,1.36,1.36,0,0,0-.74-.19,1.73,1.73,0,0,0-1.16.42A2.12,2.12,0,0,0,72,5.34v3.4Z"/></g></g></svg>