<svg id="圖層_1" data-name="圖層 1" xmlns="http://www.w3.org/2000/svg" viewBox="0 0 56.69 56.69"><defs><style>.cls-1,.cls-2{fill:none;stroke-miterlimit:10;stroke-width:0.75px;}.cls-1{stroke:#040000;}.cls-2{stroke:#231815;}</style></defs><title>logo</title><path class="cls-1" d="M9.58,13.78,26,7a5.61,5.61,0,0,1,4.33,0l16.46,6.8a2.83,2.83,0,0,1,0,5.24l-16.46,6.8a5.7,5.7,0,0,1-4.33,0L9.58,19A2.84,2.84,0,0,1,9.58,13.78Z"/><path class="cls-1" d="M5.44,40.82l0-14.46a2.82,2.82,0,0,1,3.91-2.61L25,30.23a2.82,2.82,0,0,1,1.75,2.62l0,14.46a2.83,2.83,0,0,1-3.91,2.62L7.19,43.45A2.83,2.83,0,0,1,5.44,40.82Z"/><path class="cls-1" d="M31.65,30.23l15.67-6.48a2.83,2.83,0,0,1,3.92,2.61l0,14.46a2.85,2.85,0,0,1-1.75,2.63L33.84,49.93a2.84,2.84,0,0,1-3.92-2.62l0-14.46A2.83,2.83,0,0,1,31.65,30.23Z"/><path class="cls-2" d="M16.1,31.64A6.4,6.4,0,0,0,13,29.42a17.74,17.74,0,0,0-3.17-.91L9.46,41.33l2.32.87.12-4.65a5.14,5.14,0,0,0,.8.35,3.44,3.44,0,0,0,3.39-.11,3.49,3.49,0,0,0,1-2.73A5.75,5.75,0,0,0,16.1,31.64Zm-3.36,4a3.16,3.16,0,0,1-.78-.37l.1-3.83a3.06,3.06,0,0,1,1,.24,2.58,2.58,0,0,1,1.78,2.59C14.77,35.6,14,36.1,12.74,35.64Z"/><path class="cls-2" d="M20.8,39.73c-.91-.75-1.2-1.09-1.18-1.53s.34-.65.9-.44a4.8,4.8,0,0,1,1.62,1.14L22.61,37A6.23,6.23,0,0,0,20.5,35.7c-1.86-.69-3.09.2-3.14,1.95a4.58,4.58,0,0,0,2.06,3.63c.87.7,1.09,1,1.08,1.49s-.31.69-1,.42a5.81,5.81,0,0,1-2-1.46l-.47,2a6.49,6.49,0,0,0,2.41,1.56c2.14.8,3.29-.08,3.33-1.84A4.4,4.4,0,0,0,20.8,39.73Z"/><g id="_群組_" data-name="&lt;群組&gt;"><path id="_複合路徑_" data-name="&lt;複合路徑&gt;" class="cls-2" d="M32.8,46.6l2.61-1.19a.32.32,0,0,0,.15-.19L36.32,42l3-1.36.83,2.5c0,.06.08.08.15,0L43,42h0a.29.29,0,0,0,.16-.24.14.14,0,0,0,0-.06L39.64,31.59c0-.06-.08-.07-.15,0l-3.3,1.51a.3.3,0,0,0-.15.18L32.65,46.46a.14.14,0,0,0,0,.13A.1.1,0,0,0,32.8,46.6Zm6-8-2.05.93L37.37,37c.1-.46.21-1,.31-1.5,0-.12,0-.24.07-.35.13.5.28,1,.42,1.48Z"/><path id="_路徑_" data-name="&lt;路徑&gt;" class="cls-2" d="M44.24,32.57a.28.28,0,0,0-.15.23v8.46a.1.1,0,0,0,.15.09l2.51-1.15a.27.27,0,0,0,.16-.23V31.51c0-.09-.07-.13-.16-.09Z"/><path id="_路徑_2" data-name="&lt;路徑&gt;" class="cls-2" d="M45.48,31.29A2.57,2.57,0,0,0,47,29.12c0-.87-.64-1.2-1.5-.81a2.57,2.57,0,0,0-1.09,1A2.11,2.11,0,0,0,44,30.48a.91.91,0,0,0,.38.85A1.15,1.15,0,0,0,45.48,31.29Z"/></g></svg>