<svg id="圖層_1" data-name="圖層 1" xmlns="http://www.w3.org/2000/svg" viewBox="0 0 462 452"><defs><style>.cls-1{fill:#724204;}</style></defs><title>履歷作品icon設計</title><path d="M110.16,354.54h4.4l6.82,27.77h.1l7.66-27.77h4.27l7.66,27.77h.09L148,354.54h4.41l-9.21,33.82h-4l-7.88-27.09h-.09l-7.88,27.09h-4Z"/><path d="M152.32,376.27v0c0-7.54,4.31-12.72,11-12.72S174,368.46,174,375.78v1.5H156.45c.09,5,2.85,7.94,7.19,7.94,3.09,0,5.27-1.55,6-3.63l.07-.21h4l0,.23c-.8,4-4.78,7.22-10.1,7.22C156.54,388.83,152.32,383.93,152.32,376.27Zm4.2-2.18h13.33c-.4-4.74-3-7-6.58-7S157,369.54,156.52,374.09Z"/><path d="M182.48,384.24h-.09v4.12h-4.08V354.54h4.08v13.52h.09a8.65,8.65,0,0,1,7.81-4.54c6.12,0,10.29,4.94,10.29,12.63v0c0,7.69-4.13,12.66-10.36,12.66A8.5,8.5,0,0,1,182.48,384.24Zm13.93-8.07v0c0-5.55-2.68-9-7-9-4.1,0-7,3.58-7,9v0c0,5.46,2.93,9.05,7,9.05C193.73,385.22,196.41,381.78,196.41,376.17Z"/><path d="M215.16,354.54h11.36c10,0,16,6.24,16,16.85v.05c0,10.66-5.9,16.92-16,16.92H215.16Zm11.08,30c7.67,0,11.93-4.68,11.93-13.07v-.05c0-8.44-4.26-13.1-11.93-13.1h-6.86v26.22Z"/><path d="M245.91,376.27v0c0-7.54,4.31-12.72,11-12.72s10.71,4.94,10.71,12.26v1.5H250c.09,5,2.86,7.94,7.2,7.94,3.09,0,5.27-1.55,6-3.63l.07-.21h4l0,.23c-.79,4-4.78,7.22-10.1,7.22C250.12,388.83,245.91,383.93,245.91,376.27Zm4.19-2.18h13.34c-.4-4.74-3-7-6.59-7S250.55,369.54,250.1,374.09Z"/><path d="M270.63,381.54l0-.21h4.08l0,.23c.5,2.44,2.3,3.87,5.63,3.87s5.27-1.38,5.27-3.58v0c0-1.76-.91-2.74-3.68-3.42l-3.86-.94c-4.6-1.1-6.82-3.23-6.82-6.75v0c0-4.2,3.68-7.17,9-7.17s8.74,3.11,9,7.19l0,.31H285.4l0-.17c-.33-2.36-2.14-3.93-5.16-3.93s-4.78,1.43-4.78,3.58v0c0,1.66,1.1,2.81,3.79,3.46l3.87.94c4.92,1.2,6.7,3.14,6.7,6.61v0c0,4.27-4,7.27-9.46,7.27C274.59,388.83,271.12,385.9,270.63,381.54Z"/><path d="M293.77,357.31a2.56,2.56,0,1,1,2.55,2.55A2.54,2.54,0,0,1,293.77,357.31Zm.51,6.68h4.08v24.37h-4.08Z"/><path d="M303.61,390.59l-.05-.21h4.1l.1.21c.77,1.76,3.09,2.83,6.42,2.83,4.29,0,6.73-2.36,6.73-6.14v-3.11h-.1a8.56,8.56,0,0,1-7.76,4.43c-6.14,0-10.33-5-10.33-12.57v0c0-7.57,4.24-12.49,10.43-12.49a8.6,8.6,0,0,1,7.66,4.59h.1V364H325v23.69c0,5.65-4.14,9.35-10.75,9.35C308.2,397,304.41,394.2,303.61,390.59ZM320.91,376v0c0-5.37-2.84-8.88-7-8.88-4.34,0-7.06,3.47-7.06,8.88v0c0,5.53,2.72,9,7.06,9C318.09,385,320.91,381.45,320.91,376Z"/><path d="M330.26,364h4.08v3.47h.09c1.31-2.28,3.8-3.94,7.5-3.94,5.34,0,8.44,3.47,8.44,9v15.82h-4.08V373.27c0-4-1.85-6.14-5.6-6.14s-6.35,2.74-6.35,6.89v14.34h-4.08Z"/><path class="cls-1" d="M326.29,169a1.19,1.19,0,0,0-1.33.72c-.88,2.28-2,1.81-3.19.28a8.59,8.59,0,0,0-4.76-2.69c-.82-.22-1.8-.67-2.3.39s.44,1.57,1,2.23c1.31,1.57,3.27,1.65,5,2.13,1.56.42,1.87,1.07.65,2.12-4.17,3.61-6.6,9.23-13.06,10.29-1.95.32-3.49,3.09-5.36,4.88a8.6,8.6,0,0,0-.53-1.89c-.9-1.69.67-4.33-1.68-5.29a19.64,19.64,0,0,0-8.3-1.37c-.51,0-1.3.18-1.47.52-1.54,3.23-3,6.51-4.42,9.8-.24.54.26,1,.66,1.39,2.69,2.63,9.6,3.55,12.93,1.52,1.52-.93,2.18-.91,2.81.89,1.09,3.08,1.58,6.13.53,9.27-1.71,5.11-4.65,9.62-7.4,14.18-1.72,2.87-4.41,3.15-6.53.66-3.92-4.64-9.29-5.4-14.68-6a72.4,72.4,0,0,0-9.1-.83,7.4,7.4,0,0,0-6,2.74,22,22,0,0,0-5.59,14.3,70.52,70.52,0,0,0,.55,12.06c.16,1.08.73,2.67-.44,3.31-1,.54-1.87-.8-2.77-1.33-10.06-5.95-16.45-14.73-19.74-25.86-.4-1.35-.93-2.66-1.51-4.33-3.84,4.5-5.14,9.67-5.58,15.11-.83,10.34,1.26,20.37,3.53,30.36a20,20,0,0,1,.4,4.21H228c-4.18-2.32-8.47-4.45-12.51-7-11.53-7.2-17.89-17.55-18.22-31.27a24.6,24.6,0,0,1,2.34-10.58c1.3,12.09,5.27,22.68,15.81,30.34A66.29,66.29,0,0,1,219,223.53a47.82,47.82,0,0,1,11.71-18.28c.59-.58,1.09-1.6,2.1-1.29s.89,1.35,1,2.21c1.11,6.93,4.62,12.59,9.31,17.65,1.38,1.49,2.09,2,2.76-.67a30.9,30.9,0,0,1,10.89-16.64,11.7,11.7,0,0,1,7.16-2.73c9.32-.35,18.53.16,27,4.6.77.4,1.56.92,2.35,0,1.58-1.79,3.27-3.51,4.7-5.43.76-1,1.65-2.22-1.15-2.18a27.94,27.94,0,0,1-13.08-3.58c-2.58-1.33-3.57-3.44-3-6.51A35.92,35.92,0,0,1,285.74,179c1.92-3.18,4.53-4.46,8.24-3.53,3.87,1,7.88,1.36,11.42,3.59,2.4,1.52,7.62-.76,8.71-3.34.63-1.48-.5-2-1.22-2.68a7.37,7.37,0,0,1-2.42-5.49c-.07-3.43,2.1-4.36,5.36-4.82-3-2-5.9-3.25-8.2-5.44a44.59,44.59,0,0,1-11.53-19.13c-1.22-3.77-3.07-6.27-7.09-7.68-8.63-3-17-6.7-25.53-10.07a7.69,7.69,0,0,1-3.47-2.37c-4-5.29-9.22-9.24-14.51-13.06-6.24-4.5-12.67-8.72-19.31-12.79,5.06,7.48,6.06,17.75,15.67,22.37-1,0-2.05,0-3.08,0-18.45,0-36.92-.39-55.36.16-8,.23-13.95-3.17-20.14-7.22,1.05-1.27,2.34-.71,3.43-.71,17.47,0,34.95,0,52.42,0,3.86,0,4,0,2.85-3.78-2.32-7.77-5.87-15-9.56-22.2a30.72,30.72,0,0,1-2.94-7.42c4.63,2.71,9.32,5.32,13.88,8.15,8.6,5.34,17.82,9.67,25.93,15.83,5,3.79,9,8.54,13,13.34a13.72,13.72,0,0,0,7.62,4.56c9.76,2.6,19.75,4.46,28.81,9.35a8.18,8.18,0,0,1,4.63,6.18,76.43,76.43,0,0,0,4.74,14.9,25.08,25.08,0,0,0,10.14,12.06c3.78,2.4,7.24,5.12,8.1,9.94Z"/><path class="cls-1" d="M134.24,126.37c26,0,51.92.09,77.88,0,4.13,0,7.12,2,11,3.85-3.78,2.37-7.18,4-11.07,4-20.4.05-40.79,0-61.19.05-3.12,0-5.66-1.43-8.27-2.76-2.8-1.44-5.57-3-8.35-4.45Z"/><path class="cls-1" d="M156.64,165.68q52.53,0,105.07,0c3.44,0,6.11,2,9.28,3.56-3.74,2.3-7.27,3.83-11.67,3.8q-42.23-.24-84.46,0a22,22,0,0,1-13.47-3.87c-1.57-1.11-3.3-2-5-3Z"/><path class="cls-1" d="M261.46,188.86c-3.87,2.19-7.46,3.75-11.63,3.74-19.21,0-38.42-.1-57.63,0-4.4,0-8.37-.62-12-3.21-2-1.42-4.4-2.33-7.42-3.88,1.81-.1,2.8-.2,3.8-.2,24.88,0,49.77.06,74.65-.07C255.05,185.25,258,186.88,261.46,188.86Z"/><path class="cls-1" d="M192.6,146c20.05,0,40.1,0,60.15,0,3.18,0,5.58,2.21,8.72,3.63-3.17,2-6.05,3.59-9.56,3.59-15.16,0-30.33.2-45.48-.13C201.09,153,197.13,148.85,192.6,146Z"/><path class="cls-1" d="M301.29,162.44A211.39,211.39,0,0,0,280,153.27a9,9,0,0,1-4.68-4.41c-2.67-5.41-5-11-7.94-17.39,7.62,3.57,14.4,6.6,21,10a6.93,6.93,0,0,1,3.87,4.65c1,5.44,4.25,9.67,7.48,13.91C300.33,160.76,300.78,161.62,301.29,162.44ZM288.56,151.9c-.23-6.5-5.09-8-9.41-10.05-.73-.35-1.57-1.34-2.31-.62-.89.87.1,1.85.53,2.64C279.78,148.25,283.81,150.39,288.56,151.9Z"/><path class="cls-1" d="M158.34,146.37c10.43-1.32,20.33-.62,28.55,6.78C173.35,154.79,166,153.05,158.34,146.37Z"/></svg>