<svg id="圖層_1" data-name="圖層 1" xmlns="http://www.w3.org/2000/svg" viewBox="0 0 462 452"><defs><style>.cls-1{font-size:72px;font-family:SFProDisplay-Bold, SF Pro Display;font-weight:700;}.cls-2{font-size:48px;font-family:SFProDisplay-Regular, SF Pro Display;}.cls-3{letter-spacing:-0.05em;}.cls-4{fill:#724204;}</style></defs><title>ft_logo</title><text class="cls-1" transform="translate(131.53 316.36)">SMZB</text><text class="cls-2" transform="translate(109.1 388.36)"><tspan class="cls-3">W</tspan><tspan x="41.77" y="0">eb Design</tspan></text><path class="cls-4" d="M337.34,141.8a1.31,1.31,0,0,0-1.46.8c-1,2.5-2.17,2-3.5.3a9.31,9.31,0,0,0-5.23-3c-.9-.24-2-.73-2.52.43s.48,1.72,1.08,2.44c1.43,1.73,3.59,1.82,5.51,2.34,1.71.47,2,1.17.71,2.33-4.58,4-7.24,10.12-14.33,11.29-2.13.35-3.83,3.39-5.88,5.36a9.77,9.77,0,0,0-.58-2.08c-1-1.85.74-4.75-1.85-5.81a21.78,21.78,0,0,0-9.1-1.5c-.56,0-1.43.2-1.61.57-1.69,3.55-3.3,7.14-4.86,10.75-.25.6.29,1.1.73,1.53,2.95,2.89,10.53,3.9,14.19,1.67,1.66-1,2.38-1,3.08,1,1.2,3.37,1.74,6.72.58,10.17C310.42,186,307.2,191,304.19,196c-1.9,3.15-4.85,3.46-7.17.72-4.31-5.1-10.19-5.93-16.11-6.63a81,81,0,0,0-10-.91,8.1,8.1,0,0,0-6.57,3,24.25,24.25,0,0,0-6.13,15.68,79.2,79.2,0,0,0,.6,13.24c.18,1.18.8,2.93-.48,3.64-1.07.58-2-.89-3-1.47-11-6.53-18-16.15-21.66-28.37-.44-1.48-1-2.92-1.66-4.75-4.21,4.93-5.63,10.61-6.11,16.57-.92,11.35,1.38,22.36,3.86,33.32a21.84,21.84,0,0,1,.45,4.61h-.72c-4.59-2.54-9.29-4.88-13.73-7.65-12.65-7.9-19.63-19.26-20-34.31a27.12,27.12,0,0,1,2.57-11.61c1.43,13.27,5.78,24.88,17.35,33.29a72.61,72.61,0,0,1,4-22.7A52.66,52.66,0,0,1,232.5,181.6c.65-.64,1.2-1.75,2.31-1.41s1,1.48,1.12,2.42c1.22,7.6,5.07,13.82,10.21,19.36,1.51,1.64,2.29,2.15,3-.73a34,34,0,0,1,12-18.26,12.89,12.89,0,0,1,7.87-3c10.22-.39,20.33.17,29.67,5,.85.45,1.71,1,2.58,0,1.74-2,3.59-3.85,5.15-6,.84-1.12,1.82-2.43-1.25-2.39-5.05.07-9.87-1.62-14.36-3.93-2.82-1.46-3.91-3.77-3.25-7.14a39.48,39.48,0,0,1,5.33-12.83c2.1-3.49,5-4.89,9-3.87,4.26,1.07,8.66,1.49,12.54,3.94,2.63,1.66,8.36-.84,9.56-3.67.69-1.62-.56-2.19-1.34-2.94a8,8,0,0,1-2.65-6c-.08-3.76,2.29-4.79,5.87-5.29-3.3-2.21-6.47-3.57-9-6-6.16-5.85-10.08-13-12.65-21-1.33-4.14-3.37-6.87-7.78-8.43-9.46-3.33-18.68-7.35-28-11a8.46,8.46,0,0,1-3.81-2.6c-4.39-5.8-10.11-10.14-15.92-14.33-6.84-4.93-13.89-9.57-21.18-14,5.55,8.2,6.65,19.48,17.19,24.55h-3.38c-20.24,0-40.51-.44-60.74.17-8.77.26-15.31-3.48-22.09-7.92,1.15-1.4,2.56-.78,3.76-.78,19.17,0,38.34,0,57.51,0,4.24,0,4.35,0,3.12-4.15-2.53-8.52-6.43-16.48-10.48-24.36a33.8,33.8,0,0,1-3.22-8.14c5.08,3,10.22,5.83,15.22,8.94,9.44,5.86,19.56,10.62,28.45,17.37,5.48,4.16,9.92,9.37,14.22,14.63a15,15,0,0,0,8.37,5c10.71,2.86,21.66,4.9,31.61,10.26a9,9,0,0,1,5.07,6.78,84.52,84.52,0,0,0,5.2,16.35,27.59,27.59,0,0,0,11.13,13.23c4.16,2.64,7.94,5.62,8.89,10.9Z"/><path class="cls-4" d="M126.62,95.06c28.48,0,57,.09,85.45,0,4.53,0,7.81,2.24,12.07,4.23-4.14,2.59-7.88,4.38-12.14,4.39-22.38.06-44.77,0-67.15.06-3.42,0-6.21-1.57-9.07-3-3.08-1.58-6.11-3.25-9.16-4.89Z"/><path class="cls-4" d="M151.19,138.18H266.48c3.77,0,6.71,2.25,10.19,3.91-4.11,2.52-8,4.2-12.81,4.17q-46.34-.27-92.67,0c-5.52,0-10.33-1.1-14.78-4.24-1.73-1.22-3.62-2.18-5.44-3.26Z"/><path class="cls-4" d="M266.21,163.62c-4.25,2.4-8.19,4.11-12.76,4.1-21.08,0-42.16-.1-63.23,0-4.83,0-9.19-.68-13.22-3.51-2.22-1.56-4.83-2.56-8.14-4.27,2-.1,3.07-.21,4.16-.21,27.3,0,54.6.06,81.91-.08C259.18,159.65,262.42,161.45,266.21,163.62Z"/><path class="cls-4" d="M190.66,116.63c22,0,44,0,66,0,3.49,0,6.13,2.42,9.57,4-3.48,2.17-6.64,3.94-10.5,3.94-16.63,0-33.27.22-49.89-.14C200,124.32,195.62,119.72,190.66,116.63Z"/><path class="cls-4" d="M309.9,134.63a228.8,228.8,0,0,0-23.33-10.06,9.86,9.86,0,0,1-5.13-4.84c-2.94-5.94-5.53-12-8.72-19.09,8.36,3.93,15.8,7.25,23,11a7.58,7.58,0,0,1,4.24,5.1c1.13,6,4.67,10.61,8.21,15.26A30.86,30.86,0,0,1,309.9,134.63Zm-14-11.56c-.25-7.14-5.59-8.8-10.32-11-.8-.38-1.73-1.47-2.54-.68-1,1,.11,2,.59,2.89C286.31,119.07,290.73,121.41,295.94,123.07Z"/><path class="cls-4" d="M153.06,117c11.44-1.44,22.31-.67,31.32,7.45C169.53,126.24,161.41,124.33,153.06,117Z"/></svg>